<svg xmlns="http://www.w3.org/2000/svg" id="Ebene_1" data-name="Ebene 1" viewBox="0 0 256.98 249.29"><defs><style>.cls-1{fill:#5ca595;}.cls-1,.cls-2,.cls-3,.cls-5,.cls-6{fill-rule:evenodd;}.cls-2{fill:#5b7674;}.cls-3,.cls-4,.cls-5{fill:#fefefe;}.cls-5{stroke:#fefefe;stroke-miterlimit:22.93;stroke-width:0.22px;}.cls-6{fill:#f5b2b6;}</style></defs><title>AGFF_f</title><polygon class="cls-1" points="0.15 71.84 256.98 89.44 256.98 203.85 256.98 249.11 0.15 249.11 0.15 71.84 0.15 71.84"/><polygon class="cls-2" points="192.51 86.57 256.98 90.16 256.98 52.62 251.6 57.65 248.54 53.34 256.98 36.46 256.98 0.18 252.85 0.18 237.41 52.44 234.35 49.39 245.31 4.67 239.92 10.24 226.09 30.89 214.06 49.39 203.64 65.2 192.51 86.57 192.51 86.57"/><polygon class="cls-3" points="171.85 182.66 172.75 174.04 183.53 135.96 188.2 121.05 194.66 103.27 201.49 86.21 213.88 63.76 206.69 88.01 204 97.7 194.84 124.47 174.55 184.63 171.85 182.66 171.85 182.66"/><polygon class="cls-2" points="160.36 0.18 151.92 34.13 152.09 38.26 149.94 44.9 139.7 82.62 145.81 83.7 168.08 0.18 160.36 0.18 160.36 0.18"/><polygon class="cls-2" points="178.32 0.18 152.99 83.7 186.94 86.03 198.97 64.3 204.72 53.16 213.16 41.13 223.58 25.68 234 10.78 242.44 0.18 178.32 0.18 178.32 0.18"/><polygon class="cls-2" points="32.66 0.18 47.21 0.18 24.22 45.62 20.63 42.03 32.66 0.18 32.66 0.18"/><polygon class="cls-2" points="102.53 0.18 96.96 17.96 93.19 30.53 93.36 30.53 101.63 15.8 108.45 0.18 102.53 0.18 102.53 0.18"/><polygon class="cls-2" points="0.15 214.09 256.98 204.03 256.98 249.11 0.15 249.11 0.15 214.09 0.15 214.09"/><path class="cls-4" d="M674.17,157.1a30.42,30.42,0,0,1-7.56,3.75,24.83,24.83,0,0,1-7.81,1.25q-8.46,0-13.78-5.5t-5.31-14.25a25,25,0,0,1,2-9.94,25.32,25.32,0,0,1,5.75-8.29,27,27,0,0,1,10-6,40.66,40.66,0,0,1,13.23-2q2,0,4.14.21c1.47.14,3.06.35,4.78.62l-.83,5.49c-1.59-.24-3.12-.42-4.61-.54s-2.93-.18-4.33-.18q-10.6,0-17.09,5.7a18.86,18.86,0,0,0-6.49,14.89q0,6.49,3.61,10.28t9.88,3.79a18.05,18.05,0,0,0,4.51-.58,22,22,0,0,0,4.6-1.81L670,146.4h-6.71l.55-5h12.69l-2.36,15.65Z" transform="translate(-554 87)"/><polygon class="cls-4" points="208.9 249.29 215.54 204.8 239.25 204.8 238.46 210.08 220.69 210.08 218.66 223.63 234.35 223.63 233.56 229.1 217.9 229.1 214.96 249.29 208.9 249.29 208.9 249.29"/><path class="cls-4" d="M601,143.42l-3.69-17.66-7.2,17.66Zm-18.56,18.69h-6.13l19.21-44.49h5.6l9.26,44.49h-5.54l-2.73-13.29H587.76l-5.35,13.29Z" transform="translate(-554 87)"/><polygon class="cls-4" points="154.95 249.11 161.59 204.62 185.3 204.62 184.51 209.9 166.74 209.9 164.71 223.45 180.41 223.45 179.62 228.92 163.95 228.92 161.02 249.11 154.95 249.11 154.95 249.11"/><polygon class="cls-3" points="11.82 97.89 19.37 97.89 13.8 146.74 10.93 167.39 8.41 184.63 5.9 203.85 5 213.91 0.15 214.09 0.33 148.35 11.82 97.89 11.82 97.89"/><polygon class="cls-3" points="27.45 97.92 40.02 97.92 34.45 116.78 27.81 132.05 24.04 144.08 21.52 146.6 23.5 124.86 27.45 97.92 27.45 97.92"/><polygon class="cls-5" points="9.31 70.51 0.15 98.17 45.59 97.99 52.95 74.1 9.31 70.51 9.31 70.51"/><polygon class="cls-6" points="18.29 67.89 22.78 64.12 29.25 62.86 34.63 63.94 37.69 66.45 40.38 69.87 41.46 73.1 41.82 77.05 40.92 80.64 39.66 83.52 37.87 86.39 34.81 88.19 31.4 88.9 27.09 89.26 23.32 88.9 20.09 86.93 18.29 84.41 18.29 67.89 18.29 67.89"/><polygon class="cls-3" points="58.7 69.69 50.44 97.89 76.12 97.7 64.99 156.26 74.51 153.38 82.41 120.69 88.69 97.7 92.65 97.7 83.31 130.03 81.15 146.2 78.28 170.8 81.33 171.52 89.59 144.22 96.78 117.46 100.91 97.7 105.76 78.31 58.7 69.69 58.7 69.69"/><polygon class="cls-3" points="104.5 138.12 95.88 152.49 90.85 164.7 87.26 174.04 82.77 185.35 80.61 193.43 81.33 194.87 84.03 194.69 92.11 175.29 98.21 161.1 102.88 148.53 106.48 139.19 104.5 138.12 104.5 138.12"/><polygon class="cls-3" points="174.01 83.16 173.29 93.75 176.34 93.57 177.96 83.34 174.01 83.16 174.01 83.16"/><polygon class="cls-3" points="220.34 131.29 215.68 149.43 211.72 160.93 209.03 168.47 206.69 174.57 209.93 174.94 214.96 161.64 219.27 147.99 223.58 132.19 220.34 131.29 220.34 131.29"/><polygon class="cls-3" points="243.51 103.99 214.42 134.34 210.83 136.5 207.77 135.96 204.54 132.55 202.03 127.34 200.95 121.59 201.67 116.2 204.54 110.46 207.77 106.69 223.4 119.44 226.27 118.54 228.07 104.89 229.68 97.89 231.12 94.65 233.63 93.22 236.33 93.75 239.74 96.81 243.51 103.99 243.51 103.99"/><polygon class="cls-3" points="229.15 125 232.38 131.11 236.69 134.7 240.82 138.66 244.05 140.99 246.21 140.99 248.18 137.4 249.98 132.19 250.34 126.62 249.8 123.21 248.54 120.16 247.29 118.36 243.34 118.36 237.77 119.98 232.38 121.77 230.22 123.21 229.15 125 229.15 125"/><polygon class="cls-3" points="177.06 71.48 180.65 72.02 177.96 84.23 173.83 84.23 177.06 71.48 177.06 71.48"/><path class="cls-6" d="M739.17-47.49c7.45,0,13.5,5.76,13.5,12.87s-6,12.86-13.5,12.86-13.5-5.76-13.5-12.86,6.05-12.87,13.5-12.87Z" transform="translate(-554 87)"/><polygon class="cls-6" points="204.36 0.18 205.62 7.9 207.23 11.85 210.65 15.09 214.06 17.42 218.37 17.78 222.32 15.8 226.99 0.18 204.36 0.18 204.36 0.18"/><polygon class="cls-3" points="158.92 141.35 164.44 142.16 158.34 155.6 158.92 141.35 158.92 141.35"/><polygon class="cls-2" points="0.15 0.18 10.03 7.9 26.01 20.3 35.35 29.45 42.36 37 49 45.26 56.19 56.4 62.29 66.99 66.24 76.33 71.81 89.26 70.02 90.16 60.5 71.84 54.93 61.06 45.95 47.77 36.61 37.18 24.76 25.14 0.15 4.49 0.15 0.18 0.15 0.18"/><polygon class="cls-2" points="123.9 0.18 96.6 78.67 100.37 79.21 109.53 56.94 105.58 81.54 115.81 82.62 125.16 42.75 129.82 32.51 133.96 22.45 137.37 14.73 139.16 11.31 141.5 12.21 140.96 18.86 137.91 30.53 134.31 42.57 129.11 59.81 122.82 82.44 131.62 83.34 145.27 28.02 152.46 0 140.42 0.18 132.7 15.8 119.05 38.26 116 37.18 129.11 0 123.9 0.18 123.9 0.18"/><polygon class="cls-3" points="112.76 97.53 115.81 82.62 125.16 42.75 139.16 11.31 141.5 12.21 140.96 18.86 122.82 82.44 118.87 97.53 112.76 97.53 112.76 97.53"/><polygon class="cls-2" points="16.31 38.97 9.67 48.49 4.82 57.47 0.15 73.82 8.23 74.54 11.82 63.58 14.34 53.34 16.31 38.97 16.31 38.97"/><polygon class="cls-2" points="75.58 0.18 66.6 24.25 61.76 38.97 56.73 56.76 51.88 77.95 56.37 77.95 60.14 62.68 65.17 45.62 73.79 24.07 83.67 0.18 75.58 0.18 75.58 0.18"/><polygon class="cls-2" points="58.52 0.18 64.45 0.18 64.09 13.11 61.03 24.96 57.98 37.72 54.21 52.09 50.62 63.76 47.03 77.05 45.05 76.33 48.82 47.42 52.95 22.63 55.65 10.06 58.52 0.18 58.52 0.18"/><polygon class="cls-3" points="118.69 152.13 122.28 130.39 127.13 103.63 131.62 83.34 152.46 0 160.36 0.18 151.92 34.13 152.09 38.26 139.7 82.62 135.39 97.7 128.57 128.6 121.74 152.84 118.69 152.13 118.69 152.13"/><polygon class="cls-3" points="145.99 82.62 142.22 97.89 147.25 97.53 152.99 83.52 178.32 0.18 168.08 0.18 145.99 82.62 145.99 82.62"/><polygon class="cls-3" points="242.44 0.18 234 10.78 204.9 52.98 199.15 64.12 186.94 86.03 179.03 100.04 168.44 121.77 161.44 135.96 165.93 136.14 180.29 107.4 192.51 86.57 203.82 65.02 214.24 49.21 240.1 10.06 245.31 4.49 234.53 49.21 237.59 52.27 252.85 0.18 242.44 0.18 242.44 0.18"/></svg>