<svg xmlns="http://www.w3.org/2000/svg" xmlns:xlink="http://www.w3.org/1999/xlink" class="svglite" width="720.00pt" height="540.00pt" viewBox="0 0 720.00 540.00"><defs><style type="text/css"><![CDATA[ .svglite line, .svglite polyline, .svglite polygon, .svglite path, .svglite rect, .svglite circle { fill: none; stroke: #000000; stroke-linecap: round; stroke-linejoin: round; stroke-miterlimit: 10.00; } .svglite text { white-space: pre; } ]]></style></defs><rect width="100%" height="100%" style="stroke: none; fill: none;"/><defs><clipPath id="cpMC4wMHw3MjAuMDB8MC4wMHw1NDAuMDA="><rect x="0.00" y="0.00" width="720.00" height="540.00"/></clipPath></defs><g clip-path="url(#cpMC4wMHw3MjAuMDB8MC4wMHw1NDAuMDA=)"></g><defs><clipPath id="cpMzguMDN8NzE0LjUyfDEwNy44OXw1MDguNTA="><rect x="38.03" y="107.89" width="676.49" height="400.61"/></clipPath></defs><g clip-path="url(#cpMzguMDN8NzE0LjUyfDEwNy44OXw1MDguNTA=)"><polyline points="38.03,425.72 714.52,425.72 " style="stroke-width: 0.53; stroke: #EBEBEB; stroke-linecap: butt;"/><polyline points="38.03,296.58 714.52,296.58 " style="stroke-width: 0.53; stroke: #EBEBEB; stroke-linecap: butt;"/><polyline points="38.03,167.43 714.52,167.43 " style="stroke-width: 0.53; stroke: #EBEBEB; stroke-linecap: butt;"/><polyline points="127.92,508.50 127.92,107.89 " style="stroke-width: 0.53; stroke: #EBEBEB; stroke-linecap: butt;"/><polyline points="246.18,508.50 246.18,107.89 " style="stroke-width: 0.53; stroke: #EBEBEB; stroke-linecap: butt;"/><polyline points="364.45,508.50 364.45,107.89 " style="stroke-width: 0.53; stroke: #EBEBEB; stroke-linecap: butt;"/><polyline points="482.72,508.50 482.72,107.89 " style="stroke-width: 0.53; stroke: #EBEBEB; stroke-linecap: butt;"/><polyline points="600.98,508.50 600.98,107.89 " style="stroke-width: 0.53; stroke: #EBEBEB; stroke-linecap: butt;"/><polyline points="38.03,490.29 714.52,490.29 " style="stroke-width: 1.07; stroke: #EBEBEB; stroke-linecap: butt;"/><polyline points="38.03,361.15 714.52,361.15 " style="stroke-width: 1.07; stroke: #EBEBEB; stroke-linecap: butt;"/><polyline points="38.03,232.00 714.52,232.00 " style="stroke-width: 1.07; stroke: #EBEBEB; stroke-linecap: butt;"/><polyline points="68.78,508.50 68.78,107.89 " style="stroke-width: 1.07; stroke: #EBEBEB; stroke-linecap: butt;"/><polyline points="187.05,508.50 187.05,107.89 " style="stroke-width: 1.07; stroke: #EBEBEB; stroke-linecap: butt;"/><polyline points="305.32,508.50 305.32,107.89 " style="stroke-width: 1.07; stroke: #EBEBEB; stroke-linecap: butt;"/><polyline points="423.58,508.50 423.58,107.89 " style="stroke-width: 1.07; stroke: #EBEBEB; stroke-linecap: butt;"/><polyline points="541.85,508.50 541.85,107.89 " style="stroke-width: 1.07; stroke: #EBEBEB; stroke-linecap: butt;"/><polyline points="660.12,508.50 660.12,107.89 " style="stroke-width: 1.07; stroke: #EBEBEB; stroke-linecap: butt;"/><circle cx="222.53" cy="334.80" r="1.42" style="stroke-width: 0.71; stroke: #F8766D; fill: #F8766D;"/><circle cx="269.84" cy="428.82" r="1.42" style="stroke-width: 0.71; stroke: #F8766D; fill: #F8766D;"/><circle cx="246.18" cy="237.17" r="1.42" style="stroke-width: 0.71; stroke: #F8766D; fill: #F8766D;"/><circle cx="116.09" cy="490.29" r="1.42" style="stroke-width: 0.71; stroke: #F8766D; fill: #F8766D;"/><circle cx="234.36" cy="335.32" r="1.42" style="stroke-width: 0.71; stroke: #F8766D; fill: #F8766D;"/><circle cx="234.36" cy="299.16" r="1.42" style="stroke-width: 0.71; stroke: #F8766D; fill: #F8766D;"/><circle cx="258.01" cy="254.73" r="1.42" style="stroke-width: 0.71; stroke: #E58700; fill: #E58700;"/><circle cx="269.84" cy="412.55" r="1.42" style="stroke-width: 0.71; stroke: #E58700; fill: #E58700;"/><circle cx="269.84" cy="420.56" r="1.42" style="stroke-width: 0.71; stroke: #C99800; fill: #C99800;"/><circle cx="258.01" cy="324.99" r="1.42" style="stroke-width: 0.71; stroke: #C99800; fill: #C99800;"/><circle cx="222.53" cy="436.05" r="1.42" style="stroke-width: 0.71; stroke: #C99800; fill: #C99800;"/><circle cx="234.36" cy="357.53" r="1.42" style="stroke-width: 0.71; stroke: #C99800; fill: #C99800;"/><circle cx="210.70" cy="444.83" r="1.42" style="stroke-width: 0.71; stroke: #C99800; fill: #C99800;"/><circle cx="281.66" cy="407.64" r="1.42" style="stroke-width: 0.71; stroke: #C99800; fill: #C99800;"/><circle cx="246.18" cy="268.16" r="1.42" style="stroke-width: 0.71; stroke: #C99800; fill: #C99800;"/><circle cx="234.36" cy="399.89" r="1.42" style="stroke-width: 0.71; stroke: #A3A500; fill: #A3A500;"/><circle cx="258.01" cy="402.48" r="1.42" style="stroke-width: 0.71; stroke: #A3A500; fill: #A3A500;"/><circle cx="269.84" cy="361.15" r="1.42" style="stroke-width: 0.71; stroke: #A3A500; fill: #A3A500;"/><circle cx="246.18" cy="203.59" r="1.42" style="stroke-width: 0.71; stroke: #A3A500; fill: #A3A500;"/><circle cx="269.84" cy="490.29" r="1.42" style="stroke-width: 0.71; stroke: #00BA38; fill: #00BA38;"/><circle cx="258.01" cy="372.26" r="1.42" style="stroke-width: 0.71; stroke: #00BA38; fill: #00BA38;"/><circle cx="163.40" cy="477.38" r="1.42" style="stroke-width: 0.71; stroke: #00BA38; fill: #00BA38;"/><circle cx="234.36" cy="247.50" r="1.42" style="stroke-width: 0.71; stroke: #00BA38; fill: #00BA38;"/><circle cx="139.74" cy="490.29" r="1.42" style="stroke-width: 0.71; stroke: #00BA38; fill: #00BA38;"/><circle cx="222.53" cy="392.14" r="1.42" style="stroke-width: 0.71; stroke: #00BA38; fill: #00BA38;"/><circle cx="210.70" cy="337.90" r="1.42" style="stroke-width: 0.71; stroke: #00BA38; fill: #00BA38;"/><circle cx="246.18" cy="185.51" r="1.42" style="stroke-width: 0.71; stroke: #00BA38; fill: #00BA38;"/><circle cx="198.88" cy="478.93" r="1.42" style="stroke-width: 0.71; stroke: #00BF7D; fill: #00BF7D;"/><circle cx="151.57" cy="490.29" r="1.42" style="stroke-width: 0.71; stroke: #00BF7D; fill: #00BF7D;"/><circle cx="269.84" cy="421.59" r="1.42" style="stroke-width: 0.71; stroke: #00BF7D; fill: #00BF7D;"/><circle cx="222.53" cy="343.07" r="1.42" style="stroke-width: 0.71; stroke: #00BF7D; fill: #00BF7D;"/><circle cx="246.18" cy="246.98" r="1.42" style="stroke-width: 0.71; stroke: #00BF7D; fill: #00BF7D;"/><circle cx="210.70" cy="372.77" r="1.42" style="stroke-width: 0.71; stroke: #00BF7D; fill: #00BF7D;"/><circle cx="234.36" cy="366.83" r="1.42" style="stroke-width: 0.71; stroke: #00BF7D; fill: #00BF7D;"/><circle cx="258.01" cy="212.11" r="1.42" style="stroke-width: 0.71; stroke: #00BF7D; fill: #00BF7D;"/><circle cx="198.88" cy="335.32" r="1.42" style="stroke-width: 0.71; stroke: #00C0AF; fill: #00C0AF;"/><circle cx="210.70" cy="399.89" r="1.42" style="stroke-width: 0.71; stroke: #00C0AF; fill: #00C0AF;"/><circle cx="175.22" cy="490.29" r="1.42" style="stroke-width: 0.71; stroke: #00C0AF; fill: #00C0AF;"/><circle cx="222.53" cy="263.00" r="1.42" style="stroke-width: 0.71; stroke: #00C0AF; fill: #00C0AF;"/><circle cx="116.09" cy="490.29" r="1.42" style="stroke-width: 0.71; stroke: #00BCD8; fill: #00BCD8;"/><circle cx="222.53" cy="328.09" r="1.42" style="stroke-width: 0.71; stroke: #00BCD8; fill: #00BCD8;"/><circle cx="281.66" cy="321.89" r="1.42" style="stroke-width: 0.71; stroke: #00BCD8; fill: #00BCD8;"/><circle cx="258.01" cy="131.27" r="1.42" style="stroke-width: 0.71; stroke: #00BCD8; fill: #00BCD8;"/><circle cx="234.36" cy="286.24" r="1.42" style="stroke-width: 0.71; stroke: #00BCD8; fill: #00BCD8;"/><circle cx="269.84" cy="405.06" r="1.42" style="stroke-width: 0.71; stroke: #00BCD8; fill: #00BCD8;"/><circle cx="246.18" cy="216.51" r="1.42" style="stroke-width: 0.71; stroke: #00BCD8; fill: #00BCD8;"/><circle cx="198.88" cy="483.84" r="1.42" style="stroke-width: 0.71; stroke: #00BCD8; fill: #00BCD8;"/><circle cx="210.70" cy="343.33" r="1.42" style="stroke-width: 0.71; stroke: #00BCD8; fill: #00BCD8;"/><circle cx="258.01" cy="314.66" r="1.42" style="stroke-width: 0.71; stroke: #00B0F6; fill: #00B0F6;"/><circle cx="281.66" cy="446.38" r="1.42" style="stroke-width: 0.71; stroke: #00B0F6; fill: #00B0F6;"/><circle cx="269.84" cy="358.57" r="1.42" style="stroke-width: 0.71; stroke: #00B0F6; fill: #00B0F6;"/><circle cx="258.01" cy="291.15" r="1.42" style="stroke-width: 0.71; stroke: #619CFF; fill: #619CFF;"/><circle cx="163.40" cy="490.29" r="1.42" style="stroke-width: 0.71; stroke: #619CFF; fill: #619CFF;"/><circle cx="234.36" cy="354.69" r="1.42" style="stroke-width: 0.71; stroke: #619CFF; fill: #619CFF;"/><circle cx="210.70" cy="383.88" r="1.42" style="stroke-width: 0.71; stroke: #619CFF; fill: #619CFF;"/><circle cx="246.18" cy="270.75" r="1.42" style="stroke-width: 0.71; stroke: #B983FF; fill: #B983FF;"/><circle cx="222.53" cy="361.15" r="1.42" style="stroke-width: 0.71; stroke: #B983FF; fill: #B983FF;"/><circle cx="198.88" cy="433.47" r="1.42" style="stroke-width: 0.71; stroke: #B983FF; fill: #B983FF;"/><circle cx="269.84" cy="399.89" r="1.42" style="stroke-width: 0.71; stroke: #B983FF; fill: #B983FF;"/><circle cx="116.09" cy="490.29" r="1.42" style="stroke-width: 0.71; stroke: #B983FF; fill: #B983FF;"/><circle cx="234.36" cy="324.99" r="1.42" style="stroke-width: 0.71; stroke: #E76BF3; fill: #E76BF3;"/><circle cx="246.18" cy="250.08" r="1.42" style="stroke-width: 0.71; stroke: #E76BF3; fill: #E76BF3;"/><circle cx="222.53" cy="379.23" r="1.42" style="stroke-width: 0.71; stroke: #E76BF3; fill: #E76BF3;"/><circle cx="246.18" cy="250.08" r="1.42" style="stroke-width: 0.71; stroke: #E76BF3; fill: #E76BF3;"/><circle cx="258.01" cy="288.83" r="1.42" style="stroke-width: 0.71; stroke: #E76BF3; fill: #E76BF3;"/><circle cx="210.70" cy="332.74" r="1.42" style="stroke-width: 0.71; stroke: #E76BF3; fill: #E76BF3;"/><circle cx="210.70" cy="467.31" r="1.42" style="stroke-width: 0.71; stroke: #FD61D1; fill: #FD61D1;"/><circle cx="258.01" cy="370.71" r="1.42" style="stroke-width: 0.71; stroke: #FD61D1; fill: #FD61D1;"/><circle cx="234.36" cy="423.40" r="1.42" style="stroke-width: 0.71; stroke: #FD61D1; fill: #FD61D1;"/><circle cx="187.05" cy="490.29" r="1.42" style="stroke-width: 0.71; stroke: #FD61D1; fill: #FD61D1;"/><circle cx="246.18" cy="239.75" r="1.42" style="stroke-width: 0.71; stroke: #6BB100; fill: #6BB100;"/><circle cx="222.53" cy="366.31" r="1.42" style="stroke-width: 0.71; stroke: #6BB100; fill: #6BB100;"/><circle cx="269.84" cy="420.56" r="1.42" style="stroke-width: 0.71; stroke: #6BB100; fill: #6BB100;"/><circle cx="258.01" cy="367.61" r="1.42" style="stroke-width: 0.71; stroke: #6BB100; fill: #6BB100;"/><circle cx="234.36" cy="324.99" r="1.42" style="stroke-width: 0.71; stroke: #6BB100; fill: #6BB100;"/><circle cx="246.18" cy="126.10" r="1.42" style="stroke-width: 0.71; stroke: #FF67A4; fill: #FF67A4;"/><circle cx="198.88" cy="309.49" r="1.42" style="stroke-width: 0.71; stroke: #FF67A4; fill: #FF67A4;"/><circle cx="210.70" cy="206.17" r="1.42" style="stroke-width: 0.71; stroke: #FF67A4; fill: #FF67A4;"/><circle cx="222.53" cy="257.83" r="1.42" style="stroke-width: 0.71; stroke: #FF67A4; fill: #FF67A4;"/><circle cx="258.01" cy="443.80" r="1.42" style="stroke-width: 0.71; stroke: #FF67A4; fill: #FF67A4;"/><polyline points="116.09,490.29 222.53,334.80 234.36,335.32 234.36,299.16 246.18,237.17 269.84,428.82 " style="stroke-width: 2.13; stroke: #F8766D; stroke-linecap: butt;"/><polyline points="258.01,254.73 269.84,412.55 " style="stroke-width: 2.13; stroke: #E58700; stroke-linecap: butt;"/><polyline points="210.70,444.83 222.53,436.05 234.36,357.53 246.18,268.16 258.01,324.99 269.84,420.56 281.66,407.64 " style="stroke-width: 2.13; stroke: #C99800; stroke-linecap: butt;"/><polyline points="234.36,399.89 246.18,203.59 258.01,402.48 269.84,361.15 " style="stroke-width: 2.13; stroke: #A3A500; stroke-linecap: butt;"/><polyline points="222.53,366.31 234.36,324.99 246.18,239.75 258.01,367.61 269.84,420.56 " style="stroke-width: 2.13; stroke: #6BB100; stroke-linecap: butt;"/><polyline points="139.74,490.29 163.40,477.38 210.70,337.90 222.53,392.14 234.36,247.50 246.18,185.51 258.01,372.26 269.84,490.29 " style="stroke-width: 2.13; stroke: #00BA38; stroke-linecap: butt;"/><polyline points="151.57,490.29 198.88,478.93 210.70,372.77 222.53,343.07 234.36,366.83 246.18,246.98 258.01,212.11 269.84,421.59 " style="stroke-width: 2.13; stroke: #00BF7D; stroke-linecap: butt;"/><polyline points="175.22,490.29 198.88,335.32 210.70,399.89 222.53,263.00 " style="stroke-width: 2.13; stroke: #00C0AF; stroke-linecap: butt;"/><polyline points="116.09,490.29 198.88,483.84 210.70,343.33 222.53,328.09 234.36,286.24 246.18,216.51 258.01,131.27 269.84,405.06 281.66,321.89 " style="stroke-width: 2.13; stroke: #00BCD8; stroke-linecap: butt;"/><polyline points="258.01,314.66 269.84,358.57 281.66,446.38 " style="stroke-width: 2.13; stroke: #00B0F6; stroke-linecap: butt;"/><polyline points="163.40,490.29 210.70,383.88 234.36,354.69 258.01,291.15 " style="stroke-width: 2.13; stroke: #619CFF; stroke-linecap: butt;"/><polyline points="116.09,490.29 198.88,433.47 222.53,361.15 246.18,270.75 269.84,399.89 " style="stroke-width: 2.13; stroke: #B983FF; stroke-linecap: butt;"/><polyline points="210.70,332.74 222.53,379.23 234.36,324.99 246.18,250.08 246.18,250.08 258.01,288.83 " style="stroke-width: 2.13; stroke: #E76BF3; stroke-linecap: butt;"/><polyline points="187.05,490.29 210.70,467.31 234.36,423.40 258.01,370.71 " style="stroke-width: 2.13; stroke: #FD61D1; stroke-linecap: butt;"/><polyline points="198.88,309.49 210.70,206.17 222.53,257.83 246.18,126.10 258.01,443.80 " style="stroke-width: 2.13; stroke: #FF67A4; stroke-linecap: butt;"/><polyline points="116.09,490.29 139.74,490.29 151.57,490.29 163.40,483.84 175.22,490.29 187.05,490.29 198.88,408.21 210.70,365.42 222.53,346.17 234.36,338.23 246.18,226.79 258.01,314.55 269.84,411.90 281.66,391.97 " style="stroke-width: 2.13; stroke-dasharray: 11.38,11.38; stroke-linecap: butt;"/><polyline points="116.09,477.38 127.92,477.38 139.74,477.38 151.57,477.38 163.40,477.38 175.22,477.38 187.05,464.47 198.88,438.64 210.70,412.81 222.53,386.98 234.36,361.15 246.18,322.40 258.01,296.58 269.84,257.83 281.66,232.00 293.49,232.00 305.32,257.83 317.14,283.66 328.97,309.49 340.80,335.32 352.62,348.23 364.45,348.23 376.28,348.23 388.10,335.32 399.93,335.32 411.76,335.32 423.58,335.32 435.41,335.32 447.24,335.32 459.06,335.32 470.89,348.23 482.72,361.15 494.54,374.06 506.37,386.98 518.20,399.89 530.02,412.81 541.85,412.81 553.68,412.81 565.50,425.72 577.33,438.64 589.16,451.55 600.98,477.38 612.81,474.80 624.64,479.96 " style="stroke-width: 2.13; stroke: #FF0000; stroke-dasharray: 2.85,8.54; stroke-linecap: butt;"/></g><g clip-path="url(#cpMC4wMHw3MjAuMDB8MC4wMHw1NDAuMDA=)"><text x="33.10" y="493.44" text-anchor="end" style="font-size: 8.80px;fill: #4D4D4D; font-family: &quot;Arial&quot;;" textLength="4.90px" lengthAdjust="spacingAndGlyphs">0</text><text x="33.10" y="364.30" text-anchor="end" style="font-size: 8.80px;fill: #4D4D4D; font-family: &quot;Arial&quot;;" textLength="9.79px" lengthAdjust="spacingAndGlyphs">50</text><text x="33.10" y="235.15" text-anchor="end" style="font-size: 8.80px;fill: #4D4D4D; font-family: &quot;Arial&quot;;" textLength="14.69px" lengthAdjust="spacingAndGlyphs">100</text><text x="68.78" y="519.74" text-anchor="middle" style="font-size: 8.80px;fill: #4D4D4D; font-family: &quot;Arial&quot;;" textLength="4.90px" lengthAdjust="spacingAndGlyphs">0</text><text x="187.05" y="519.74" text-anchor="middle" style="font-size: 8.80px;fill: #4D4D4D; font-family: &quot;Arial&quot;;" textLength="9.79px" lengthAdjust="spacingAndGlyphs">10</text><text x="305.32" y="519.74" text-anchor="middle" style="font-size: 8.80px;fill: #4D4D4D; font-family: &quot;Arial&quot;;" textLength="9.79px" lengthAdjust="spacingAndGlyphs">20</text><text x="423.58" y="519.74" text-anchor="middle" style="font-size: 8.80px;fill: #4D4D4D; font-family: &quot;Arial&quot;;" textLength="9.79px" lengthAdjust="spacingAndGlyphs">30</text><text x="541.85" y="519.74" text-anchor="middle" style="font-size: 8.80px;fill: #4D4D4D; font-family: &quot;Arial&quot;;" textLength="9.79px" lengthAdjust="spacingAndGlyphs">40</text><text x="660.12" y="519.74" text-anchor="middle" style="font-size: 8.80px;fill: #4D4D4D; font-family: &quot;Arial&quot;;" textLength="9.79px" lengthAdjust="spacingAndGlyphs">50</text><text x="376.28" y="532.20" text-anchor="middle" style="font-size: 11.00px; font-family: &quot;Arial&quot;;" textLength="75.84px" lengthAdjust="spacingAndGlyphs">Kalenderwoche</text><text transform="translate(13.36,308.20) rotate(-90)" text-anchor="middle" style="font-size: 11.00px; font-family: &quot;Arial&quot;;" textLength="148.40px" lengthAdjust="spacingAndGlyphs">Graswachstum (kg TS/ha/Tag)</text><text x="193.83" y="63.99" style="font-size: 11.00px; font-family: &quot;Arial&quot;;" textLength="15.29px" lengthAdjust="spacingAndGlyphs">Ort</text><line x1="216.32" y1="37.30" x2="230.15" y2="37.30" style="stroke-width: 2.13; stroke: #F8766D; stroke-linecap: butt;"/><line x1="216.32" y1="60.06" x2="230.15" y2="60.06" style="stroke-width: 2.13; stroke: #E58700; stroke-linecap: butt;"/><line x1="216.32" y1="82.82" x2="230.15" y2="82.82" style="stroke-width: 2.13; stroke: #C99800; stroke-linecap: butt;"/><line x1="282.71" y1="37.30" x2="296.53" y2="37.30" style="stroke-width: 2.13; stroke: #A3A500; stroke-linecap: butt;"/><line x1="282.71" y1="60.06" x2="296.53" y2="60.06" style="stroke-width: 2.13; stroke: #6BB100; stroke-linecap: butt;"/><line x1="282.71" y1="82.82" x2="296.53" y2="82.82" style="stroke-width: 2.13; stroke: #00BA38; stroke-linecap: butt;"/><line x1="347.64" y1="37.30" x2="361.46" y2="37.30" style="stroke-width: 2.13; stroke: #00BF7D; stroke-linecap: butt;"/><line x1="347.64" y1="60.06" x2="361.46" y2="60.06" style="stroke-width: 2.13; stroke: #00C0AF; stroke-linecap: butt;"/><line x1="347.64" y1="82.82" x2="361.46" y2="82.82" style="stroke-width: 2.13; stroke: #00BCD8; stroke-linecap: butt;"/><line x1="416.49" y1="37.30" x2="430.31" y2="37.30" style="stroke-width: 2.13; stroke: #00B0F6; stroke-linecap: butt;"/><line x1="416.49" y1="60.06" x2="430.31" y2="60.06" style="stroke-width: 2.13; stroke: #619CFF; stroke-linecap: butt;"/><line x1="416.49" y1="82.82" x2="430.31" y2="82.82" style="stroke-width: 2.13; stroke: #B983FF; stroke-linecap: butt;"/><line x1="496.59" y1="37.30" x2="510.42" y2="37.30" style="stroke-width: 2.13; stroke: #E76BF3; stroke-linecap: butt;"/><line x1="496.59" y1="60.06" x2="510.42" y2="60.06" style="stroke-width: 2.13; stroke: #FD61D1; stroke-linecap: butt;"/><line x1="496.59" y1="82.82" x2="510.42" y2="82.82" style="stroke-width: 2.13; stroke: #FF67A4; stroke-linecap: butt;"/><text x="237.36" y="40.45" style="font-size: 8.80px; font-family: &quot;Arial&quot;;" textLength="38.15px" lengthAdjust="spacingAndGlyphs">Abtwil AG</text><text x="237.36" y="63.21" style="font-size: 8.80px; font-family: &quot;Arial&quot;;" textLength="29.85px" lengthAdjust="spacingAndGlyphs">Benken</text><text x="237.36" y="85.97" style="font-size: 8.80px; font-family: &quot;Arial&quot;;" textLength="30.79px" lengthAdjust="spacingAndGlyphs">Bretzwil</text><text x="303.74" y="40.45" style="font-size: 8.80px; font-family: &quot;Arial&quot;;" textLength="36.69px" lengthAdjust="spacingAndGlyphs">Carrouge</text><text x="303.74" y="63.21" style="font-size: 8.80px; font-family: &quot;Arial&quot;;" textLength="26.41px" lengthAdjust="spacingAndGlyphs">Flaach</text><text x="303.74" y="85.97" style="font-size: 8.80px; font-family: &quot;Arial&quot;;" textLength="22.47px" lengthAdjust="spacingAndGlyphs">Flawil</text><text x="368.67" y="40.45" style="font-size: 8.80px; font-family: &quot;Arial&quot;;" textLength="40.61px" lengthAdjust="spacingAndGlyphs">Gampelen</text><text x="368.67" y="63.21" style="font-size: 8.80px; font-family: &quot;Arial&quot;;" textLength="39.65px" lengthAdjust="spacingAndGlyphs">Landquart</text><text x="368.67" y="85.97" style="font-size: 8.80px; font-family: &quot;Arial&quot;;" textLength="31.79px" lengthAdjust="spacingAndGlyphs">Muri AG</text><text x="437.52" y="40.45" style="font-size: 8.80px; font-family: &quot;Arial&quot;;" textLength="30.82px" lengthAdjust="spacingAndGlyphs">Olsberg</text><text x="437.52" y="63.21" style="font-size: 8.80px; font-family: &quot;Arial&quot;;" textLength="31.31px" lengthAdjust="spacingAndGlyphs">Posieux</text><text x="437.52" y="85.97" style="font-size: 8.80px; font-family: &quot;Arial&quot;;" textLength="51.87px" lengthAdjust="spacingAndGlyphs">Rudolfstetten</text><text x="517.63" y="40.45" style="font-size: 8.80px; font-family: &quot;Arial&quot;;" textLength="41.10px" lengthAdjust="spacingAndGlyphs">Salenstein</text><text x="517.63" y="63.21" style="font-size: 8.80px; font-family: &quot;Arial&quot;;" textLength="27.89px" lengthAdjust="spacingAndGlyphs">Sorens</text><text x="517.63" y="85.97" style="font-size: 8.80px; font-family: &quot;Arial&quot;;" textLength="34.26px" lengthAdjust="spacingAndGlyphs">Yvonand</text><text x="38.03" y="14.93" style="font-size: 13.20px; font-family: &quot;Arial&quot;;" textLength="167.16px" lengthAdjust="spacingAndGlyphs">Graswachstumskurven 2024</text></g></svg>