<!-- Generator: Adobe Illustrator 24.2.3, SVG Export Plug-In . SVG Version: 6.00 Build 0) --><!ENTITY ns_ai "http://ns.adobe.com/AdobeIllustrator/10.0/"><!ENTITY ns_graphs "http://ns.adobe.com/Graphs/1.0/"><!ENTITY ns_vars "http://ns.adobe.com/Variables/1.0/"><!ENTITY ns_imrep "http://ns.adobe.com/ImageReplacement/1.0/"><!ENTITY ns_sfw "http://ns.adobe.com/SaveForWeb/1.0/"><!ENTITY ns_custom "http://ns.adobe.com/GenericCustomNamespace/1.0/"><!ENTITY ns_adobe_xpath "http://ns.adobe.com/XPath/1.0/">]><svg xmlns:x="&ns_extend;" xmlns:i="&ns_ai;" xmlns:graph="&ns_graphs;" xmlns="http://www.w3.org/2000/svg" xmlns:xlink="http://www.w3.org/1999/xlink" version="1.1" id="Ebene_1" x="0px" y="0px" width="82px" height="80px" viewBox="0 0 82 80" style="enable-background:new 0 0 82 80;" xml:space="preserve"><style type="text/css">.st0{fill-rule:evenodd;clip-rule:evenodd;fill:#4D6260;}	.st1{fill:none;}	.st2{fill:#459084;}	.st3{fill:#4D6260;}	.st4{fill:#EE9BA1;}	.st5{fill:#FFFFFF;}</style><metadata></metadata><g><path class="st0" d="M0,0l3.235,2.468c7.752,5.453,14.488,12.848,17.792,21.856l1.899,4.23l-0.563,0.212l-3.094-5.781l-1.688-3.455 l-2.883-4.371l-3.024-3.243L7.806,8.037L0,1.34V0"/><polygon class="st1" points="61.603,27.169 61.608,27.169 64.981,20.869 66.331,18.768 64.981,20.728 "/><polygon class="st2" points="0,22.984 0,31.233 2.577,23.159 "/><polygon class="st2" points="0,31.233 0,47.308 3.798,31.233 "/><polygon class="st2" points="61.396,27.564 61.608,27.169 61.603,27.169 "/><polygon class="st3" points="82,0 80.664,0 75.882,16.709 75.775,16.594 75.741,16.709 74.756,15.722 78.413,1.34 76.655,3.243 75.237,5.278 68.427,15.722 66.331,18.768 64.981,20.869 61.608,27.169 61.396,27.564 61.395,27.567 64.214,27.731 64.278,27.567 68.286,20.305 66.072,27.839 82,28.766 82,28.554 82,16.85 80.312,18.401 79.328,17.062 82,11.704 "/><polygon class="st1" points="50.494,49.846 52.393,45.404 50.635,45.193 "/><polygon class="st1" points="67.302,43.712 68.427,42.937 77.851,33.137 76.515,30.881 75.53,29.894 74.545,29.682 73.842,30.246 73.209,31.233 72.858,33.56 72.295,37.931 71.31,38.142 66.317,34.124 65.192,35.252 64.418,37.155 64.067,38.918 64.418,40.61 65.192,42.373 66.317,43.501 "/><polygon class="st1" points="30.592,48.648 29.045,52.666 27.919,55.557 26.372,59.223 25.599,61.902 26.021,62.255 26.724,62.255 29.467,56.121 31.365,51.538 32.842,47.52 34.038,44.488 33.264,44.065 "/><polygon class="st1" points="68.849,47.731 67.513,51.538 66.739,53.865 65.966,55.768 66.95,55.98 68.638,51.75 69.974,47.308 71.31,42.161 70.396,41.95 "/><polygon class="st1" points="79.328,38.354 78.976,37.719 77.64,37.719 75.882,38.354 74.194,38.918 73.42,39.271 73.209,39.835 74.194,41.95 75.53,43.148 76.866,44.276 77.851,45.052 78.624,45.052 79.187,43.853 79.75,42.161 79.96,40.469 79.75,39.271 "/><polygon class="st3" points="55.413,26.748 56.612,22.773 57.738,22.984 56.711,26.877 59.847,27.049 59.636,27.426 63.504,20.517 65.403,16.85 68.075,13.043 71.31,8.037 74.756,3.455 77.429,0 56.964,0 48.843,26.302 "/><path class="st2" d="M66.072,27.839l-0.107,0.362l-0.774,3.032l-3.024,8.601l-6.54,19.177l-0.774-0.564l0.211-2.891l3.446-12.056 l1.547-4.794l2.11-5.711l2.046-5.265l-2.819-0.164l0,0l-3.868,6.768l-4.571,9.165h-1.547l2.321-4.583l3.446-6.909l2.461-4.583 l0.211-0.377l-3.131-0.187l-0.526,3.032h-0.914l0.136-3.146l-6.569-0.446l0,0l-0.108,0.349l-1.688,4.583H45.29l1.336-4.794 l0.076-0.282l-2.066-0.14l-0.12,0.423l-1.336,4.794l-2.11,9.8l-2.25,7.826l-0.985-0.212l1.195-7.05l1.477-8.46l1.547-6.486 l0.193-0.796l-2.914-0.198l-0.162,0.571l-1.336,5.006h-1.899l0.985-4.794l0.22-0.932l-3.612-0.245l-1.39,5.971l-1.336,6.345 l-2.321,8.601l-2.461,8.601l-0.985-0.141l0.774-7.896l0.774-5.147l3.024-10.364h-1.336l-2.11,7.262L23.7,49.071l-3.094,0.917 l3.657-18.754h-8.228l2.078-7.019l-1.476-0.1l-2.15,7.119h-1.688l-1.899,6.134l-2.11,4.794L7.595,46.18l-0.703,0.776l0.563-7.121 l1.336-8.601H6.118L4.36,46.955l-0.914,6.486l-0.774,5.57l-0.774,6.134l-0.422,3.243H0V79.74h82V28.766L66.072,27.839z M32.842,47.52l-1.477,4.019l-1.899,4.583l-2.743,6.134h-0.703l-0.422-0.353l0.774-2.679l1.547-3.666l1.125-2.891l1.547-4.019 l2.672-4.583l0.774,0.423L32.842,47.52z M50.494,49.846l0.141-4.653l1.758,0.212L50.494,49.846z M64.418,40.61l-0.352-1.692 l0.352-1.763l0.774-1.904l1.125-1.128l4.993,4.019l0.985-0.212l0.563-4.371l0.352-2.327l0.633-0.987l0.703-0.564l0.985,0.212 l0.985,0.987l1.336,2.256l-9.424,9.8l-1.125,0.776l-0.985-0.212l-1.125-1.128L64.418,40.61z M69.974,47.308l-1.336,4.442 l-1.688,4.23l-0.985-0.212l0.774-1.904l0.774-2.327l1.336-3.807l1.547-5.781l0.914,0.212L69.974,47.308z M79.75,42.161 l-0.563,1.692l-0.563,1.199h-0.774l-0.985-0.776l-1.336-1.128l-1.336-1.199l-0.985-2.115l0.211-0.564l0.774-0.353l1.688-0.564 l1.758-0.635h1.336l0.352,0.635l0.422,0.917l0.211,1.199L79.75,42.161z"/><polyline class="st0" points="0,68.389 82,65.357 82,79.74 0,79.74 0,68.389 "/><polyline class="st0" points="51.268,0 48.525,10.928 48.525,12.268 47.822,14.383 44.516,26.439 46.557,26.696 53.729,0 51.268,0 "/><polyline class="st0" points="10.338,0 15.12,0 7.595,14.594 6.47,13.396 10.338,0 "/><polyline class="st0" points="32.702,0 30.943,5.781 29.607,9.8 29.818,9.8 32.491,5.006 34.6,0 32.702,0 "/><polyline class="st0" points="39.593,0 30.803,25.099 31.928,25.311 34.952,18.19 33.529,25.262 37.141,25.507 39.945,13.607 41.492,10.364 42.828,7.121 43.813,4.583 44.376,3.455 45.149,3.807 44.938,5.922 43.954,9.8 42.828,13.607 41.07,19.177 39.222,26.041 42.168,26.176 46.274,8.813 48.525,0 44.727,0 42.266,5.006 38.046,12.268 37.062,11.915 41.07,0 39.593,0 "/><polyline class="st0" points="5.134,12.479 3.024,15.511 1.477,18.402 0,22.984 2.577,23.159 3.798,20.305 4.571,17.062 5.134,12.479 "/><polyline class="st0" points="24.051,0 21.238,7.685 19.691,12.479 18.144,18.049 16.637,24.114 18.113,24.215 19.129,19.953 20.816,14.594 23.489,7.685 26.724,0 24.051,0 "/><polyline class="st0" points="18.707,0 20.465,0 20.465,4.019 19.48,7.826 18.496,12.056 17.16,16.709 16.034,20.305 14.909,24.535 14.346,24.324 15.472,15.158 16.808,7.121 17.792,3.102 18.707,0 "/><polygon class="st1" points="75.237,5.278 76.655,3.243 78.413,1.34 76.655,3.102 "/><polygon class="st1" points="78.413,1.34 74.756,15.722 75.741,16.709 75.775,16.594 74.967,15.722 "/><ellipse class="st4" cx="59.234" cy="16.499" rx="4.469" ry="4.48"/><path class="st4" d="M9.2,20.024c-1.436,0-2.699,0.691-3.516,1.745v5.469c0.818,1.055,2.081,1.745,3.516,1.745 c2.468,0,4.469-2.006,4.469-4.48S11.668,20.024,9.2,20.024z"/><path class="st4" d="M64.655,1.178c0,2.474,2.001,4.48,4.469,4.48c0.615,0,1.201-0.125,1.734-0.35l1.696-5.305H64.83 C64.727,0.38,64.655,0.768,64.655,1.178z"/><g><path class="st5" d="M6.607,79.749l6.222-14.269h1.814l2.995,14.269h-1.793l-0.886-4.262h-4.64l-1.729,4.262H6.607z M13.398,68.092l-2.32,5.662H14.6L13.398,68.092z"/><path class="st5" d="M33.373,80c-3.627,0-6.179-2.57-6.179-6.33c0-2.277,0.864-4.283,2.509-5.85 c1.772-1.692,4.323-2.57,7.508-2.57c0.907,0,1.877,0.105,2.889,0.272l-0.274,1.755c-1.117-0.167-2.067-0.23-2.889-0.23 c-4.619,0-7.635,2.716-7.635,6.602c0,2.778,1.666,4.512,4.366,4.512c1.013,0,1.941-0.251,2.953-0.773l0.38-2.423h-2.172 l0.169-1.588h4.112l-0.759,5.014C36.726,79.478,35.081,80,33.373,80z"/><path class="st5" d="M50.671,65.48h7.677l-0.253,1.692h-5.757l-0.654,4.346h5.083l-0.253,1.755h-5.083l-0.949,6.477H48.52 L50.671,65.48z"/><path class="st5" d="M68.748,65.48h7.677l-0.253,1.692h-5.757l-0.654,4.346h5.083l-0.253,1.755h-5.083l-0.949,6.477h-1.961 L68.748,65.48z"/></g></g></svg>