<svg xmlns="http://www.w3.org/2000/svg" xmlns:xlink="http://www.w3.org/1999/xlink" id="svg2" viewBox="0 0 148.56 145.75"><defs><style>.cls-1{fill:none;}.cls-2{clip-path:url(#clip-path);}.cls-3{isolation:isolate;}.cls-4{fill:#45aa29;}.cls-5{clip-path:url(#clip-path-2);}.cls-6{fill:#afd496;}.cls-7{fill:#8bbd0d;}</style><clipPath id="clip-path"><rect class="cls-1" x="-800.24" y="-602.63" width="1190.55" height="1776.37"/></clipPath><clipPath id="clip-path-2"><rect class="cls-1" x="-1.76" y="2.94" width="151.09" height="131.64"/></clipPath></defs><g class="cls-2"><g id="g10"><g id="text42" class="cls-3"><g class="cls-3"><path class="cls-4" d="M9.63,110v-2.09H15v4.94a6.57,6.57,0,0,1-2.28,1.34,8.23,8.23,0,0,1-3,.58A6.73,6.73,0,0,1,6.33,114a5.23,5.23,0,0,1-2.18-2.33,7.63,7.63,0,0,1-.72-3.31,7.13,7.13,0,0,1,.81-3.44,5.37,5.37,0,0,1,2.38-2.31,6.41,6.41,0,0,1,3-.62,5.91,5.91,0,0,1,3.61,1,4.42,4.42,0,0,1,1.67,2.68l-2.49.46a2.59,2.59,0,0,0-1-1.44,3,3,0,0,0-1.81-.53,3.39,3.39,0,0,0-2.61,1,4.39,4.39,0,0,0-1,3.09,4.91,4.91,0,0,0,1,3.32,3.28,3.28,0,0,0,2.57,1.1,4.23,4.23,0,0,0,1.58-.31,5,5,0,0,0,1.36-.75V110Z"/></g></g><g id="text46" class="cls-3"><g class="cls-3"><path class="cls-4" d="M15.65,114.57V102.16h5.28a8.81,8.81,0,0,1,2.89.34,2.81,2.81,0,0,1,1.44,1.18,3.63,3.63,0,0,1,.54,2A3.32,3.32,0,0,1,25,108a4,4,0,0,1-2.45,1.14,6.41,6.41,0,0,1,1.34,1,13.74,13.74,0,0,1,1.42,2l1.52,2.42h-3L22,111.87A17.33,17.33,0,0,0,20.68,110a1.93,1.93,0,0,0-.75-.51,4,4,0,0,0-1.26-.14h-.51v5.18Zm2.51-7.16H20a9.72,9.72,0,0,0,2.25-.15,1.41,1.41,0,0,0,.71-.53,1.61,1.61,0,0,0,.25-.93,1.5,1.5,0,0,0-.33-1,1.56,1.56,0,0,0-.95-.49c-.2,0-.81,0-1.83,0H18.16Z"/></g></g><g id="text50" class="cls-3"><g class="cls-3"><path class="cls-4" d="M38.62,114.57H35.9l-1.09-2.82h-5l-1,2.82H26.17L31,102.16h2.65ZM34,109.66l-1.71-4.6-1.68,4.6Z"/></g><g class="cls-3"><path class="cls-4" d="M38.24,110.53l2.43-.24a3,3,0,0,0,.9,1.81,2.71,2.71,0,0,0,1.81.57,2.81,2.81,0,0,0,1.83-.51,1.51,1.51,0,0,0,.61-1.2,1.16,1.16,0,0,0-.26-.75,2.07,2.07,0,0,0-.9-.53c-.29-.1-1-.29-2-.54a6.94,6.94,0,0,1-2.82-1.23,3.24,3.24,0,0,1-1.14-2.5,3.16,3.16,0,0,1,.53-1.77,3.42,3.42,0,0,1,1.55-1.26,6.19,6.19,0,0,1,2.44-.43,5.26,5.26,0,0,1,3.52,1A3.63,3.63,0,0,1,48,105.71l-2.51.11a2.07,2.07,0,0,0-.69-1.38,2.5,2.5,0,0,0-1.58-.42,2.85,2.85,0,0,0-1.71.45.89.89,0,0,0-.4.77,1,1,0,0,0,.37.76,6.68,6.68,0,0,0,2.3.82,12.05,12.05,0,0,1,2.71.9A3.4,3.4,0,0,1,47.83,109a3.67,3.67,0,0,1,.5,2,3.69,3.69,0,0,1-2.27,3.39,7.12,7.12,0,0,1-2.7.45,5.36,5.36,0,0,1-3.62-1.09A4.7,4.7,0,0,1,38.24,110.53Z"/></g></g><g id="text54" class="cls-3"><g class="cls-3"><path class="cls-4" d="M51.86,114.57l-3.29-12.41h1.68l1.89,8.13c.2.86.38,1.7.53,2.54.31-1.32.5-2.09.55-2.29l2.37-8.38h2l1.77,6.28a33.16,33.16,0,0,1,1,4.39c.16-.78.36-1.68.62-2.7l1.94-8h1.65l-3.4,12.41H59.54l-2.62-9.46c-.22-.78-.35-1.27-.39-1.45-.13.57-.25,1-.36,1.45l-2.63,9.46Z"/></g><g class="cls-3"><path class="cls-4" d="M62.89,114.57l4.77-12.41h1.77l5.07,12.41H72.63l-1.44-3.76H66l-1.36,3.76Zm3.58-5.1h4.21L69.38,106c-.39-1.05-.69-1.9-.88-2.58a15.51,15.51,0,0,1-.67,2.37Z"/></g><g class="cls-3"><path class="cls-4" d="M83.16,110.22l1.64.41A5.53,5.53,0,0,1,83,113.72a5.12,5.12,0,0,1-3.28,1.06A5.87,5.87,0,0,1,76.4,114a5.07,5.07,0,0,1-1.91-2.36,8.39,8.39,0,0,1-.66-3.33,7.35,7.35,0,0,1,.74-3.38,5.13,5.13,0,0,1,2.11-2.19,6.17,6.17,0,0,1,3-.75,5.09,5.09,0,0,1,3.13,1,4.89,4.89,0,0,1,1.77,2.66l-1.62.38a3.76,3.76,0,0,0-1.25-2,3.34,3.34,0,0,0-2.06-.62,4,4,0,0,0-2.39.69,3.58,3.58,0,0,0-1.35,1.84,7.38,7.38,0,0,0-.39,2.38A7.55,7.55,0,0,0,76,111a3.41,3.41,0,0,0,1.43,1.76,4,4,0,0,0,2.11.59,3.55,3.55,0,0,0,2.34-.8A4.08,4.08,0,0,0,83.16,110.22Z"/></g><g class="cls-3"><path class="cls-4" d="M85.45,114.57V102.16h1.64v5.1h6.45v-5.1h1.64v12.41H93.54v-5.85H87.09v5.85Z"/></g><g class="cls-3"><path class="cls-4" d="M96.63,110.58l1.55-.13a3.29,3.29,0,0,0,.51,1.52,2.8,2.8,0,0,0,1.25,1,4.8,4.8,0,0,0,1.9.37,4.69,4.69,0,0,0,1.66-.28,2.27,2.27,0,0,0,1.07-.77,1.73,1.73,0,0,0,.35-1.06,1.59,1.59,0,0,0-.34-1,2.47,2.47,0,0,0-1.11-.73c-.34-.13-1.07-.33-2.21-.61a11.4,11.4,0,0,1-2.4-.77,3.36,3.36,0,0,1-1.32-1.16,2.82,2.82,0,0,1-.44-1.54,3.14,3.14,0,0,1,.54-1.76,3.34,3.34,0,0,1,1.55-1.24,6,6,0,0,1,2.28-.42,6.31,6.31,0,0,1,2.43.44,3.49,3.49,0,0,1,1.62,1.31,3.69,3.69,0,0,1,.61,2l-1.57.11a2.54,2.54,0,0,0-.86-1.77,3.35,3.35,0,0,0-2.16-.6,3.47,3.47,0,0,0-2.17.54,1.64,1.64,0,0,0-.68,1.32,1.43,1.43,0,0,0,.48,1.1,6.43,6.43,0,0,0,2.47.88,17.9,17.9,0,0,1,2.75.79,3.82,3.82,0,0,1,1.6,1.27,3.11,3.11,0,0,1,.52,1.76,3.37,3.37,0,0,1-.57,1.87,3.66,3.66,0,0,1-1.63,1.36,5.61,5.61,0,0,1-2.39.49,7.09,7.09,0,0,1-2.82-.49,4,4,0,0,1-1.79-1.48A4.16,4.16,0,0,1,96.63,110.58Z"/></g><g class="cls-3"><path class="cls-4" d="M111.44,114.57V103.63h-4.09v-1.47h9.83v1.47h-4.1v10.94Z"/></g><g class="cls-3"><path class="cls-4" d="M125.44,102.16h1.64v7.17a8.26,8.26,0,0,1-.43,3,3.64,3.64,0,0,1-1.52,1.79,5.44,5.44,0,0,1-2.9.69,6,6,0,0,1-2.85-.6,3.45,3.45,0,0,1-1.59-1.74,8.44,8.44,0,0,1-.47-3.11v-7.17H119v7.16a7,7,0,0,0,.3,2.38,2.29,2.29,0,0,0,1,1.18,3.56,3.56,0,0,0,1.79.42,3.44,3.44,0,0,0,2.59-.82,4.76,4.76,0,0,0,.77-3.16Z"/></g><g class="cls-3"><path class="cls-4" d="M128.68,114.57V102.16h2.48l2.93,8.79c.27.82.47,1.43.59,1.83.15-.45.36-1.11.66-2l3-8.63h2.2v12.41h-1.58V104.18l-3.6,10.39h-1.48L130.27,104v10.56Z"/></g></g><g id="g56"><g class="cls-5"><g id="g58"><g id="g64"><path id="path66" class="cls-4" d="M96.56,96.37C91.47,85.44,94.62,61,108.92,58.44c-7.92,6.36-7.13,27.64,12.74,37.93Z"/></g><g id="g68"><path id="path70" class="cls-6" d="M42.66,96.37c-5.09-10.93,13-52,3.85-76.14,18.4,14.68,9.1,62.51,21.24,76.14Z"/></g><g id="g72"><path id="path74" class="cls-7" d="M75.48,96.37c4.36-25.5,18.41-65.14,16.72-84.21C105.77,37,85.66,71.73,106.5,96.37Z"/></g><g id="g76"><path id="path78" class="cls-7" d="M35.17,96.37c9.69-18.86,7.49-34.18-3-55.29,11.46,8.58,28.12,31.63,26.93,55.29Z"/></g><g id="g80"><path id="path82" class="cls-6" d="M65.06,96.37c-1.7-30,11.39-57.21,20.35-68.36-4.92,14.43-3.87,46.93,10.67,68.36Z"/></g><g id="g84"><path id="path86" class="cls-4" d="M56.64,96.37c-1.7-30,15.93-56.79-1-93.43,26.9,18,13.09,72,27.63,93.43Z"/></g></g></g></g><g id="text90" class="cls-3"><g class="cls-3"><path class="cls-7" d="M17.39,129v-9.54h1.9l2.26,6.75c.21.63.36,1.1.46,1.42.11-.35.27-.86.5-1.53l2.29-6.64h1.7V129H25.28v-8l-2.77,8H21.37l-2.76-8.12V129Z"/></g><g class="cls-3"><path class="cls-7" d="M31.37,126.73l1.21.15a2.93,2.93,0,0,1-1.06,1.65,3.17,3.17,0,0,1-2,.59,3.13,3.13,0,0,1-2.4-.94,3.65,3.65,0,0,1-.89-2.62,3.84,3.84,0,0,1,.9-2.71,3,3,0,0,1,2.33-1,2.94,2.94,0,0,1,2.26.94,3.75,3.75,0,0,1,.88,2.66v.31H27.46a2.65,2.65,0,0,0,.65,1.75,1.9,1.9,0,0,0,1.44.6,1.76,1.76,0,0,0,1.1-.34A2.16,2.16,0,0,0,31.37,126.73Zm-3.84-1.89h3.86a2.36,2.36,0,0,0-.45-1.31,1.79,1.79,0,0,0-1.45-.68,1.87,1.87,0,0,0-1.36.54A2.14,2.14,0,0,0,27.53,124.84Z"/></g><g class="cls-3"><path class="cls-7" d="M32.35,126.9l1.15-.19a1.63,1.63,0,0,0,.55,1.07,1.85,1.85,0,0,0,1.24.37,1.83,1.83,0,0,0,1.2-.33,1,1,0,0,0,.39-.77.7.7,0,0,0-.34-.62,4.73,4.73,0,0,0-1.2-.4,11.12,11.12,0,0,1-1.79-.56,1.73,1.73,0,0,1-.75-.66,1.81,1.81,0,0,1,0-1.78,1.84,1.84,0,0,1,.58-.66,2.44,2.44,0,0,1,.74-.34,3.75,3.75,0,0,1,1-.14,4.2,4.2,0,0,1,1.43.23,1.9,1.9,0,0,1,.9.64,2.5,2.5,0,0,1,.41,1.07l-1.15.16a1.25,1.25,0,0,0-.45-.84,1.65,1.65,0,0,0-1.06-.3,1.89,1.89,0,0,0-1.15.27.79.79,0,0,0-.35.63.65.65,0,0,0,.15.41,1,1,0,0,0,.45.31l1,.3a14.77,14.77,0,0,1,1.74.54,1.82,1.82,0,0,1,.77.62,1.76,1.76,0,0,1,.28,1,2,2,0,0,1-.34,1.1,2.2,2.2,0,0,1-1,.8,3.59,3.59,0,0,1-1.46.29,3.25,3.25,0,0,1-2-.56A2.63,2.63,0,0,1,32.35,126.9Z"/></g><g class="cls-3"><path class="cls-7" d="M37.84,126.9l1.16-.19a1.58,1.58,0,0,0,.54,1.07,1.88,1.88,0,0,0,1.25.37,1.83,1.83,0,0,0,1.2-.33,1,1,0,0,0,.39-.77.71.71,0,0,0-.35-.62,4.73,4.73,0,0,0-1.2-.4,10.92,10.92,0,0,1-1.78-.56,1.71,1.71,0,0,1-.76-.66,1.76,1.76,0,0,1-.26-.93,1.66,1.66,0,0,1,.22-.85,1.91,1.91,0,0,1,.57-.66,2.39,2.39,0,0,1,.75-.34,3.62,3.62,0,0,1,1-.14,4.16,4.16,0,0,1,1.43.23,2,2,0,0,1,.91.64,2.5,2.5,0,0,1,.4,1.07l-1.15.16a1.25,1.25,0,0,0-.45-.84,1.65,1.65,0,0,0-1.06-.3,1.91,1.91,0,0,0-1.15.27.78.78,0,0,0-.34.63.64.64,0,0,0,.14.41,1.12,1.12,0,0,0,.45.31l1,.3a14.77,14.77,0,0,1,1.74.54,1.76,1.76,0,0,1,.77.62,1.69,1.69,0,0,1,.28,1,1.93,1.93,0,0,1-.34,1.1,2.2,2.2,0,0,1-1,.8,3.56,3.56,0,0,1-1.46.29,3.27,3.27,0,0,1-2-.56A2.63,2.63,0,0,1,37.84,126.9Z"/></g><g class="cls-3"><path class="cls-7" d="M43.8,129v-6.91h1.06v1a2.47,2.47,0,0,1,2.2-1.14,2.91,2.91,0,0,1,1.15.22,1.94,1.94,0,0,1,.78.59,2.42,2.42,0,0,1,.36.87,6,6,0,0,1,.07,1.14V129H48.25v-4.2a3.24,3.24,0,0,0-.14-1.08,1.13,1.13,0,0,0-.48-.56,1.59,1.59,0,0,0-.82-.21,1.87,1.87,0,0,0-1.29.47,2.32,2.32,0,0,0-.55,1.8V129Z"/></g><g class="cls-3"><path class="cls-7" d="M54.93,126.73l1.21.15a2.93,2.93,0,0,1-1.06,1.65,3.17,3.17,0,0,1-2,.59,3.13,3.13,0,0,1-2.4-.94,3.65,3.65,0,0,1-.89-2.62,3.84,3.84,0,0,1,.9-2.71,3,3,0,0,1,2.33-1,2.94,2.94,0,0,1,2.26.94,3.75,3.75,0,0,1,.88,2.66v.31H51a2.65,2.65,0,0,0,.65,1.75,1.9,1.9,0,0,0,1.44.6,1.76,1.76,0,0,0,1.1-.34A2.16,2.16,0,0,0,54.93,126.73Zm-3.84-1.89H55a2.36,2.36,0,0,0-.45-1.31,1.79,1.79,0,0,0-1.45-.68,1.87,1.87,0,0,0-1.36.54A2.14,2.14,0,0,0,51.09,124.84Z"/></g><g class="cls-3"><path class="cls-7" d="M58.93,127.91l.17,1a4.23,4.23,0,0,1-.88.1,2,2,0,0,1-1-.2,1.11,1.11,0,0,1-.5-.53,4.41,4.41,0,0,1-.14-1.39v-4h-.86v-.91h.86v-1.72l1.16-.7v2.42h1.18V123H57.75v4a1.77,1.77,0,0,0,.07.65.43.43,0,0,0,.2.22.72.72,0,0,0,.4.09A3.92,3.92,0,0,0,58.93,127.91Z"/></g><g class="cls-3"><path class="cls-7" d="M60,129v-1l4.4-5c-.5,0-.94,0-1.32,0H60.22v-1h5.65v.77l-3.75,4.39-.72.8c.53,0,1-.06,1.48-.06h3.2v1Z"/></g><g class="cls-3"><path class="cls-7" d="M73,129v-.87a2.16,2.16,0,0,1-1.93,1,2.74,2.74,0,0,1-1.52-.46,3,3,0,0,1-1.08-1.27,4.48,4.48,0,0,1-.38-1.88,4.92,4.92,0,0,1,.35-1.88,2.72,2.72,0,0,1,1-1.29,2.77,2.77,0,0,1,1.54-.45,2.27,2.27,0,0,1,1.91,1v-3.42h1.17V129Zm-3.7-3.45a3,3,0,0,0,.56,2,1.69,1.69,0,0,0,1.32.65,1.65,1.65,0,0,0,1.3-.63,2.85,2.85,0,0,0,.54-1.91,3.25,3.25,0,0,0-.55-2.09,1.68,1.68,0,0,0-1.35-.66,1.6,1.6,0,0,0-1.3.64A3.12,3.12,0,0,0,69.28,125.51Z"/></g><g class="cls-3"><path class="cls-7" d="M79.59,126.73l1.21.15a3,3,0,0,1-1.06,1.65,3.21,3.21,0,0,1-2,.59,3.15,3.15,0,0,1-2.41-.94,3.65,3.65,0,0,1-.89-2.62,3.84,3.84,0,0,1,.9-2.71,3.05,3.05,0,0,1,2.33-1,3,3,0,0,1,2.27.94,3.79,3.79,0,0,1,.88,2.66c0,.07,0,.17,0,.31H75.67a2.7,2.7,0,0,0,.65,1.75,1.93,1.93,0,0,0,1.44.6,1.76,1.76,0,0,0,1.1-.34A2.17,2.17,0,0,0,79.59,126.73Zm-3.85-1.89H79.6a2.36,2.36,0,0,0-.44-1.31,1.81,1.81,0,0,0-1.45-.68,1.85,1.85,0,0,0-1.36.54A2.15,2.15,0,0,0,75.74,124.84Z"/></g><g class="cls-3"><path class="cls-7" d="M80.75,129v-6.91h1v1a2.84,2.84,0,0,1,.75-1,1.35,1.35,0,0,1,.75-.23,2.26,2.26,0,0,1,1.2.38l-.4,1.08a1.67,1.67,0,0,0-.86-.25,1.12,1.12,0,0,0-.69.23,1.26,1.26,0,0,0-.43.64,4.32,4.32,0,0,0-.2,1.37V129Z"/></g></g><g id="g92"><g class="cls-5"><g id="g94"><g id="g100"><path id="path102" class="cls-4" d="M107.1,128.14a6.06,6.06,0,0,1-1.53.76,5.39,5.39,0,0,1-1.59.25,3.77,3.77,0,0,1-2.81-1.11,3.88,3.88,0,0,1-1.08-2.85,5.09,5.09,0,0,1,.4-2,5,5,0,0,1,1.18-1.66,5.42,5.42,0,0,1,2-1.2,8.31,8.31,0,0,1,2.69-.41c.27,0,.55,0,.84,0s.63.07,1,.13l-.16,1.1c-.33,0-.64-.09-.94-.11l-.88,0a5.14,5.14,0,0,0-3.48,1.14,3.74,3.74,0,0,0-1.32,3,2.84,2.84,0,0,0,.73,2.06,2.69,2.69,0,0,0,2,.76,3.52,3.52,0,0,0,.92-.12,4.61,4.61,0,0,0,.94-.36l.24-1.52h-1.37l.11-1h2.58"/></g><g id="g104"><path id="path106" class="cls-4" d="M125.16,129l1.35-8.91h4.83l-.17,1h-3.61l-.42,2.72h3.2l-.16,1.1H127l-.6,4Z"/></g><g id="g108"><path id="path110" class="cls-4" d="M92.21,125.21l-.75-3.54L90,125.21ZM88.43,129H87.18L91.09,120h1.14L94.12,129H93l-.56-2.66H89.52"/></g><g id="g112"><path id="path114" class="cls-4" d="M114.18,129l1.35-8.91h4.83l-.16,1.06h-3.62l-.41,2.71h3.19l-.16,1.1H116l-.59,4Z"/></g></g></g></g></g></g></svg>