<svg xmlns="http://www.w3.org/2000/svg" xmlns:bx="https://boxy-svg.com" viewBox="32.239 49.118 296.322 281.83" width="296.322px" height="281.83px"><defs/><title>Blattstadium und Ertrag</title><g transform="matrix(0.707419, 0, 0, 0.735663, 60.594978, 69.897499)" style=""><path d="M 65.34 -4.51 L 65.34 -7.85 L 68.28 -7.85 Q 68.7 -7.85 69.09 -7.78 Q 69.48 -7.71 69.78 -7.53 Q 70.08 -7.35 70.26 -7.03 Q 70.44 -6.71 70.44 -6.21 Q 70.44 -5.31 69.9 -4.91 Q 69.36 -4.51 68.52 -4.51 Z M 62.2 -10.29 L 62.2 3.99 L 69.12 3.99 Q 70.08 3.99 70.99 3.75 Q 71.9 3.51 72.61 3.01 Q 73.32 2.51 73.74 1.72 Q 74.16 0.93 74.16 -0.15 Q 74.16 -1.49 73.51 -2.44 Q 72.86 -3.39 71.54 -3.77 Q 72.5 -4.23 72.99 -4.95 Q 73.48 -5.67 73.48 -6.75 Q 73.48 -7.75 73.15 -8.43 Q 72.82 -9.11 72.22 -9.52 Q 71.62 -9.93 70.78 -10.11 Q 69.94 -10.29 68.92 -10.29 Z M 65.34 1.55 L 65.34 -2.37 L 68.76 -2.37 Q 69.78 -2.37 70.4 -1.9 Q 71.02 -1.43 71.02 -0.33 Q 71.02 0.23 70.83 0.59 Q 70.64 0.95 70.32 1.16 Q 70 1.37 69.58 1.46 Q 69.16 1.55 68.7 1.55 Z M 75.12 -10.29 L 75.12 3.99 L 77.96 3.99 L 77.96 -10.29 Z M 80.12 -3.17 Q 80.18 -4.17 80.62 -4.83 Q 81.06 -5.49 81.74 -5.89 Q 82.42 -6.29 83.27 -6.46 Q 84.12 -6.63 84.98 -6.63 Q 85.76 -6.63 86.56 -6.52 Q 87.36 -6.41 88.02 -6.09 Q 88.68 -5.77 89.1 -5.2 Q 89.52 -4.63 89.52 -3.69 L 89.52 1.69 Q 89.52 2.39 89.6 3.03 Q 89.68 3.67 89.88 3.99 L 87 3.99 Q 86.92 3.75 86.87 3.5 Q 86.82 3.25 86.8 2.99 Q 86.12 3.69 85.2 3.97 Q 84.28 4.25 83.32 4.25 Q 82.58 4.25 81.94 4.07 Q 81.3 3.89 80.82 3.51 Q 80.34 3.13 80.07 2.55 Q 79.8 1.97 79.8 1.17 Q 79.8 0.29 80.11 -0.28 Q 80.42 -0.85 80.91 -1.19 Q 81.4 -1.53 82.03 -1.7 Q 82.66 -1.87 83.3 -1.97 Q 83.94 -2.07 84.56 -2.13 Q 85.18 -2.19 85.66 -2.31 Q 86.14 -2.43 86.42 -2.66 Q 86.7 -2.89 86.68 -3.33 Q 86.68 -3.79 86.53 -4.06 Q 86.38 -4.33 86.13 -4.48 Q 85.88 -4.63 85.55 -4.68 Q 85.22 -4.73 84.84 -4.73 Q 84 -4.73 83.52 -4.37 Q 83.04 -4.01 82.96 -3.17 Z M 86.68 -1.07 Q 86.5 -0.91 86.23 -0.82 Q 85.96 -0.73 85.65 -0.67 Q 85.34 -0.61 85 -0.57 Q 84.66 -0.53 84.32 -0.47 Q 84 -0.41 83.69 -0.31 Q 83.38 -0.21 83.15 -0.04 Q 82.92 0.13 82.78 0.39 Q 82.64 0.65 82.64 1.05 Q 82.64 1.43 82.78 1.69 Q 82.92 1.95 83.16 2.1 Q 83.4 2.25 83.72 2.31 Q 84.04 2.37 84.38 2.37 Q 85.22 2.37 85.68 2.09 Q 86.14 1.81 86.36 1.42 Q 86.58 1.03 86.63 0.63 Q 86.68 0.23 86.68 -0.01 Z M 94.99 -6.35 L 94.99 -9.45 L 92.15 -9.45 L 92.15 -6.35 L 90.43 -6.35 L 90.43 -4.45 L 92.15 -4.45 L 92.15 1.65 Q 92.15 2.43 92.41 2.91 Q 92.67 3.39 93.12 3.65 Q 93.57 3.91 94.16 4 Q 94.75 4.09 95.41 4.09 Q 95.83 4.09 96.27 4.07 Q 96.71 4.05 97.07 3.99 L 97.07 1.79 Q 96.87 1.83 96.65 1.85 Q 96.43 1.87 96.19 1.87 Q 95.47 1.87 95.23 1.63 Q 94.99 1.39 94.99 0.67 L 94.99 -4.45 L 97.07 -4.45 L 97.07 -6.35 Z M 102.59 -6.35 L 102.59 -9.45 L 99.75 -9.45 L 99.75 -6.35 L 98.03 -6.35 L 98.03 -4.45 L 99.75 -4.45 L 99.75 1.65 Q 99.75 2.43 100.01 2.91 Q 100.27 3.39 100.72 3.65 Q 101.17 3.91 101.76 4 Q 102.35 4.09 103.01 4.09 Q 103.43 4.09 103.87 4.07 Q 104.31 4.05 104.67 3.99 L 104.67 1.79 Q 104.47 1.83 104.25 1.85 Q 104.03 1.87 103.79 1.87 Q 103.07 1.87 102.83 1.63 Q 102.59 1.39 102.59 0.67 L 102.59 -4.45 L 104.67 -4.45 L 104.67 -6.35 Z M 108.64 0.63 L 105.94 0.63 Q 105.98 1.67 106.41 2.36 Q 106.84 3.05 107.51 3.47 Q 108.18 3.89 109.04 4.07 Q 109.9 4.25 110.8 4.25 Q 111.68 4.25 112.53 4.08 Q 113.38 3.91 114.04 3.49 Q 114.7 3.07 115.11 2.38 Q 115.52 1.69 115.52 0.67 Q 115.52 -0.05 115.24 -0.54 Q 114.96 -1.03 114.5 -1.36 Q 114.04 -1.69 113.45 -1.89 Q 112.86 -2.09 112.24 -2.23 Q 111.64 -2.37 111.06 -2.49 Q 110.48 -2.61 110.03 -2.76 Q 109.58 -2.91 109.3 -3.15 Q 109.02 -3.39 109.02 -3.77 Q 109.02 -4.09 109.18 -4.28 Q 109.34 -4.47 109.57 -4.57 Q 109.8 -4.67 110.08 -4.7 Q 110.36 -4.73 110.6 -4.73 Q 111.36 -4.73 111.92 -4.44 Q 112.48 -4.15 112.54 -3.33 L 115.24 -3.33 Q 115.16 -4.29 114.75 -4.92 Q 114.34 -5.55 113.72 -5.93 Q 113.1 -6.31 112.31 -6.47 Q 111.52 -6.63 110.68 -6.63 Q 109.84 -6.63 109.04 -6.48 Q 108.24 -6.33 107.6 -5.96 Q 106.96 -5.59 106.57 -4.95 Q 106.18 -4.31 106.18 -3.31 Q 106.18 -2.63 106.46 -2.16 Q 106.74 -1.69 107.2 -1.38 Q 107.66 -1.07 108.25 -0.88 Q 108.84 -0.69 109.46 -0.55 Q 110.98 -0.23 111.83 0.09 Q 112.68 0.41 112.68 1.05 Q 112.68 1.43 112.5 1.68 Q 112.32 1.93 112.05 2.08 Q 111.78 2.23 111.45 2.3 Q 111.12 2.37 110.82 2.37 Q 110.4 2.37 110.01 2.27 Q 109.62 2.17 109.32 1.96 Q 109.02 1.75 108.83 1.42 Q 108.64 1.09 108.64 0.63 Z M 120.62 -6.35 L 120.62 -9.45 L 117.78 -9.45 L 117.78 -6.35 L 116.06 -6.35 L 116.06 -4.45 L 117.78 -4.45 L 117.78 1.65 Q 117.78 2.43 118.04 2.91 Q 118.3 3.39 118.75 3.65 Q 119.2 3.91 119.79 4 Q 120.38 4.09 121.04 4.09 Q 121.46 4.09 121.9 4.07 Q 122.34 4.05 122.7 3.99 L 122.7 1.79 Q 122.5 1.83 122.28 1.85 Q 122.06 1.87 121.82 1.87 Q 121.1 1.87 120.86 1.63 Q 120.62 1.39 120.62 0.67 L 120.62 -4.45 L 122.7 -4.45 L 122.7 -6.35 Z M 124.42 -3.17 Q 124.48 -4.17 124.92 -4.83 Q 125.36 -5.49 126.04 -5.89 Q 126.72 -6.29 127.57 -6.46 Q 128.42 -6.63 129.28 -6.63 Q 130.06 -6.63 130.86 -6.52 Q 131.66 -6.41 132.32 -6.09 Q 132.98 -5.77 133.4 -5.2 Q 133.82 -4.63 133.82 -3.69 L 133.82 1.69 Q 133.82 2.39 133.9 3.03 Q 133.98 3.67 134.18 3.99 L 131.3 3.99 Q 131.22 3.75 131.17 3.5 Q 131.12 3.25 131.1 2.99 Q 130.42 3.69 129.5 3.97 Q 128.58 4.25 127.62 4.25 Q 126.88 4.25 126.24 4.07 Q 125.6 3.89 125.12 3.51 Q 124.64 3.13 124.37 2.55 Q 124.1 1.97 124.1 1.17 Q 124.1 0.29 124.41 -0.28 Q 124.72 -0.85 125.21 -1.19 Q 125.7 -1.53 126.33 -1.7 Q 126.96 -1.87 127.6 -1.97 Q 128.24 -2.07 128.86 -2.13 Q 129.48 -2.19 129.96 -2.31 Q 130.44 -2.43 130.72 -2.66 Q 131 -2.89 130.98 -3.33 Q 130.98 -3.79 130.83 -4.06 Q 130.68 -4.33 130.43 -4.48 Q 130.18 -4.63 129.85 -4.68 Q 129.52 -4.73 129.14 -4.73 Q 128.3 -4.73 127.82 -4.37 Q 127.34 -4.01 127.26 -3.17 Z M 130.98 -1.07 Q 130.8 -0.91 130.53 -0.82 Q 130.26 -0.73 129.95 -0.67 Q 129.64 -0.61 129.3 -0.57 Q 128.96 -0.53 128.62 -0.47 Q 128.3 -0.41 127.99 -0.31 Q 127.68 -0.21 127.45 -0.04 Q 127.22 0.13 127.08 0.39 Q 126.94 0.65 126.94 1.05 Q 126.94 1.43 127.08 1.69 Q 127.22 1.95 127.46 2.1 Q 127.7 2.25 128.02 2.31 Q 128.34 2.37 128.68 2.37 Q 129.52 2.37 129.98 2.09 Q 130.44 1.81 130.66 1.42 Q 130.88 1.03 130.93 0.63 Q 130.98 0.23 130.98 -0.01 Z M 143.03 -1.21 Q 143.03 -0.57 142.91 0.03 Q 142.79 0.63 142.51 1.1 Q 142.23 1.57 141.76 1.85 Q 141.29 2.13 140.59 2.13 Q 139.93 2.13 139.46 1.84 Q 138.99 1.55 138.68 1.08 Q 138.37 0.61 138.23 0.01 Q 138.09 -0.59 138.09 -1.19 Q 138.09 -1.83 138.22 -2.42 Q 138.35 -3.01 138.64 -3.47 Q 138.93 -3.93 139.41 -4.21 Q 139.89 -4.49 140.59 -4.49 Q 141.29 -4.49 141.75 -4.21 Q 142.21 -3.93 142.5 -3.48 Q 142.79 -3.03 142.91 -2.44 Q 143.03 -1.85 143.03 -1.21 Z M 143.07 2.67 L 143.07 3.99 L 145.77 3.99 L 145.77 -10.29 L 142.93 -10.29 L 142.93 -5.09 L 142.89 -5.09 Q 142.41 -5.85 141.58 -6.24 Q 140.75 -6.63 139.83 -6.63 Q 138.69 -6.63 137.83 -6.18 Q 136.97 -5.73 136.4 -4.99 Q 135.83 -4.25 135.54 -3.28 Q 135.25 -2.31 135.25 -1.27 Q 135.25 -0.19 135.54 0.81 Q 135.83 1.81 136.4 2.58 Q 136.97 3.35 137.85 3.8 Q 138.73 4.25 139.89 4.25 Q 140.91 4.25 141.72 3.88 Q 142.53 3.51 143.03 2.67 Z M 150.91 -7.95 L 150.91 -10.29 L 148.07 -10.29 L 148.07 -7.95 Z M 148.07 -6.35 L 148.07 3.99 L 150.91 3.99 L 150.91 -6.35 Z M 162.77 3.99 L 162.77 -6.35 L 159.93 -6.35 L 159.93 -0.93 Q 159.93 0.65 159.41 1.34 Q 158.89 2.03 157.73 2.03 Q 156.71 2.03 156.31 1.4 Q 155.91 0.77 155.91 -0.51 L 155.91 -6.35 L 153.07 -6.35 L 153.07 0.01 Q 153.07 0.97 153.24 1.76 Q 153.41 2.55 153.83 3.1 Q 154.25 3.65 154.98 3.95 Q 155.71 4.25 156.85 4.25 Q 157.75 4.25 158.61 3.85 Q 159.47 3.45 160.01 2.55 L 160.07 2.55 L 160.07 3.99 Z M 165 -6.35 L 165 3.99 L 167.84 3.99 L 167.84 -2.01 Q 167.84 -2.77 168.06 -3.24 Q 168.28 -3.71 168.59 -3.96 Q 168.9 -4.21 169.23 -4.3 Q 169.56 -4.39 169.76 -4.39 Q 170.44 -4.39 170.79 -4.16 Q 171.14 -3.93 171.29 -3.55 Q 171.44 -3.17 171.46 -2.72 Q 171.48 -2.27 171.48 -1.81 L 171.48 3.99 L 174.32 3.99 L 174.32 -1.77 Q 174.32 -2.25 174.39 -2.72 Q 174.46 -3.19 174.67 -3.56 Q 174.88 -3.93 175.25 -4.16 Q 175.62 -4.39 176.22 -4.39 Q 176.82 -4.39 177.17 -4.19 Q 177.52 -3.99 177.7 -3.65 Q 177.88 -3.31 177.92 -2.85 Q 177.96 -2.39 177.96 -1.87 L 177.96 3.99 L 180.8 3.99 L 180.8 -2.93 Q 180.8 -3.93 180.52 -4.64 Q 180.24 -5.35 179.74 -5.79 Q 179.24 -6.23 178.54 -6.43 Q 177.84 -6.63 177.02 -6.63 Q 175.94 -6.63 175.15 -6.11 Q 174.36 -5.59 173.9 -4.91 Q 173.48 -5.87 172.67 -6.25 Q 171.86 -6.63 170.88 -6.63 Q 169.86 -6.63 169.07 -6.19 Q 168.28 -5.75 167.72 -4.95 L 167.68 -4.95 L 167.68 -6.35 Z M 196.92 3.99 L 196.92 -6.35 L 194.08 -6.35 L 194.08 -0.93 Q 194.08 0.65 193.56 1.34 Q 193.04 2.03 191.88 2.03 Q 190.86 2.03 190.46 1.4 Q 190.06 0.77 190.06 -0.51 L 190.06 -6.35 L 187.22 -6.35 L 187.22 0.01 Q 187.22 0.97 187.39 1.76 Q 187.56 2.55 187.98 3.1 Q 188.4 3.65 189.13 3.95 Q 189.86 4.25 191 4.25 Q 191.9 4.25 192.76 3.85 Q 193.62 3.45 194.16 2.55 L 194.22 2.55 L 194.22 3.99 Z M 199.06 -6.35 L 199.06 3.99 L 201.9 3.99 L 201.9 -1.43 Q 201.9 -3.01 202.42 -3.7 Q 202.94 -4.39 204.1 -4.39 Q 205.12 -4.39 205.52 -3.76 Q 205.92 -3.13 205.92 -1.85 L 205.92 3.99 L 208.76 3.99 L 208.76 -2.37 Q 208.76 -3.33 208.59 -4.12 Q 208.42 -4.91 208 -5.46 Q 207.58 -6.01 206.85 -6.32 Q 206.12 -6.63 204.98 -6.63 Q 204.08 -6.63 203.22 -6.22 Q 202.36 -5.81 201.82 -4.91 L 201.76 -4.91 L 201.76 -6.35 Z M 218.27 -1.21 Q 218.27 -0.57 218.15 0.03 Q 218.03 0.63 217.75 1.1 Q 217.47 1.57 217 1.85 Q 216.53 2.13 215.83 2.13 Q 215.17 2.13 214.7 1.84 Q 214.23 1.55 213.92 1.08 Q 213.61 0.61 213.47 0.01 Q 213.33 -0.59 213.33 -1.19 Q 213.33 -1.83 213.46 -2.42 Q 213.59 -3.01 213.88 -3.47 Q 214.17 -3.93 214.65 -4.21 Q 215.13 -4.49 215.83 -4.49 Q 216.53 -4.49 216.99 -4.21 Q 217.45 -3.93 217.74 -3.48 Q 218.03 -3.03 218.15 -2.44 Q 218.27 -1.85 218.27 -1.21 Z M 218.31 2.67 L 218.31 3.99 L 221.01 3.99 L 221.01 -10.29 L 218.17 -10.29 L 218.17 -5.09 L 218.13 -5.09 Q 217.65 -5.85 216.82 -6.24 Q 215.99 -6.63 215.07 -6.63 Q 213.93 -6.63 213.07 -6.18 Q 212.21 -5.73 211.64 -4.99 Q 211.07 -4.25 210.78 -3.28 Q 210.49 -2.31 210.49 -1.27 Q 210.49 -0.19 210.78 0.81 Q 211.07 1.81 211.64 2.58 Q 212.21 3.35 213.09 3.8 Q 213.97 4.25 215.13 4.25 Q 216.15 4.25 216.96 3.88 Q 217.77 3.51 218.27 2.67 Z M 227.94 -10.29 L 227.94 3.99 L 238.78 3.99 L 238.78 1.35 L 231.08 1.35 L 231.08 -2.15 L 238 -2.15 L 238 -4.59 L 231.08 -4.59 L 231.08 -7.65 L 238.62 -7.65 L 238.62 -10.29 Z M 239.4 -6.35 L 239.4 3.99 L 242.24 3.99 L 242.24 -0.67 Q 242.24 -1.37 242.38 -1.97 Q 242.52 -2.57 242.85 -3.02 Q 243.18 -3.47 243.72 -3.73 Q 244.26 -3.99 245.04 -3.99 Q 245.3 -3.99 245.58 -3.96 Q 245.86 -3.93 246.06 -3.89 L 246.06 -6.53 Q 245.72 -6.63 245.44 -6.63 Q 244.9 -6.63 244.4 -6.47 Q 243.9 -6.31 243.46 -6.02 Q 243.02 -5.73 242.68 -5.32 Q 242.34 -4.91 242.14 -4.43 L 242.1 -4.43 L 242.1 -6.35 Z M 251.18 -6.35 L 251.18 -9.45 L 248.34 -9.45 L 248.34 -6.35 L 246.62 -6.35 L 246.62 -4.45 L 248.34 -4.45 L 248.34 1.65 Q 248.34 2.43 248.6 2.91 Q 248.86 3.39 249.31 3.65 Q 249.76 3.91 250.35 4 Q 250.94 4.09 251.6 4.09 Q 252.02 4.09 252.46 4.07 Q 252.9 4.05 253.26 3.99 L 253.26 1.79 Q 253.06 1.83 252.84 1.85 Q 252.62 1.87 252.38 1.87 Q 251.66 1.87 251.42 1.63 Q 251.18 1.39 251.18 0.67 L 251.18 -4.45 L 253.26 -4.45 L 253.26 -6.35 Z M 255.12 -6.35 L 255.12 3.99 L 257.96 3.99 L 257.96 -0.67 Q 257.96 -1.37 258.1 -1.97 Q 258.24 -2.57 258.57 -3.02 Q 258.9 -3.47 259.44 -3.73 Q 259.98 -3.99 260.76 -3.99 Q 261.02 -3.99 261.3 -3.96 Q 261.58 -3.93 261.78 -3.89 L 261.78 -6.53 Q 261.44 -6.63 261.16 -6.63 Q 260.62 -6.63 260.12 -6.47 Q 259.62 -6.31 259.18 -6.02 Q 258.74 -5.73 258.4 -5.32 Q 258.06 -4.91 257.86 -4.43 L 257.82 -4.43 L 257.82 -6.35 Z M 262.71 -3.17 Q 262.77 -4.17 263.21 -4.83 Q 263.65 -5.49 264.33 -5.89 Q 265.01 -6.29 265.86 -6.46 Q 266.71 -6.63 267.57 -6.63 Q 268.35 -6.63 269.15 -6.52 Q 269.95 -6.41 270.61 -6.09 Q 271.27 -5.77 271.69 -5.2 Q 272.11 -4.63 272.11 -3.69 L 272.11 1.69 Q 272.11 2.39 272.19 3.03 Q 272.27 3.67 272.47 3.99 L 269.59 3.99 Q 269.51 3.75 269.46 3.5 Q 269.41 3.25 269.39 2.99 Q 268.71 3.69 267.79 3.97 Q 266.87 4.25 265.91 4.25 Q 265.17 4.25 264.53 4.07 Q 263.89 3.89 263.41 3.51 Q 262.93 3.13 262.66 2.55 Q 262.39 1.97 262.39 1.17 Q 262.39 0.29 262.7 -0.28 Q 263.01 -0.85 263.5 -1.19 Q 263.99 -1.53 264.62 -1.7 Q 265.25 -1.87 265.89 -1.97 Q 266.53 -2.07 267.15 -2.13 Q 267.77 -2.19 268.25 -2.31 Q 268.73 -2.43 269.01 -2.66 Q 269.29 -2.89 269.27 -3.33 Q 269.27 -3.79 269.12 -4.06 Q 268.97 -4.33 268.72 -4.48 Q 268.47 -4.63 268.14 -4.68 Q 267.81 -4.73 267.43 -4.73 Q 266.59 -4.73 266.11 -4.37 Q 265.63 -4.01 265.55 -3.17 Z M 269.27 -1.07 Q 269.09 -0.91 268.82 -0.82 Q 268.55 -0.73 268.24 -0.67 Q 267.93 -0.61 267.59 -0.57 Q 267.25 -0.53 266.91 -0.47 Q 266.59 -0.41 266.28 -0.31 Q 265.97 -0.21 265.74 -0.04 Q 265.51 0.13 265.37 0.39 Q 265.23 0.65 265.23 1.05 Q 265.23 1.43 265.37 1.69 Q 265.51 1.95 265.75 2.1 Q 265.99 2.25 266.31 2.31 Q 266.63 2.37 266.97 2.37 Q 267.81 2.37 268.27 2.09 Q 268.73 1.81 268.95 1.42 Q 269.17 1.03 269.22 0.63 Q 269.27 0.23 269.27 -0.01 Z M 278.77 1.55 Q 278.11 1.55 277.67 1.27 Q 277.23 0.99 276.96 0.55 Q 276.69 0.11 276.58 -0.44 Q 276.47 -0.99 276.47 -1.55 Q 276.47 -2.13 276.6 -2.66 Q 276.73 -3.19 277.02 -3.6 Q 277.31 -4.01 277.74 -4.25 Q 278.17 -4.49 278.77 -4.49 Q 279.47 -4.49 279.93 -4.23 Q 280.39 -3.97 280.67 -3.53 Q 280.95 -3.09 281.07 -2.52 Q 281.19 -1.95 281.19 -1.31 Q 281.19 -0.75 281.04 -0.24 Q 280.89 0.27 280.59 0.67 Q 280.29 1.07 279.83 1.31 Q 279.37 1.55 278.77 1.55 Z M 283.89 3.33 L 283.89 -6.35 L 281.19 -6.35 L 281.19 -4.97 L 281.15 -4.97 Q 280.63 -5.87 279.86 -6.25 Q 279.09 -6.63 278.07 -6.63 Q 276.99 -6.63 276.16 -6.21 Q 275.33 -5.79 274.77 -5.08 Q 274.21 -4.37 273.92 -3.44 Q 273.63 -2.51 273.63 -1.51 Q 273.63 -0.45 273.88 0.5 Q 274.13 1.45 274.67 2.16 Q 275.21 2.87 276.05 3.28 Q 276.89 3.69 278.05 3.69 Q 278.99 3.69 279.84 3.3 Q 280.69 2.91 281.15 2.09 L 281.19 2.09 L 281.19 3.45 Q 281.21 4.55 280.66 5.27 Q 280.11 5.99 278.91 5.99 Q 278.15 5.99 277.57 5.68 Q 276.99 5.37 276.79 4.57 L 273.97 4.57 Q 274.03 5.45 274.46 6.08 Q 274.89 6.71 275.54 7.11 Q 276.19 7.51 276.98 7.7 Q 277.77 7.89 278.53 7.89 Q 280.31 7.89 281.37 7.41 Q 282.43 6.93 282.99 6.24 Q 283.55 5.55 283.72 4.75 Q 283.89 3.95 283.89 3.33 Z" style="text-wrap-mode: nowrap;"/><line x1="26.866" y1="0" x2="26.866" y2="300" stroke="black" stroke-width="1"/><line x1="26.865" y1="299.189" x2="358.801" y2="298.641" stroke="black" stroke-width="1"/><path d="M -14.45 24.89 L -13.43 24.89 Q -13.44 24.51 -13.35 24.13 Q -13.26 23.75 -13.06 23.45 Q -12.85 23.15 -12.54 22.96 Q -12.22 22.78 -11.77 22.78 Q -11.44 22.78 -11.14 22.89 Q -10.84 22.99 -10.62 23.2 Q -10.39 23.4 -10.26 23.68 Q -10.13 23.97 -10.13 24.31 Q -10.13 24.76 -10.27 25.09 Q -10.41 25.43 -10.68 25.72 Q -10.95 26.01 -11.35 26.29 Q -11.76 26.57 -12.3 26.91 Q -12.75 27.17 -13.15 27.47 Q -13.56 27.77 -13.89 28.17 Q -14.21 28.56 -14.42 29.1 Q -14.63 29.63 -14.69 30.39 L -9.13 30.39 L -9.13 29.49 L -13.5 29.49 Q -13.43 29.09 -13.2 28.78 Q -12.96 28.48 -12.63 28.21 Q -12.3 27.95 -11.91 27.72 Q -11.51 27.48 -11.11 27.24 Q -10.72 26.99 -10.35 26.71 Q -9.97 26.44 -9.69 26.1 Q -9.4 25.75 -9.22 25.32 Q -9.05 24.89 -9.05 24.33 Q -9.05 23.73 -9.26 23.27 Q -9.47 22.81 -9.83 22.51 Q -10.19 22.2 -10.68 22.04 Q -11.16 21.88 -11.71 21.88 Q -12.39 21.88 -12.91 22.11 Q -13.44 22.33 -13.8 22.74 Q -14.15 23.14 -14.32 23.69 Q -14.49 24.24 -14.45 24.89 Z M -6.16 26.2 Q -6.16 25.89 -6.16 25.51 Q -6.15 25.13 -6.1 24.75 Q -6.04 24.37 -5.94 24.01 Q -5.84 23.65 -5.64 23.38 Q -5.44 23.11 -5.14 22.95 Q -4.84 22.78 -4.41 22.78 Q -3.98 22.78 -3.68 22.95 Q -3.38 23.11 -3.18 23.38 Q -2.98 23.65 -2.88 24.01 Q -2.78 24.37 -2.72 24.75 Q -2.67 25.13 -2.66 25.51 Q -2.66 25.89 -2.66 26.2 Q -2.66 26.68 -2.69 27.27 Q -2.72 27.87 -2.88 28.39 Q -3.04 28.91 -3.4 29.27 Q -3.76 29.63 -4.41 29.63 Q -5.06 29.63 -5.42 29.27 Q -5.78 28.91 -5.94 28.39 Q -6.1 27.87 -6.13 27.27 Q -6.16 26.68 -6.16 26.2 Z M -7.24 26.21 Q -7.24 26.68 -7.22 27.18 Q -7.19 27.69 -7.1 28.17 Q -7 28.65 -6.82 29.07 Q -6.64 29.5 -6.33 29.82 Q -6.02 30.15 -5.54 30.33 Q -5.07 30.52 -4.41 30.52 Q -3.74 30.52 -3.27 30.33 Q -2.8 30.15 -2.49 29.82 Q -2.18 29.5 -2 29.07 Q -1.82 28.65 -1.72 28.17 Q -1.63 27.69 -1.6 27.18 Q -1.58 26.68 -1.58 26.21 Q -1.58 25.74 -1.6 25.24 Q -1.63 24.73 -1.72 24.25 Q -1.82 23.77 -2 23.34 Q -2.18 22.91 -2.49 22.59 Q -2.8 22.26 -3.28 22.07 Q -3.75 21.88 -4.41 21.88 Q -5.07 21.88 -5.54 22.07 Q -6.02 22.26 -6.33 22.59 Q -6.64 22.91 -6.82 23.34 Q -7 23.77 -7.1 24.25 Q -7.19 24.73 -7.22 25.24 Q -7.24 25.74 -7.24 26.21 Z M 1.37 26.2 Q 1.37 25.89 1.38 25.51 Q 1.39 25.13 1.44 24.75 Q 1.49 24.37 1.6 24.01 Q 1.7 23.65 1.9 23.38 Q 2.09 23.11 2.39 22.95 Q 2.69 22.78 3.13 22.78 Q 3.56 22.78 3.86 22.95 Q 4.16 23.11 4.36 23.38 Q 4.55 23.65 4.66 24.01 Q 4.76 24.37 4.81 24.75 Q 4.87 25.13 4.87 25.51 Q 4.88 25.89 4.88 26.2 Q 4.88 26.68 4.85 27.27 Q 4.82 27.87 4.66 28.39 Q 4.49 28.91 4.13 29.27 Q 3.77 29.63 3.13 29.63 Q 2.48 29.63 2.12 29.27 Q 1.76 28.91 1.6 28.39 Q 1.43 27.87 1.4 27.27 Q 1.37 26.68 1.37 26.2 Z M 0.29 26.21 Q 0.29 26.68 0.32 27.18 Q 0.34 27.69 0.44 28.17 Q 0.53 28.65 0.71 29.07 Q 0.89 29.5 1.21 29.82 Q 1.52 30.15 1.99 30.33 Q 2.47 30.52 3.13 30.52 Q 3.8 30.52 4.27 30.33 Q 4.73 30.15 5.05 29.82 Q 5.36 29.5 5.54 29.07 Q 5.72 28.65 5.81 28.17 Q 5.91 27.69 5.93 27.18 Q 5.96 26.68 5.96 26.21 Q 5.96 25.74 5.93 25.24 Q 5.91 24.73 5.81 24.25 Q 5.72 23.77 5.54 23.34 Q 5.36 22.91 5.05 22.59 Q 4.73 22.26 4.26 22.07 Q 3.79 21.88 3.13 21.88 Q 2.47 21.88 1.99 22.07 Q 1.52 22.26 1.21 22.59 Q 0.89 22.91 0.71 23.34 Q 0.53 23.77 0.44 24.25 Q 0.34 24.73 0.32 25.24 Q 0.29 25.74 0.29 26.21 Z M 8.93 26.2 Q 8.93 25.89 8.94 25.51 Q 8.94 25.13 9 24.75 Q 9.05 24.37 9.15 24.01 Q 9.25 23.65 9.45 23.38 Q 9.65 23.11 9.95 22.95 Q 10.25 22.78 10.68 22.78 Q 11.11 22.78 11.41 22.95 Q 11.71 23.11 11.91 23.38 Q 12.11 23.65 12.21 24.01 Q 12.31 24.37 12.37 24.75 Q 12.42 25.13 12.43 25.51 Q 12.43 25.89 12.43 26.2 Q 12.43 26.68 12.4 27.27 Q 12.37 27.87 12.21 28.39 Q 12.05 28.91 11.69 29.27 Q 11.33 29.63 10.68 29.63 Q 10.03 29.63 9.67 29.27 Q 9.31 28.91 9.15 28.39 Q 8.99 27.87 8.96 27.27 Q 8.93 26.68 8.93 26.2 Z M 7.85 26.21 Q 7.85 26.68 7.87 27.18 Q 7.9 27.69 7.99 28.17 Q 8.09 28.65 8.27 29.07 Q 8.45 29.5 8.76 29.82 Q 9.07 30.15 9.55 30.33 Q 10.02 30.52 10.68 30.52 Q 11.35 30.52 11.82 30.33 Q 12.29 30.15 12.6 29.82 Q 12.91 29.5 13.09 29.07 Q 13.27 28.65 13.37 28.17 Q 13.47 27.69 13.49 27.18 Q 13.51 26.68 13.51 26.21 Q 13.51 25.74 13.49 25.24 Q 13.47 24.73 13.37 24.25 Q 13.27 23.77 13.09 23.34 Q 12.91 22.91 12.6 22.59 Q 12.29 22.26 11.82 22.07 Q 11.34 21.88 10.68 21.88 Q 10.02 21.88 9.55 22.07 Q 9.07 22.26 8.76 22.59 Q 8.45 22.91 8.27 23.34 Q 8.09 23.77 7.99 24.25 Q 7.9 24.73 7.87 25.24 Q 7.85 25.74 7.85 26.21 Z" style="text-wrap-mode: nowrap;"/><path d="M -10.49 166.79 L -10.49 158.29 L -11.27 158.29 Q -11.36 158.77 -11.59 159.08 Q -11.81 159.39 -12.14 159.57 Q -12.47 159.75 -12.88 159.82 Q -13.29 159.88 -13.72 159.88 L -13.72 160.7 L -11.51 160.7 L -11.51 166.79 Z M -7.64 162.61 Q -7.64 162.29 -7.63 161.92 Q -7.63 161.54 -7.57 161.16 Q -7.52 160.78 -7.42 160.42 Q -7.31 160.06 -7.12 159.79 Q -6.92 159.52 -6.62 159.35 Q -6.32 159.19 -5.89 159.19 Q -5.45 159.19 -5.15 159.35 Q -4.85 159.52 -4.66 159.79 Q -4.46 160.06 -4.36 160.42 Q -4.25 160.78 -4.2 161.16 Q -4.15 161.54 -4.14 161.92 Q -4.13 162.29 -4.13 162.61 Q -4.13 163.09 -4.16 163.68 Q -4.19 164.27 -4.36 164.8 Q -4.52 165.32 -4.88 165.68 Q -5.24 166.04 -5.89 166.04 Q -6.53 166.04 -6.89 165.68 Q -7.25 165.32 -7.42 164.8 Q -7.58 164.27 -7.61 163.68 Q -7.64 163.09 -7.64 162.61 Z M -8.72 162.62 Q -8.72 163.09 -8.69 163.59 Q -8.67 164.09 -8.57 164.57 Q -8.48 165.05 -8.3 165.48 Q -8.12 165.91 -7.81 166.23 Q -7.49 166.55 -7.02 166.74 Q -6.55 166.93 -5.89 166.93 Q -5.21 166.93 -4.75 166.74 Q -4.28 166.55 -3.97 166.23 Q -3.65 165.91 -3.47 165.48 Q -3.29 165.05 -3.2 164.57 Q -3.1 164.09 -3.08 163.59 Q -3.05 163.09 -3.05 162.62 Q -3.05 162.15 -3.08 161.65 Q -3.1 161.14 -3.2 160.66 Q -3.29 160.18 -3.47 159.75 Q -3.65 159.32 -3.97 158.99 Q -4.28 158.67 -4.75 158.48 Q -5.23 158.29 -5.89 158.29 Q -6.55 158.29 -7.02 158.48 Q -7.49 158.67 -7.81 158.99 Q -8.12 159.32 -8.3 159.75 Q -8.48 160.18 -8.57 160.66 Q -8.67 161.14 -8.69 161.65 Q -8.72 162.15 -8.72 162.62 Z M -0.08 162.61 Q -0.08 162.29 -0.08 161.92 Q -0.07 161.54 -0.02 161.16 Q 0.04 160.78 0.14 160.42 Q 0.24 160.06 0.44 159.79 Q 0.64 159.52 0.94 159.35 Q 1.24 159.19 1.67 159.19 Q 2.1 159.19 2.4 159.35 Q 2.7 159.52 2.9 159.79 Q 3.1 160.06 3.2 160.42 Q 3.3 160.78 3.36 161.16 Q 3.41 161.54 3.42 161.92 Q 3.42 162.29 3.42 162.61 Q 3.42 163.09 3.39 163.68 Q 3.36 164.27 3.2 164.8 Q 3.04 165.32 2.68 165.68 Q 2.32 166.04 1.67 166.04 Q 1.02 166.04 0.66 165.68 Q 0.3 165.32 0.14 164.8 Q -0.02 164.27 -0.05 163.68 Q -0.08 163.09 -0.08 162.61 Z M -1.16 162.62 Q -1.16 163.09 -1.14 163.59 Q -1.11 164.09 -1.02 164.57 Q -0.92 165.05 -0.74 165.48 Q -0.56 165.91 -0.25 166.23 Q 0.06 166.55 0.54 166.74 Q 1.01 166.93 1.67 166.93 Q 2.34 166.93 2.81 166.74 Q 3.28 166.55 3.59 166.23 Q 3.9 165.91 4.08 165.48 Q 4.26 165.05 4.36 164.57 Q 4.45 164.09 4.48 163.59 Q 4.5 163.09 4.5 162.62 Q 4.5 162.15 4.48 161.65 Q 4.45 161.14 4.36 160.66 Q 4.26 160.18 4.08 159.75 Q 3.9 159.32 3.59 158.99 Q 3.28 158.67 2.8 158.48 Q 2.33 158.29 1.67 158.29 Q 1.01 158.29 0.54 158.48 Q 0.06 158.67 -0.25 158.99 Q -0.56 159.32 -0.74 159.75 Q -0.92 160.18 -1.02 160.66 Q -1.11 161.14 -1.14 161.65 Q -1.16 162.15 -1.16 162.62 Z M 7.47 162.61 Q 7.47 162.29 7.48 161.92 Q 7.49 161.54 7.54 161.16 Q 7.59 160.78 7.7 160.42 Q 7.8 160.06 8 159.79 Q 8.19 159.52 8.49 159.35 Q 8.79 159.19 9.23 159.19 Q 9.66 159.19 9.96 159.35 Q 10.26 159.52 10.46 159.79 Q 10.65 160.06 10.76 160.42 Q 10.86 160.78 10.91 161.16 Q 10.97 161.54 10.97 161.92 Q 10.98 162.29 10.98 162.61 Q 10.98 163.09 10.95 163.68 Q 10.92 164.27 10.76 164.8 Q 10.59 165.32 10.23 165.68 Q 9.87 166.04 9.23 166.04 Q 8.58 166.04 8.22 165.68 Q 7.86 165.32 7.7 164.8 Q 7.53 164.27 7.5 163.68 Q 7.47 163.09 7.47 162.61 Z M 6.39 162.62 Q 6.39 163.09 6.42 163.59 Q 6.44 164.09 6.54 164.57 Q 6.63 165.05 6.81 165.48 Q 6.99 165.91 7.31 166.23 Q 7.62 166.55 8.09 166.74 Q 8.57 166.93 9.23 166.93 Q 9.9 166.93 10.37 166.74 Q 10.83 166.55 11.15 166.23 Q 11.46 165.91 11.64 165.48 Q 11.82 165.05 11.91 164.57 Q 12.01 164.09 12.03 163.59 Q 12.06 163.09 12.06 162.62 Q 12.06 162.15 12.03 161.65 Q 12.01 161.14 11.91 160.66 Q 11.82 160.18 11.64 159.75 Q 11.46 159.32 11.15 158.99 Q 10.83 158.67 10.36 158.48 Q 9.89 158.29 9.23 158.29 Q 8.57 158.29 8.09 158.48 Q 7.62 158.67 7.31 158.99 Q 6.99 159.32 6.81 159.75 Q 6.63 160.18 6.54 160.66 Q 6.44 161.14 6.42 161.65 Q 6.39 162.15 6.39 162.62 Z" style="text-wrap-mode: nowrap;"/><line x1="174.444" y1="197.24" x2="349.729" y2="197.24" stroke="#ccc" stroke-dasharray="5,5" style=""/><path d="M 2 301.74 Q 2 301.42 2.01 301.05 Q 2.01 300.67 2.07 300.29 Q 2.12 299.91 2.22 299.55 Q 2.33 299.19 2.52 298.92 Q 2.72 298.65 3.02 298.48 Q 3.32 298.32 3.75 298.32 Q 4.19 298.32 4.49 298.48 Q 4.79 298.65 4.98 298.92 Q 5.18 299.19 5.28 299.55 Q 5.39 299.91 5.44 300.29 Q 5.49 300.67 5.5 301.05 Q 5.51 301.42 5.51 301.74 Q 5.51 302.22 5.48 302.81 Q 5.45 303.4 5.28 303.93 Q 5.12 304.45 4.76 304.81 Q 4.4 305.17 3.75 305.17 Q 3.11 305.17 2.75 304.81 Q 2.39 304.45 2.22 303.93 Q 2.06 303.4 2.03 302.81 Q 2 302.22 2 301.74 Z M 0.92 301.75 Q 0.92 302.22 0.95 302.72 Q 0.97 303.22 1.07 303.7 Q 1.16 304.18 1.34 304.61 Q 1.52 305.04 1.83 305.36 Q 2.15 305.68 2.62 305.87 Q 3.09 306.06 3.75 306.06 Q 4.43 306.06 4.89 305.87 Q 5.36 305.68 5.67 305.36 Q 5.99 305.04 6.17 304.61 Q 6.35 304.18 6.44 303.7 Q 6.54 303.22 6.56 302.72 Q 6.59 302.22 6.59 301.75 Q 6.59 301.28 6.56 300.78 Q 6.54 300.27 6.44 299.79 Q 6.35 299.31 6.17 298.88 Q 5.99 298.45 5.67 298.12 Q 5.36 297.8 4.89 297.61 Q 4.41 297.42 3.75 297.42 Q 3.09 297.42 2.62 297.61 Q 2.15 297.8 1.83 298.12 Q 1.52 298.45 1.34 298.88 Q 1.16 299.31 1.07 299.79 Q 0.97 300.27 0.95 300.78 Q 0.92 301.28 0.92 301.75 Z" style="text-wrap-mode: nowrap;"/><path d="M 141.17 330.55 L 141.17 338.15 L 142.31 338.15 L 142.31 330.55 L 145.17 330.55 L 145.17 329.59 L 138.32 329.59 L 138.32 330.55 Z M 150.92 338.13 Q 150.66 338.29 150.19 338.29 Q 149.8 338.29 149.56 338.06 Q 149.33 337.84 149.33 337.34 Q 148.91 337.84 148.35 338.06 Q 147.79 338.29 147.14 338.29 Q 146.72 338.29 146.35 338.19 Q 145.97 338.09 145.69 337.89 Q 145.42 337.69 145.25 337.36 Q 145.09 337.03 145.09 336.56 Q 145.09 336.03 145.27 335.69 Q 145.45 335.36 145.75 335.15 Q 146.04 334.94 146.42 334.83 Q 146.8 334.72 147.19 334.65 Q 147.61 334.57 147.99 334.52 Q 148.37 334.48 148.66 334.4 Q 148.94 334.33 149.11 334.18 Q 149.28 334.03 149.28 333.74 Q 149.28 333.4 149.15 333.2 Q 149.03 332.99 148.83 332.89 Q 148.63 332.78 148.39 332.74 Q 148.14 332.71 147.9 332.71 Q 147.25 332.71 146.82 332.95 Q 146.39 333.2 146.35 333.88 L 145.33 333.88 Q 145.36 333.31 145.57 332.91 Q 145.79 332.51 146.15 332.27 Q 146.51 332.02 146.97 331.91 Q 147.43 331.81 147.96 331.81 Q 148.38 331.81 148.79 331.87 Q 149.21 331.93 149.54 332.11 Q 149.88 332.3 150.08 332.63 Q 150.29 332.97 150.29 333.51 L 150.29 336.7 Q 150.29 337.06 150.33 337.23 Q 150.37 337.4 150.61 337.4 Q 150.74 337.4 150.92 337.34 Z M 149.27 334.95 Q 149.08 335.09 148.76 335.16 Q 148.45 335.23 148.11 335.27 Q 147.77 335.31 147.42 335.36 Q 147.07 335.42 146.8 335.54 Q 146.52 335.66 146.35 335.88 Q 146.17 336.1 146.17 336.49 Q 146.17 336.74 146.27 336.91 Q 146.38 337.09 146.54 337.19 Q 146.7 337.3 146.92 337.35 Q 147.13 337.4 147.37 337.4 Q 147.88 337.4 148.24 337.26 Q 148.6 337.12 148.82 336.91 Q 149.05 336.7 149.16 336.46 Q 149.27 336.21 149.27 335.99 Z M 157.38 337.63 L 157.38 331.95 L 156.42 331.95 L 156.42 332.84 L 156.41 332.84 Q 156.14 332.32 155.64 332.06 Q 155.15 331.81 154.56 331.81 Q 153.76 331.81 153.21 332.11 Q 152.66 332.42 152.32 332.89 Q 151.98 333.37 151.84 333.95 Q 151.7 334.53 151.7 335.08 Q 151.7 335.72 151.87 336.29 Q 152.04 336.86 152.39 337.28 Q 152.74 337.71 153.26 337.96 Q 153.77 338.21 154.47 338.21 Q 155.07 338.21 155.6 337.94 Q 156.14 337.67 156.4 337.1 L 156.42 337.1 L 156.42 337.51 Q 156.42 338.02 156.32 338.45 Q 156.22 338.89 155.99 339.19 Q 155.76 339.5 155.42 339.67 Q 155.07 339.85 154.56 339.85 Q 154.31 339.85 154.04 339.79 Q 153.76 339.74 153.53 339.62 Q 153.29 339.5 153.13 339.31 Q 152.97 339.11 152.96 338.84 L 151.94 338.84 Q 151.96 339.34 152.2 339.69 Q 152.44 340.04 152.81 340.25 Q 153.17 340.47 153.62 340.57 Q 154.07 340.66 154.5 340.66 Q 155.99 340.66 156.69 339.91 Q 157.38 339.15 157.38 337.63 Z M 154.53 337.33 Q 154.02 337.33 153.69 337.12 Q 153.35 336.91 153.15 336.56 Q 152.94 336.22 152.86 335.8 Q 152.78 335.38 152.78 334.96 Q 152.78 334.52 152.88 334.11 Q 152.98 333.7 153.2 333.39 Q 153.42 333.08 153.77 332.89 Q 154.12 332.71 154.61 332.71 Q 155.09 332.71 155.43 332.9 Q 155.76 333.09 155.97 333.41 Q 156.18 333.73 156.28 334.12 Q 156.38 334.52 156.38 334.93 Q 156.38 335.36 156.27 335.79 Q 156.17 336.22 155.96 336.56 Q 155.74 336.91 155.39 337.12 Q 155.03 337.33 154.53 337.33 Z M 163.64 334.46 L 160.07 334.46 Q 160.1 334.1 160.23 333.78 Q 160.36 333.46 160.59 333.22 Q 160.82 332.98 161.13 332.84 Q 161.45 332.71 161.85 332.71 Q 162.23 332.71 162.55 332.84 Q 162.87 332.98 163.1 333.22 Q 163.34 333.45 163.47 333.77 Q 163.61 334.1 163.64 334.46 Z M 164.62 336.19 L 163.61 336.19 Q 163.48 336.8 163.07 337.1 Q 162.65 337.4 162 337.4 Q 161.5 337.4 161.13 337.23 Q 160.76 337.06 160.52 336.78 Q 160.28 336.5 160.17 336.13 Q 160.06 335.77 160.07 335.36 L 164.72 335.36 Q 164.74 334.79 164.61 334.17 Q 164.49 333.55 164.16 333.02 Q 163.83 332.49 163.28 332.15 Q 162.74 331.81 161.91 331.81 Q 161.27 331.81 160.74 332.05 Q 160.2 332.29 159.81 332.72 Q 159.42 333.15 159.21 333.74 Q 158.99 334.33 158.99 335.03 Q 159.02 335.74 159.2 336.34 Q 159.39 336.94 159.76 337.37 Q 160.13 337.81 160.68 338.05 Q 161.22 338.29 161.97 338.29 Q 163.02 338.29 163.72 337.76 Q 164.42 337.23 164.62 336.19 Z M 169.55 331.95 L 169.55 338.15 L 170.57 338.15 L 170.57 334.65 Q 170.57 334.23 170.68 333.88 Q 170.8 333.52 171.02 333.26 Q 171.25 332.99 171.59 332.85 Q 171.94 332.71 172.4 332.71 Q 172.99 332.71 173.33 333.04 Q 173.66 333.38 173.66 333.95 L 173.66 338.15 L 174.68 338.15 L 174.68 334.07 Q 174.68 333.57 174.58 333.16 Q 174.48 332.74 174.23 332.44 Q 173.98 332.14 173.57 331.97 Q 173.16 331.81 172.55 331.81 Q 171.17 331.81 170.53 332.93 L 170.51 332.93 L 170.51 331.95 Z M 182.04 338.13 Q 181.77 338.29 181.3 338.29 Q 180.91 338.29 180.67 338.06 Q 180.44 337.84 180.44 337.34 Q 180.02 337.84 179.46 338.06 Q 178.9 338.29 178.26 338.29 Q 177.84 338.29 177.46 338.19 Q 177.08 338.09 176.8 337.89 Q 176.53 337.69 176.37 337.36 Q 176.2 337.03 176.2 336.56 Q 176.2 336.03 176.38 335.69 Q 176.56 335.36 176.86 335.15 Q 177.15 334.94 177.53 334.83 Q 177.91 334.72 178.3 334.65 Q 178.72 334.57 179.1 334.52 Q 179.48 334.48 179.77 334.4 Q 180.06 334.33 180.22 334.18 Q 180.39 334.03 180.39 333.74 Q 180.39 333.4 180.27 333.2 Q 180.14 332.99 179.94 332.89 Q 179.74 332.78 179.5 332.74 Q 179.25 332.71 179.01 332.71 Q 178.36 332.71 177.93 332.95 Q 177.5 333.2 177.46 333.88 L 176.44 333.88 Q 176.47 333.31 176.68 332.91 Q 176.9 332.51 177.26 332.27 Q 177.62 332.02 178.08 331.91 Q 178.54 331.81 179.07 331.81 Q 179.49 331.81 179.91 331.87 Q 180.32 331.93 180.66 332.11 Q 180.99 332.3 181.2 332.63 Q 181.4 332.97 181.4 333.51 L 181.4 336.7 Q 181.4 337.06 181.44 337.23 Q 181.48 337.4 181.72 337.4 Q 181.86 337.4 182.04 337.34 Z M 180.38 334.95 Q 180.19 335.09 179.88 335.16 Q 179.56 335.23 179.22 335.27 Q 178.88 335.31 178.53 335.36 Q 178.18 335.42 177.91 335.54 Q 177.63 335.66 177.46 335.88 Q 177.28 336.1 177.28 336.49 Q 177.28 336.74 177.39 336.91 Q 177.49 337.09 177.65 337.19 Q 177.81 337.3 178.03 337.35 Q 178.24 337.4 178.48 337.4 Q 178.99 337.4 179.35 337.26 Q 179.71 337.12 179.94 336.91 Q 180.16 336.7 180.27 336.46 Q 180.38 336.21 180.38 335.99 Z M 187.38 333.94 L 188.43 333.94 Q 188.37 333.39 188.15 332.99 Q 187.92 332.59 187.56 332.32 Q 187.21 332.06 186.75 331.93 Q 186.29 331.81 185.76 331.81 Q 185.03 331.81 184.47 332.06 Q 183.92 332.32 183.56 332.77 Q 183.19 333.22 183.01 333.83 Q 182.83 334.43 182.83 335.13 Q 182.83 335.83 183.02 336.41 Q 183.2 336.99 183.57 337.41 Q 183.93 337.83 184.48 338.06 Q 185.03 338.29 185.73 338.29 Q 186.92 338.29 187.61 337.66 Q 188.3 337.04 188.47 335.89 L 187.43 335.89 Q 187.33 336.61 186.9 337 Q 186.48 337.4 185.72 337.4 Q 185.24 337.4 184.89 337.21 Q 184.55 337.01 184.33 336.7 Q 184.11 336.38 184.01 335.97 Q 183.91 335.56 183.91 335.13 Q 183.91 334.66 184.01 334.22 Q 184.1 333.79 184.32 333.45 Q 184.55 333.11 184.92 332.91 Q 185.29 332.71 185.84 332.71 Q 186.49 332.71 186.87 333.03 Q 187.26 333.35 187.38 333.94 Z M 189.88 329.59 L 189.88 338.15 L 190.9 338.15 L 190.9 334.65 Q 190.9 334.23 191.01 333.88 Q 191.13 333.52 191.35 333.26 Q 191.58 332.99 191.92 332.85 Q 192.27 332.71 192.73 332.71 Q 193.32 332.71 193.66 333.04 Q 193.99 333.38 193.99 333.95 L 193.99 338.15 L 195.01 338.15 L 195.01 334.07 Q 195.01 333.57 194.91 333.16 Q 194.81 332.74 194.56 332.44 Q 194.31 332.14 193.9 331.97 Q 193.49 331.81 192.88 331.81 Q 192.6 331.81 192.31 331.87 Q 192.01 331.93 191.74 332.05 Q 191.47 332.18 191.26 332.38 Q 191.04 332.57 190.92 332.86 L 190.9 332.86 L 190.9 329.59 Z M 201.04 335.11 Q 201.04 334.65 201.13 334.22 Q 201.23 333.79 201.44 333.45 Q 201.66 333.11 202.02 332.91 Q 202.38 332.71 202.9 332.71 Q 203.42 332.71 203.8 332.9 Q 204.17 333.1 204.4 333.43 Q 204.64 333.75 204.74 334.18 Q 204.85 334.6 204.85 335.06 Q 204.85 335.49 204.75 335.91 Q 204.65 336.33 204.42 336.66 Q 204.19 336.99 203.83 337.19 Q 203.47 337.4 202.96 337.4 Q 202.46 337.4 202.1 337.21 Q 201.73 337.01 201.5 336.69 Q 201.26 336.37 201.15 335.95 Q 201.04 335.54 201.04 335.11 Z M 205.84 338.15 L 205.84 329.59 L 204.82 329.59 L 204.82 332.78 L 204.79 332.78 Q 204.62 332.5 204.38 332.32 Q 204.13 332.13 203.86 332.02 Q 203.58 331.9 203.3 331.85 Q 203.03 331.81 202.79 331.81 Q 202.08 331.81 201.55 332.06 Q 201.01 332.32 200.66 332.76 Q 200.3 333.2 200.13 333.79 Q 199.96 334.37 199.96 335.03 Q 199.96 335.69 200.14 336.28 Q 200.32 336.87 200.67 337.31 Q 201.02 337.76 201.56 338.02 Q 202.09 338.29 202.81 338.29 Q 203.46 338.29 204 338.06 Q 204.54 337.83 204.79 337.31 L 204.82 337.31 L 204.82 338.15 Z M 211.96 334.46 L 208.4 334.46 Q 208.42 334.1 208.55 333.78 Q 208.69 333.46 208.91 333.22 Q 209.14 332.98 209.46 332.84 Q 209.78 332.71 210.17 332.71 Q 210.56 332.71 210.88 332.84 Q 211.19 332.98 211.43 333.22 Q 211.66 333.45 211.8 333.77 Q 211.94 334.1 211.96 334.46 Z M 212.95 336.19 L 211.94 336.19 Q 211.81 336.8 211.39 337.1 Q 210.98 337.4 210.33 337.4 Q 209.83 337.4 209.45 337.23 Q 209.08 337.06 208.84 336.78 Q 208.6 336.5 208.49 336.13 Q 208.39 335.77 208.4 335.36 L 213.04 335.36 Q 213.07 334.79 212.94 334.17 Q 212.81 333.55 212.48 333.02 Q 212.15 332.49 211.61 332.15 Q 211.06 331.81 210.23 331.81 Q 209.6 331.81 209.06 332.05 Q 208.53 332.29 208.14 332.72 Q 207.75 333.15 207.53 333.74 Q 207.32 334.33 207.32 335.03 Q 207.34 335.74 207.53 336.34 Q 207.71 336.94 208.09 337.37 Q 208.46 337.81 209 338.05 Q 209.55 338.29 210.29 338.29 Q 211.35 338.29 212.05 337.76 Q 212.74 337.23 212.95 336.19 Z M 214.5 331.95 L 214.5 338.15 L 215.52 338.15 L 215.52 334.29 Q 215.52 334.11 215.61 333.84 Q 215.7 333.57 215.89 333.32 Q 216.09 333.07 216.41 332.89 Q 216.73 332.71 217.17 332.71 Q 217.52 332.71 217.74 332.81 Q 217.96 332.91 218.1 333.1 Q 218.23 333.28 218.28 333.53 Q 218.34 333.79 218.34 334.09 L 218.34 338.15 L 219.36 338.15 L 219.36 334.29 Q 219.36 333.57 219.79 333.14 Q 220.22 332.71 220.98 332.71 Q 221.35 332.71 221.58 332.81 Q 221.82 332.92 221.95 333.11 Q 222.08 333.29 222.13 333.55 Q 222.18 333.8 222.18 334.09 L 222.18 338.15 L 223.2 338.15 L 223.2 333.61 Q 223.2 333.13 223.05 332.78 Q 222.9 332.44 222.63 332.23 Q 222.36 332.01 221.98 331.91 Q 221.6 331.81 221.13 331.81 Q 220.52 331.81 220.01 332.08 Q 219.5 332.36 219.19 332.86 Q 219 332.29 218.53 332.05 Q 218.06 331.81 217.48 331.81 Q 216.18 331.81 215.48 332.86 L 215.46 332.86 L 215.46 331.95 Z M 236.22 338.15 L 238.51 329.59 L 237.37 329.59 L 235.63 336.71 L 235.61 336.71 L 233.71 329.59 L 232.47 329.59 L 230.55 336.71 L 230.53 336.71 L 228.85 329.59 L 227.69 329.59 L 229.88 338.15 L 231.07 338.15 L 233.05 330.95 L 233.07 330.95 L 235.03 338.15 Z M 243.62 334.46 L 240.05 334.46 Q 240.08 334.1 240.21 333.78 Q 240.34 333.46 240.57 333.22 Q 240.8 332.98 241.11 332.84 Q 241.43 332.71 241.83 332.71 Q 242.21 332.71 242.53 332.84 Q 242.85 332.98 243.08 333.22 Q 243.32 333.45 243.45 333.77 Q 243.59 334.1 243.62 334.46 Z M 244.6 336.19 L 243.59 336.19 Q 243.46 336.8 243.05 337.1 Q 242.63 337.4 241.98 337.4 Q 241.48 337.4 241.11 337.23 Q 240.74 337.06 240.5 336.78 Q 240.26 336.5 240.15 336.13 Q 240.04 335.77 240.05 335.36 L 244.7 335.36 Q 244.72 334.79 244.59 334.17 Q 244.47 333.55 244.14 333.02 Q 243.81 332.49 243.26 332.15 Q 242.72 331.81 241.89 331.81 Q 241.25 331.81 240.72 332.05 Q 240.18 332.29 239.79 332.72 Q 239.4 333.15 239.19 333.74 Q 238.97 334.33 238.97 335.03 Q 239 335.74 239.18 336.34 Q 239.37 336.94 239.74 337.37 Q 240.11 337.81 240.66 338.05 Q 241.2 338.29 241.95 338.29 Q 243 338.29 243.7 337.76 Q 244.4 337.23 244.6 336.19 Z M 247.25 330.83 L 247.25 329.59 L 246.23 329.59 L 246.23 330.83 Z M 246.23 331.95 L 246.23 338.15 L 247.25 338.15 L 247.25 331.95 Z M 249.88 335.11 Q 249.88 334.65 249.98 334.22 Q 250.07 333.79 250.29 333.45 Q 250.51 333.11 250.87 332.91 Q 251.23 332.71 251.74 332.71 Q 252.27 332.71 252.64 332.9 Q 253.01 333.1 253.25 333.43 Q 253.48 333.75 253.59 334.18 Q 253.7 334.6 253.7 335.06 Q 253.7 335.49 253.6 335.91 Q 253.49 336.33 253.27 336.66 Q 253.04 336.99 252.68 337.19 Q 252.32 337.4 251.8 337.4 Q 251.31 337.4 250.94 337.21 Q 250.58 337.01 250.34 336.69 Q 250.11 336.37 250 335.95 Q 249.88 335.54 249.88 335.11 Z M 254.68 338.15 L 254.68 329.59 L 253.66 329.59 L 253.66 332.78 L 253.64 332.78 Q 253.47 332.5 253.22 332.32 Q 252.98 332.13 252.7 332.02 Q 252.43 331.9 252.15 331.85 Q 251.87 331.81 251.63 331.81 Q 250.93 331.81 250.39 332.06 Q 249.86 332.32 249.5 332.76 Q 249.15 333.2 248.98 333.79 Q 248.8 334.37 248.8 335.03 Q 248.8 335.69 248.98 336.28 Q 249.16 336.87 249.52 337.31 Q 249.87 337.76 250.4 338.02 Q 250.94 338.29 251.66 338.29 Q 252.31 338.29 252.85 338.06 Q 253.39 337.83 253.64 337.31 L 253.66 337.31 L 253.66 338.15 Z M 260.81 334.46 L 257.24 334.46 Q 257.27 334.1 257.4 333.78 Q 257.53 333.46 257.76 333.22 Q 257.99 332.98 258.31 332.84 Q 258.62 332.71 259.02 332.71 Q 259.4 332.71 259.72 332.84 Q 260.04 332.98 260.27 333.22 Q 260.51 333.45 260.65 333.77 Q 260.78 334.1 260.81 334.46 Z M 261.79 336.19 L 260.78 336.19 Q 260.65 336.8 260.24 337.1 Q 259.82 337.4 259.18 337.4 Q 258.67 337.4 258.3 337.23 Q 257.93 337.06 257.69 336.78 Q 257.45 336.5 257.34 336.13 Q 257.23 335.77 257.24 335.36 L 261.89 335.36 Q 261.91 334.79 261.79 334.17 Q 261.66 333.55 261.33 333.02 Q 261 332.49 260.45 332.15 Q 259.91 331.81 259.08 331.81 Q 258.44 331.81 257.91 332.05 Q 257.38 332.29 256.99 332.72 Q 256.6 333.15 256.38 333.74 Q 256.16 334.33 256.16 335.03 Q 256.19 335.74 256.37 336.34 Q 256.56 336.94 256.93 337.37 Q 257.3 337.81 257.85 338.05 Q 258.4 338.29 259.14 338.29 Q 260.2 338.29 260.89 337.76 Q 261.59 337.23 261.79 336.19 Z M 263.34 331.95 L 263.34 338.15 L 264.36 338.15 L 264.36 334.65 Q 264.36 334.23 264.48 333.88 Q 264.59 333.52 264.82 333.26 Q 265.05 332.99 265.39 332.85 Q 265.73 332.71 266.2 332.71 Q 266.79 332.71 267.12 333.04 Q 267.46 333.38 267.46 333.95 L 267.46 338.15 L 268.48 338.15 L 268.48 334.07 Q 268.48 333.57 268.38 333.16 Q 268.27 332.74 268.02 332.44 Q 267.77 332.14 267.36 331.97 Q 266.95 331.81 266.34 331.81 Q 264.96 331.81 264.33 332.93 L 264.3 332.93 L 264.3 331.95 Z" style="text-wrap-mode: nowrap;"/><line x1="242.959" y1="95.292" x2="349.729" y2="95.292" stroke="#ccc" stroke-dasharray="5,5" style=""/><line x1="104.613" y1="265.206" x2="349.729" y2="265.206" stroke="#ccc" stroke-dasharray="5,5" style=""/><rect x="305.908" y="118.877" width="28.272" height="20.39" fill="white" stroke="black" stroke-width="1" style="stroke-width: 1;"/><rect x="305.908" y="210.787" width="28.272" height="20.39" fill="white" stroke="black" stroke-width="1" style="stroke-width: 1;"/><rect x="305.908" y="270.506" width="28.272" height="20.39" fill="white" stroke="black" stroke-width="1" style="stroke-width: 1;"/><path d="M 26.866 298.327 C 76.866 287.938 127.261 256.613 177.961 190.635 C 228.661 124.657 251.447 73.364 271.836 54.299 C 283.206 38.892 321.506 36.821 339.932 35.482" stroke="green" stroke-width="3" fill="none" style=""/><rect x="66.96" y="255.276" width="50" height="20.39" fill="white" stroke="black" stroke-width="1"/><path d="M 79.76 268.92 L 79.76 261.83 L 79.11 261.83 Q 79.04 262.23 78.85 262.49 Q 78.66 262.75 78.39 262.9 Q 78.11 263.05 77.77 263.1 Q 77.43 263.16 77.07 263.16 L 77.07 263.84 L 78.91 263.84 L 78.91 268.92 Z M 85.6 264.85 L 85.6 262.58 L 87.5 262.58 Q 87.81 262.58 88.08 262.61 Q 88.36 262.65 88.57 262.77 Q 88.78 262.89 88.9 263.11 Q 89.02 263.33 89.02 263.71 Q 89.02 264.28 88.66 264.56 Q 88.31 264.85 87.5 264.85 Z M 84.65 261.78 L 84.65 268.92 L 88.1 268.92 Q 88.63 268.92 89.03 268.74 Q 89.44 268.57 89.71 268.28 Q 89.99 268 90.13 267.63 Q 90.27 267.26 90.27 266.87 Q 90.27 266.21 89.92 265.75 Q 89.57 265.29 88.91 265.15 L 88.91 265.13 Q 89.42 264.93 89.69 264.51 Q 89.97 264.1 89.97 263.53 Q 89.97 262.99 89.72 262.62 Q 89.48 262.25 89.13 262.04 Q 88.97 261.94 88.74 261.89 Q 88.52 261.84 88.26 261.81 Q 88 261.79 87.73 261.78 Q 87.47 261.78 87.24 261.78 Z M 85.6 268.12 L 85.6 265.65 L 87.77 265.65 Q 88.07 265.65 88.35 265.7 Q 88.63 265.76 88.84 265.89 Q 89.06 266.03 89.19 266.26 Q 89.32 266.49 89.32 266.84 Q 89.32 267.44 88.96 267.78 Q 88.61 268.12 87.98 268.12 Z M 91.25 261.78 L 91.25 268.92 L 92.1 268.92 L 92.1 261.78 Z M 98.42 268.9 Q 98.2 269.03 97.81 269.03 Q 97.48 269.03 97.28 268.84 Q 97.09 268.66 97.09 268.24 Q 96.74 268.66 96.27 268.84 Q 95.81 269.03 95.27 269.03 Q 94.92 269.03 94.6 268.95 Q 94.29 268.87 94.06 268.7 Q 93.83 268.53 93.69 268.25 Q 93.56 267.98 93.56 267.59 Q 93.56 267.15 93.71 266.87 Q 93.86 266.59 94.1 266.41 Q 94.35 266.24 94.66 266.15 Q 94.98 266.06 95.31 266 Q 95.66 265.93 95.97 265.89 Q 96.29 265.86 96.53 265.79 Q 96.77 265.73 96.91 265.6 Q 97.05 265.48 97.05 265.24 Q 97.05 264.96 96.94 264.79 Q 96.84 264.62 96.67 264.53 Q 96.51 264.44 96.3 264.41 Q 96.1 264.38 95.9 264.38 Q 95.36 264.38 95 264.58 Q 94.64 264.79 94.61 265.36 L 93.76 265.36 Q 93.78 264.88 93.96 264.55 Q 94.14 264.22 94.44 264.01 Q 94.74 263.81 95.12 263.72 Q 95.51 263.63 95.95 263.63 Q 96.3 263.63 96.64 263.68 Q 96.99 263.73 97.27 263.88 Q 97.55 264.04 97.72 264.32 Q 97.89 264.6 97.89 265.05 L 97.89 267.71 Q 97.89 268.01 97.92 268.15 Q 97.96 268.29 98.16 268.29 Q 98.27 268.29 98.42 268.24 Z M 97.04 266.25 Q 96.88 266.37 96.62 266.42 Q 96.36 266.48 96.07 266.51 Q 95.79 266.55 95.5 266.59 Q 95.21 266.64 94.98 266.74 Q 94.75 266.84 94.6 267.02 Q 94.46 267.21 94.46 267.53 Q 94.46 267.74 94.54 267.88 Q 94.63 268.03 94.76 268.12 Q 94.9 268.21 95.08 268.25 Q 95.26 268.29 95.46 268.29 Q 95.88 268.29 96.18 268.17 Q 96.48 268.06 96.67 267.88 Q 96.86 267.71 96.95 267.5 Q 97.04 267.3 97.04 267.12 Z M 100.65 263.75 L 100.65 262.2 L 99.8 262.2 L 99.8 263.75 L 98.92 263.75 L 98.92 264.5 L 99.8 264.5 L 99.8 267.79 Q 99.8 268.15 99.87 268.37 Q 99.94 268.59 100.08 268.71 Q 100.23 268.83 100.46 268.87 Q 100.7 268.92 101.03 268.92 L 101.68 268.92 L 101.68 268.17 L 101.29 268.17 Q 101.09 268.17 100.96 268.15 Q 100.84 268.14 100.77 268.09 Q 100.7 268.04 100.67 267.95 Q 100.65 267.86 100.65 267.71 L 100.65 264.5 L 101.68 264.5 L 101.68 263.75 Z M 104.39 263.75 L 104.39 262.2 L 103.54 262.2 L 103.54 263.75 L 102.66 263.75 L 102.66 264.5 L 103.54 264.5 L 103.54 267.79 Q 103.54 268.15 103.61 268.37 Q 103.68 268.59 103.83 268.71 Q 103.97 268.83 104.21 268.87 Q 104.44 268.92 104.77 268.92 L 105.42 268.92 L 105.42 268.17 L 105.03 268.17 Q 104.83 268.17 104.71 268.15 Q 104.58 268.14 104.51 268.09 Q 104.44 268.04 104.42 267.95 Q 104.39 267.86 104.39 267.71 L 104.39 264.5 L 105.42 264.5 L 105.42 263.75 Z" style="text-wrap-mode: nowrap;"/><rect x="139.254" y="186.748" width="50" height="20.39" fill="white" stroke="black" stroke-width="1"/><path d="M 149.34 195.86 L 150.19 195.86 Q 150.18 195.54 150.26 195.23 Q 150.33 194.91 150.5 194.66 Q 150.67 194.41 150.94 194.26 Q 151.2 194.1 151.57 194.1 Q 151.85 194.1 152.1 194.19 Q 152.35 194.28 152.54 194.45 Q 152.72 194.62 152.83 194.86 Q 152.94 195.09 152.94 195.38 Q 152.94 195.75 152.83 196.03 Q 152.71 196.31 152.49 196.55 Q 152.26 196.79 151.92 197.03 Q 151.58 197.26 151.13 197.54 Q 150.76 197.76 150.42 198.01 Q 150.08 198.26 149.81 198.59 Q 149.54 198.92 149.37 199.37 Q 149.19 199.81 149.14 200.44 L 153.77 200.44 L 153.77 199.69 L 150.13 199.69 Q 150.19 199.36 150.39 199.11 Q 150.58 198.85 150.86 198.63 Q 151.13 198.41 151.46 198.22 Q 151.79 198.02 152.12 197.82 Q 152.45 197.61 152.76 197.38 Q 153.07 197.15 153.31 196.87 Q 153.55 196.58 153.7 196.22 Q 153.84 195.86 153.84 195.39 Q 153.84 194.89 153.67 194.51 Q 153.49 194.13 153.19 193.88 Q 152.89 193.62 152.49 193.49 Q 152.08 193.35 151.62 193.35 Q 151.06 193.35 150.62 193.54 Q 150.18 193.73 149.89 194.07 Q 149.59 194.4 149.45 194.86 Q 149.31 195.32 149.34 195.86 Z M 159.71 196.37 L 159.71 194.1 L 161.61 194.1 Q 161.92 194.1 162.19 194.14 Q 162.47 194.17 162.68 194.29 Q 162.89 194.41 163.01 194.63 Q 163.13 194.85 163.13 195.23 Q 163.13 195.8 162.77 196.09 Q 162.42 196.37 161.61 196.37 Z M 158.76 193.3 L 158.76 200.44 L 162.21 200.44 Q 162.74 200.44 163.14 200.27 Q 163.55 200.09 163.82 199.81 Q 164.1 199.52 164.24 199.15 Q 164.38 198.78 164.38 198.39 Q 164.38 197.73 164.03 197.27 Q 163.68 196.81 163.02 196.67 L 163.02 196.65 Q 163.53 196.45 163.8 196.04 Q 164.08 195.62 164.08 195.05 Q 164.08 194.51 163.83 194.14 Q 163.59 193.77 163.24 193.56 Q 163.08 193.46 162.85 193.41 Q 162.63 193.36 162.37 193.34 Q 162.11 193.31 161.84 193.31 Q 161.58 193.3 161.35 193.3 Z M 159.71 199.64 L 159.71 197.17 L 161.88 197.17 Q 162.18 197.17 162.46 197.23 Q 162.74 197.28 162.95 197.42 Q 163.17 197.55 163.3 197.78 Q 163.43 198.01 163.43 198.36 Q 163.43 198.96 163.07 199.3 Q 162.72 199.64 162.09 199.64 Z M 165.33 193.3 L 165.33 200.44 L 166.18 200.44 L 166.18 193.3 Z M 172.51 200.42 Q 172.29 200.55 171.9 200.55 Q 171.57 200.55 171.37 200.37 Q 171.18 200.18 171.18 199.76 Q 170.83 200.18 170.36 200.37 Q 169.9 200.55 169.36 200.55 Q 169.01 200.55 168.69 200.47 Q 168.38 200.39 168.15 200.22 Q 167.92 200.05 167.78 199.78 Q 167.65 199.5 167.65 199.11 Q 167.65 198.67 167.8 198.39 Q 167.95 198.11 168.19 197.94 Q 168.44 197.76 168.75 197.67 Q 169.07 197.58 169.4 197.52 Q 169.75 197.45 170.06 197.42 Q 170.38 197.38 170.62 197.32 Q 170.86 197.25 171 197.13 Q 171.14 197 171.14 196.76 Q 171.14 196.48 171.03 196.31 Q 170.93 196.14 170.76 196.05 Q 170.6 195.96 170.39 195.93 Q 170.19 195.9 169.99 195.9 Q 169.45 195.9 169.09 196.11 Q 168.73 196.31 168.7 196.88 L 167.85 196.88 Q 167.87 196.4 168.05 196.07 Q 168.23 195.74 168.53 195.54 Q 168.83 195.33 169.21 195.24 Q 169.6 195.15 170.04 195.15 Q 170.39 195.15 170.73 195.2 Q 171.08 195.25 171.36 195.41 Q 171.64 195.56 171.81 195.84 Q 171.98 196.12 171.98 196.57 L 171.98 199.23 Q 171.98 199.53 172.01 199.67 Q 172.05 199.81 172.25 199.81 Q 172.36 199.81 172.51 199.76 Z M 171.13 197.77 Q 170.97 197.89 170.71 197.95 Q 170.45 198 170.16 198.04 Q 169.88 198.07 169.59 198.12 Q 169.3 198.16 169.07 198.26 Q 168.84 198.36 168.69 198.55 Q 168.55 198.73 168.55 199.05 Q 168.55 199.26 168.63 199.41 Q 168.72 199.55 168.85 199.64 Q 168.99 199.73 169.17 199.77 Q 169.35 199.81 169.55 199.81 Q 169.97 199.81 170.27 199.7 Q 170.57 199.58 170.76 199.41 Q 170.95 199.23 171.04 199.03 Q 171.13 198.82 171.13 198.64 Z M 174.73 195.27 L 174.73 193.72 L 173.88 193.72 L 173.88 195.27 L 173 195.27 L 173 196.02 L 173.88 196.02 L 173.88 199.31 Q 173.88 199.67 173.95 199.89 Q 174.02 200.11 174.17 200.23 Q 174.31 200.35 174.55 200.4 Q 174.78 200.44 175.11 200.44 L 175.76 200.44 L 175.76 199.69 L 175.37 199.69 Q 175.17 199.69 175.05 199.68 Q 174.92 199.66 174.85 199.61 Q 174.78 199.56 174.76 199.47 Q 174.73 199.38 174.73 199.23 L 174.73 196.02 L 175.76 196.02 L 175.76 195.27 Z M 178.48 195.27 L 178.48 193.72 L 177.63 193.72 L 177.63 195.27 L 176.75 195.27 L 176.75 196.02 L 177.63 196.02 L 177.63 199.31 Q 177.63 199.67 177.7 199.89 Q 177.77 200.11 177.92 200.23 Q 178.06 200.35 178.3 200.4 Q 178.53 200.44 178.86 200.44 L 179.51 200.44 L 179.51 199.69 L 179.12 199.69 Q 178.92 199.69 178.8 199.68 Q 178.67 199.66 178.6 199.61 Q 178.53 199.56 178.51 199.47 Q 178.48 199.38 178.48 199.23 L 178.48 196.02 L 179.51 196.02 L 179.51 195.27 Z" style="text-wrap-mode: nowrap;"/><rect x="209.011" y="83.428" width="50" height="20.39" fill="white" stroke="black" stroke-width="1"/><path d="M 221.81 92.94 L 221.81 93.66 Q 222.05 93.63 222.32 93.63 Q 222.64 93.63 222.92 93.71 Q 223.19 93.8 223.39 93.97 Q 223.59 94.15 223.71 94.4 Q 223.83 94.66 223.83 94.99 Q 223.83 95.31 223.71 95.56 Q 223.58 95.82 223.37 95.99 Q 223.16 96.17 222.88 96.26 Q 222.6 96.36 222.29 96.36 Q 221.56 96.36 221.18 95.92 Q 220.8 95.49 220.78 94.8 L 219.93 94.8 Q 219.92 95.35 220.09 95.78 Q 220.25 96.21 220.56 96.5 Q 220.87 96.8 221.31 96.95 Q 221.75 97.1 222.29 97.1 Q 222.79 97.1 223.24 96.96 Q 223.68 96.83 224.01 96.56 Q 224.34 96.29 224.54 95.88 Q 224.73 95.48 224.73 94.95 Q 224.73 94.31 224.42 93.84 Q 224.1 93.37 223.45 93.23 L 223.45 93.21 Q 223.87 93.02 224.15 92.65 Q 224.43 92.28 224.43 91.8 Q 224.43 91.31 224.27 90.95 Q 224.1 90.59 223.81 90.36 Q 223.52 90.13 223.13 90.01 Q 222.73 89.9 222.27 89.9 Q 221.74 89.9 221.34 90.07 Q 220.93 90.24 220.66 90.54 Q 220.39 90.84 220.25 91.26 Q 220.1 91.68 220.08 92.19 L 220.93 92.19 Q 220.93 91.88 221.01 91.6 Q 221.09 91.32 221.26 91.11 Q 221.42 90.9 221.68 90.77 Q 221.93 90.65 222.27 90.65 Q 222.81 90.65 223.17 90.93 Q 223.53 91.22 223.53 91.79 Q 223.53 92.07 223.42 92.29 Q 223.31 92.51 223.13 92.65 Q 222.94 92.8 222.7 92.87 Q 222.45 92.95 222.18 92.95 L 222 92.95 Q 221.95 92.95 221.9 92.95 Q 221.86 92.95 221.81 92.94 Z M 230.65 92.92 L 230.65 90.65 L 232.55 90.65 Q 232.86 90.65 233.14 90.68 Q 233.41 90.72 233.62 90.84 Q 233.83 90.96 233.95 91.18 Q 234.07 91.4 234.07 91.78 Q 234.07 92.35 233.72 92.63 Q 233.36 92.92 232.55 92.92 Z M 229.7 89.85 L 229.7 96.99 L 233.15 96.99 Q 233.68 96.99 234.09 96.81 Q 234.49 96.64 234.77 96.35 Q 235.04 96.07 235.18 95.7 Q 235.32 95.33 235.32 94.94 Q 235.32 94.28 234.97 93.82 Q 234.62 93.36 233.96 93.22 L 233.96 93.2 Q 234.47 93 234.75 92.58 Q 235.02 92.17 235.02 91.6 Q 235.02 91.06 234.78 90.69 Q 234.53 90.32 234.18 90.11 Q 234.02 90.01 233.8 89.96 Q 233.57 89.91 233.31 89.88 Q 233.05 89.86 232.79 89.85 Q 232.52 89.85 232.29 89.85 Z M 230.65 96.19 L 230.65 93.72 L 232.82 93.72 Q 233.12 93.72 233.4 93.77 Q 233.68 93.83 233.9 93.96 Q 234.11 94.1 234.24 94.33 Q 234.37 94.56 234.37 94.91 Q 234.37 95.51 234.02 95.85 Q 233.66 96.19 233.03 96.19 Z M 236.3 89.85 L 236.3 96.99 L 237.15 96.99 L 237.15 89.85 Z M 243.47 96.97 Q 243.25 97.1 242.86 97.1 Q 242.53 97.1 242.34 96.91 Q 242.14 96.73 242.14 96.31 Q 241.79 96.73 241.33 96.91 Q 240.86 97.1 240.32 97.1 Q 239.97 97.1 239.66 97.02 Q 239.34 96.94 239.11 96.77 Q 238.88 96.6 238.75 96.32 Q 238.61 96.05 238.61 95.66 Q 238.61 95.22 238.76 94.94 Q 238.91 94.66 239.16 94.48 Q 239.4 94.31 239.72 94.22 Q 240.03 94.13 240.36 94.07 Q 240.71 94 241.03 93.96 Q 241.34 93.93 241.58 93.86 Q 241.82 93.8 241.96 93.67 Q 242.1 93.55 242.1 93.31 Q 242.1 93.03 242 92.86 Q 241.89 92.69 241.73 92.6 Q 241.56 92.51 241.36 92.48 Q 241.15 92.45 240.95 92.45 Q 240.41 92.45 240.05 92.65 Q 239.69 92.86 239.66 93.43 L 238.81 93.43 Q 238.83 92.95 239.01 92.62 Q 239.19 92.29 239.49 92.08 Q 239.79 91.88 240.18 91.79 Q 240.56 91.7 241 91.7 Q 241.35 91.7 241.7 91.75 Q 242.04 91.8 242.32 91.95 Q 242.6 92.11 242.77 92.39 Q 242.94 92.67 242.94 93.12 L 242.94 95.78 Q 242.94 96.08 242.98 96.22 Q 243.01 96.36 243.21 96.36 Q 243.32 96.36 243.47 96.31 Z M 242.09 94.32 Q 241.93 94.44 241.67 94.49 Q 241.41 94.55 241.13 94.58 Q 240.84 94.62 240.55 94.66 Q 240.26 94.71 240.03 94.81 Q 239.8 94.91 239.66 95.09 Q 239.51 95.28 239.51 95.6 Q 239.51 95.81 239.6 95.95 Q 239.68 96.1 239.82 96.19 Q 239.95 96.28 240.13 96.32 Q 240.31 96.36 240.51 96.36 Q 240.93 96.36 241.23 96.24 Q 241.53 96.13 241.72 95.95 Q 241.91 95.78 242 95.57 Q 242.09 95.37 242.09 95.19 Z M 245.7 91.82 L 245.7 90.27 L 244.85 90.27 L 244.85 91.82 L 243.97 91.82 L 243.97 92.57 L 244.85 92.57 L 244.85 95.86 Q 244.85 96.22 244.92 96.44 Q 244.99 96.66 245.14 96.78 Q 245.28 96.9 245.52 96.94 Q 245.75 96.99 246.08 96.99 L 246.73 96.99 L 246.73 96.24 L 246.34 96.24 Q 246.14 96.24 246.02 96.22 Q 245.89 96.21 245.82 96.16 Q 245.75 96.11 245.73 96.02 Q 245.7 95.93 245.7 95.78 L 245.7 92.57 L 246.73 92.57 L 246.73 91.82 Z M 249.45 91.82 L 249.45 90.27 L 248.6 90.27 L 248.6 91.82 L 247.72 91.82 L 247.72 92.57 L 248.6 92.57 L 248.6 95.86 Q 248.6 96.22 248.67 96.44 Q 248.74 96.66 248.88 96.78 Q 249.03 96.9 249.26 96.94 Q 249.5 96.99 249.83 96.99 L 250.48 96.99 L 250.48 96.24 L 250.09 96.24 Q 249.89 96.24 249.76 96.22 Q 249.64 96.21 249.57 96.16 Q 249.5 96.11 249.47 96.02 Q 249.45 95.93 249.45 95.78 L 249.45 92.57 L 250.48 92.57 L 250.48 91.82 Z" style="text-wrap-mode: nowrap;"/><path d="M 263.92 218.19 L 263.92 217.44 L 260.42 217.44 L 259.76 221.12 L 260.49 221.16 Q 260.74 220.86 261.06 220.68 Q 261.39 220.49 261.81 220.49 Q 262.17 220.49 262.46 220.61 Q 262.76 220.73 262.97 220.95 Q 263.18 221.16 263.29 221.46 Q 263.41 221.75 263.41 222.1 Q 263.41 222.52 263.29 222.84 Q 263.17 223.15 262.96 223.36 Q 262.76 223.57 262.48 223.68 Q 262.21 223.78 261.91 223.78 Q 261.59 223.78 261.32 223.69 Q 261.06 223.59 260.86 223.42 Q 260.67 223.24 260.55 223.01 Q 260.44 222.77 260.42 222.5 L 259.57 222.5 Q 259.58 222.98 259.76 223.36 Q 259.94 223.74 260.25 224 Q 260.56 224.25 260.96 224.39 Q 261.37 224.52 261.83 224.52 Q 262.45 224.52 262.91 224.33 Q 263.38 224.13 263.69 223.8 Q 264 223.47 264.15 223.05 Q 264.31 222.62 264.31 222.17 Q 264.31 221.56 264.13 221.11 Q 263.95 220.65 263.64 220.35 Q 263.33 220.04 262.91 219.89 Q 262.49 219.74 262.02 219.74 Q 261.66 219.74 261.29 219.87 Q 260.93 219.99 260.7 220.25 L 260.68 220.23 L 261.06 218.19 Z M 266.82 220.92 Q 266.82 220.66 266.82 220.35 Q 266.83 220.03 266.87 219.72 Q 266.92 219.4 267 219.1 Q 267.09 218.8 267.25 218.58 Q 267.42 218.35 267.67 218.21 Q 267.92 218.07 268.28 218.07 Q 268.64 218.07 268.89 218.21 Q 269.14 218.35 269.3 218.58 Q 269.47 218.8 269.55 219.1 Q 269.64 219.4 269.68 219.72 Q 269.73 220.03 269.73 220.35 Q 269.74 220.66 269.74 220.92 Q 269.74 221.32 269.71 221.82 Q 269.69 222.31 269.55 222.75 Q 269.42 223.18 269.12 223.48 Q 268.82 223.78 268.28 223.78 Q 267.74 223.78 267.44 223.48 Q 267.14 223.18 267 222.75 Q 266.87 222.31 266.84 221.82 Q 266.82 221.32 266.82 220.92 Z M 265.92 220.93 Q 265.92 221.32 265.94 221.74 Q 265.96 222.16 266.04 222.56 Q 266.12 222.96 266.27 223.32 Q 266.42 223.67 266.68 223.94 Q 266.94 224.21 267.33 224.37 Q 267.73 224.52 268.28 224.52 Q 268.84 224.52 269.23 224.37 Q 269.62 224.21 269.88 223.94 Q 270.14 223.67 270.29 223.32 Q 270.44 222.96 270.52 222.56 Q 270.6 222.16 270.62 221.74 Q 270.64 221.32 270.64 220.93 Q 270.64 220.54 270.62 220.12 Q 270.6 219.7 270.52 219.3 Q 270.44 218.9 270.29 218.54 Q 270.14 218.18 269.88 217.91 Q 269.62 217.64 269.22 217.48 Q 268.83 217.32 268.28 217.32 Q 267.73 217.32 267.33 217.48 Q 266.94 217.64 266.68 217.91 Q 266.42 218.18 266.27 218.54 Q 266.12 218.9 266.04 219.3 Q 265.96 219.7 265.94 220.12 Q 265.92 220.54 265.92 220.93 Z M 273.22 220.92 Q 273.22 220.66 273.23 220.35 Q 273.23 220.03 273.28 219.72 Q 273.32 219.4 273.41 219.1 Q 273.49 218.8 273.66 218.58 Q 273.82 218.35 274.07 218.21 Q 274.32 218.07 274.68 218.07 Q 275.04 218.07 275.29 218.21 Q 275.54 218.35 275.71 218.58 Q 275.87 218.8 275.96 219.1 Q 276.04 219.4 276.09 219.72 Q 276.13 220.03 276.14 220.35 Q 276.14 220.66 276.14 220.92 Q 276.14 221.32 276.12 221.82 Q 276.09 222.31 275.96 222.75 Q 275.82 223.18 275.52 223.48 Q 275.22 223.78 274.68 223.78 Q 274.14 223.78 273.84 223.48 Q 273.54 223.18 273.41 222.75 Q 273.27 222.31 273.25 221.82 Q 273.22 221.32 273.22 220.92 Z M 272.32 220.93 Q 272.32 221.32 272.34 221.74 Q 272.36 222.16 272.44 222.56 Q 272.52 222.96 272.67 223.32 Q 272.82 223.67 273.08 223.94 Q 273.34 224.21 273.74 224.37 Q 274.13 224.52 274.68 224.52 Q 275.24 224.52 275.63 224.37 Q 276.02 224.21 276.28 223.94 Q 276.54 223.67 276.69 223.32 Q 276.84 222.96 276.92 222.56 Q 277 222.16 277.02 221.74 Q 277.04 221.32 277.04 220.93 Q 277.04 220.54 277.02 220.12 Q 277 219.7 276.92 219.3 Q 276.84 218.9 276.69 218.54 Q 276.54 218.18 276.28 217.91 Q 276.02 217.64 275.63 217.48 Q 275.23 217.32 274.68 217.32 Q 274.13 217.32 273.74 217.48 Q 273.34 217.64 273.08 217.91 Q 272.82 218.18 272.67 218.54 Q 272.52 218.9 272.44 219.3 Q 272.36 219.7 272.34 220.12 Q 272.32 220.54 272.32 220.93 Z M 279 217.27 L 279 224.41 L 279.85 224.41 L 279.85 222.45 L 280.65 221.71 L 282.42 224.41 L 283.5 224.41 L 281.3 221.12 L 283.35 219.24 L 282.21 219.24 L 279.85 221.5 L 279.85 217.27 Z M 288.72 223.97 L 288.72 219.24 L 287.92 219.24 L 287.92 219.98 L 287.91 219.98 Q 287.68 219.55 287.27 219.34 Q 286.86 219.12 286.37 219.12 Q 285.7 219.12 285.24 219.38 Q 284.78 219.63 284.5 220.03 Q 284.22 220.42 284.1 220.91 Q 283.98 221.39 283.98 221.85 Q 283.98 222.38 284.12 222.86 Q 284.27 223.33 284.56 223.69 Q 284.85 224.04 285.28 224.25 Q 285.71 224.46 286.29 224.46 Q 286.79 224.46 287.23 224.24 Q 287.68 224.01 287.9 223.53 L 287.92 223.53 L 287.92 223.87 Q 287.92 224.3 287.83 224.66 Q 287.75 225.02 287.56 225.28 Q 287.37 225.53 287.08 225.68 Q 286.79 225.82 286.37 225.82 Q 286.16 225.82 285.93 225.78 Q 285.7 225.73 285.5 225.63 Q 285.31 225.53 285.17 225.37 Q 285.04 225.21 285.03 224.98 L 284.18 224.98 Q 284.2 225.4 284.4 225.69 Q 284.6 225.98 284.9 226.16 Q 285.21 226.34 285.58 226.42 Q 285.96 226.5 286.32 226.5 Q 287.56 226.5 288.14 225.87 Q 288.72 225.24 288.72 223.97 Z M 286.34 223.72 Q 285.92 223.72 285.64 223.55 Q 285.36 223.37 285.19 223.09 Q 285.02 222.8 284.95 222.45 Q 284.88 222.1 284.88 221.75 Q 284.88 221.38 284.96 221.04 Q 285.05 220.7 285.23 220.44 Q 285.42 220.18 285.71 220.03 Q 286 219.87 286.41 219.87 Q 286.81 219.87 287.09 220.03 Q 287.37 220.19 287.54 220.46 Q 287.72 220.72 287.8 221.05 Q 287.88 221.38 287.88 221.72 Q 287.88 222.08 287.79 222.44 Q 287.71 222.8 287.53 223.09 Q 287.35 223.37 287.05 223.55 Q 286.76 223.72 286.34 223.72 Z" style="text-wrap-mode: nowrap;"/><path d="M 312.33 220.38 L 312.33 221.1 Q 312.57 221.07 312.84 221.07 Q 313.16 221.07 313.43 221.16 Q 313.71 221.24 313.91 221.42 Q 314.11 221.59 314.23 221.85 Q 314.35 222.1 314.35 222.43 Q 314.35 222.75 314.22 223.01 Q 314.1 223.26 313.89 223.44 Q 313.68 223.61 313.4 223.71 Q 313.12 223.8 312.81 223.8 Q 312.08 223.8 311.7 223.37 Q 311.32 222.93 311.3 222.24 L 310.45 222.24 Q 310.44 222.79 310.6 223.22 Q 310.77 223.65 311.08 223.95 Q 311.39 224.24 311.83 224.39 Q 312.27 224.54 312.81 224.54 Q 313.31 224.54 313.75 224.41 Q 314.2 224.27 314.53 224 Q 314.86 223.73 315.05 223.33 Q 315.25 222.92 315.25 222.39 Q 315.25 221.75 314.93 221.28 Q 314.62 220.81 313.97 220.67 L 313.97 220.65 Q 314.39 220.46 314.67 220.09 Q 314.95 219.72 314.95 219.24 Q 314.95 218.75 314.78 218.39 Q 314.62 218.03 314.33 217.8 Q 314.04 217.57 313.64 217.46 Q 313.25 217.34 312.79 217.34 Q 312.26 217.34 311.85 217.51 Q 311.45 217.68 311.18 217.98 Q 310.91 218.28 310.76 218.7 Q 310.62 219.12 310.6 219.63 L 311.45 219.63 Q 311.45 219.32 311.53 219.04 Q 311.61 218.76 311.77 218.55 Q 311.94 218.34 312.19 218.22 Q 312.45 218.09 312.79 218.09 Q 313.33 218.09 313.69 218.38 Q 314.05 218.66 314.05 219.23 Q 314.05 219.51 313.94 219.73 Q 313.83 219.95 313.64 220.1 Q 313.46 220.24 313.21 220.32 Q 312.97 220.39 312.7 220.39 L 312.52 220.39 Q 312.47 220.39 312.42 220.39 Q 312.38 220.39 312.33 220.38 Z M 318.69 220.38 L 318.69 221.1 Q 318.93 221.07 319.2 221.07 Q 319.52 221.07 319.8 221.16 Q 320.07 221.24 320.27 221.42 Q 320.47 221.59 320.59 221.85 Q 320.71 222.1 320.71 222.43 Q 320.71 222.75 320.59 223.01 Q 320.46 223.26 320.25 223.44 Q 320.04 223.61 319.76 223.71 Q 319.48 223.8 319.17 223.8 Q 318.44 223.8 318.06 223.37 Q 317.68 222.93 317.66 222.24 L 316.81 222.24 Q 316.8 222.79 316.97 223.22 Q 317.13 223.65 317.44 223.95 Q 317.75 224.24 318.19 224.39 Q 318.63 224.54 319.17 224.54 Q 319.67 224.54 320.12 224.41 Q 320.56 224.27 320.89 224 Q 321.22 223.73 321.42 223.33 Q 321.61 222.92 321.61 222.39 Q 321.61 221.75 321.3 221.28 Q 320.98 220.81 320.33 220.67 L 320.33 220.65 Q 320.75 220.46 321.03 220.09 Q 321.31 219.72 321.31 219.24 Q 321.31 218.75 321.15 218.39 Q 320.98 218.03 320.69 217.8 Q 320.4 217.57 320.01 217.46 Q 319.61 217.34 319.15 217.34 Q 318.62 217.34 318.22 217.51 Q 317.81 217.68 317.54 217.98 Q 317.27 218.28 317.13 218.7 Q 316.98 219.12 316.96 219.63 L 317.81 219.63 Q 317.81 219.32 317.89 219.04 Q 317.97 218.76 318.14 218.55 Q 318.3 218.34 318.56 218.22 Q 318.81 218.09 319.15 218.09 Q 319.69 218.09 320.05 218.38 Q 320.41 218.66 320.41 219.23 Q 320.41 219.51 320.3 219.73 Q 320.19 219.95 320.01 220.1 Q 319.82 220.24 319.58 220.32 Q 319.33 220.39 319.06 220.39 L 318.88 220.39 Q 318.83 220.39 318.78 220.39 Q 318.74 220.39 318.69 220.38 Z M 324.57 219.35 Q 324.57 219.12 324.6 218.87 Q 324.63 218.61 324.73 218.4 Q 324.82 218.18 324.99 218.04 Q 325.16 217.89 325.44 217.89 Q 325.73 217.89 325.9 218.04 Q 326.06 218.18 326.15 218.4 Q 326.24 218.61 326.27 218.87 Q 326.29 219.12 326.29 219.34 Q 326.29 219.57 326.26 219.83 Q 326.23 220.09 326.14 220.31 Q 326.04 220.52 325.87 220.66 Q 325.7 220.8 325.41 220.8 Q 325.13 220.8 324.97 220.66 Q 324.8 220.51 324.71 220.3 Q 324.62 220.08 324.6 219.83 Q 324.57 219.57 324.57 219.35 Z M 323.82 219.37 Q 323.82 219.78 323.91 220.14 Q 323.99 220.5 324.18 220.77 Q 324.37 221.04 324.68 221.2 Q 324.99 221.35 325.44 221.35 Q 325.88 221.35 326.18 221.18 Q 326.48 221.01 326.68 220.74 Q 326.87 220.46 326.96 220.1 Q 327.04 219.73 327.04 219.34 Q 327.04 218.93 326.97 218.57 Q 326.89 218.2 326.71 217.93 Q 326.52 217.66 326.22 217.5 Q 325.91 217.34 325.44 217.34 Q 324.98 217.34 324.67 217.51 Q 324.36 217.67 324.17 217.95 Q 323.98 218.23 323.9 218.6 Q 323.82 218.96 323.82 219.37 Z M 329.51 222.55 Q 329.51 222.32 329.54 222.07 Q 329.57 221.81 329.67 221.6 Q 329.76 221.38 329.93 221.24 Q 330.1 221.09 330.38 221.09 Q 330.67 221.09 330.84 221.24 Q 331 221.38 331.09 221.6 Q 331.18 221.81 331.21 222.07 Q 331.23 222.32 331.23 222.54 Q 331.23 222.77 331.2 223.03 Q 331.17 223.29 331.08 223.51 Q 330.98 223.72 330.81 223.86 Q 330.64 224 330.35 224 Q 330.07 224 329.91 223.86 Q 329.74 223.71 329.65 223.5 Q 329.56 223.28 329.54 223.03 Q 329.51 222.77 329.51 222.55 Z M 328.76 222.57 Q 328.76 222.98 328.85 223.34 Q 328.93 223.7 329.12 223.97 Q 329.31 224.23 329.62 224.39 Q 329.93 224.54 330.38 224.54 Q 330.82 224.54 331.12 224.38 Q 331.42 224.21 331.62 223.94 Q 331.81 223.66 331.9 223.3 Q 331.98 222.93 331.98 222.54 Q 331.98 222.13 331.91 221.77 Q 331.83 221.4 331.65 221.13 Q 331.46 220.86 331.16 220.7 Q 330.85 220.54 330.38 220.54 Q 329.92 220.54 329.61 220.71 Q 329.3 220.87 329.11 221.15 Q 328.92 221.43 328.84 221.8 Q 328.76 222.16 328.76 222.57 Z M 330.16 217.21 L 324.78 224.64 L 325.64 224.64 L 331.01 217.21 Z" style="text-wrap-mode: nowrap;"/><path d="M 264.35 127.34 L 264.35 126.61 L 259.76 126.61 L 259.76 127.41 L 263.48 127.41 Q 262.92 128 262.43 128.7 Q 261.95 129.4 261.58 130.18 Q 261.21 130.97 260.97 131.82 Q 260.74 132.68 260.68 133.58 L 261.63 133.58 Q 261.68 132.75 261.91 131.87 Q 262.14 130.99 262.5 130.16 Q 262.87 129.33 263.34 128.6 Q 263.81 127.87 264.35 127.34 Z M 269.65 127.36 L 269.65 126.61 L 266.15 126.61 L 265.49 130.29 L 266.22 130.33 Q 266.47 130.03 266.8 129.84 Q 267.12 129.66 267.54 129.66 Q 267.9 129.66 268.2 129.78 Q 268.49 129.9 268.7 130.11 Q 268.91 130.33 269.03 130.62 Q 269.14 130.92 269.14 131.27 Q 269.14 131.69 269.02 132 Q 268.9 132.32 268.7 132.53 Q 268.49 132.74 268.22 132.84 Q 267.94 132.95 267.64 132.95 Q 267.32 132.95 267.06 132.85 Q 266.79 132.76 266.6 132.58 Q 266.4 132.41 266.29 132.17 Q 266.17 131.94 266.15 131.67 L 265.3 131.67 Q 265.31 132.15 265.49 132.53 Q 265.67 132.91 265.98 133.16 Q 266.29 133.42 266.7 133.55 Q 267.1 133.69 267.56 133.69 Q 268.18 133.69 268.65 133.49 Q 269.11 133.3 269.42 132.97 Q 269.73 132.64 269.89 132.21 Q 270.04 131.79 270.04 131.34 Q 270.04 130.73 269.86 130.27 Q 269.68 129.82 269.37 129.51 Q 269.06 129.21 268.64 129.06 Q 268.22 128.91 267.75 128.91 Q 267.39 128.91 267.03 129.03 Q 266.66 129.16 266.43 129.42 L 266.41 129.4 L 266.79 127.36 Z M 272.57 130.09 Q 272.57 129.83 272.58 129.51 Q 272.58 129.2 272.63 128.88 Q 272.67 128.57 272.76 128.27 Q 272.84 127.97 273.01 127.74 Q 273.17 127.52 273.42 127.38 Q 273.67 127.24 274.03 127.24 Q 274.39 127.24 274.64 127.38 Q 274.89 127.52 275.06 127.74 Q 275.22 127.97 275.31 128.27 Q 275.39 128.57 275.44 128.88 Q 275.48 129.2 275.49 129.51 Q 275.49 129.83 275.49 130.09 Q 275.49 130.49 275.47 130.98 Q 275.44 131.48 275.31 131.91 Q 275.17 132.35 274.87 132.65 Q 274.57 132.95 274.03 132.95 Q 273.49 132.95 273.19 132.65 Q 272.89 132.35 272.76 131.91 Q 272.62 131.48 272.6 130.98 Q 272.57 130.49 272.57 130.09 Z M 271.67 130.1 Q 271.67 130.49 271.69 130.91 Q 271.71 131.33 271.79 131.73 Q 271.87 132.13 272.02 132.48 Q 272.17 132.84 272.43 133.11 Q 272.69 133.38 273.09 133.53 Q 273.48 133.69 274.03 133.69 Q 274.59 133.69 274.98 133.53 Q 275.37 133.38 275.63 133.11 Q 275.89 132.84 276.04 132.48 Q 276.19 132.13 276.27 131.73 Q 276.35 131.33 276.37 130.91 Q 276.39 130.49 276.39 130.1 Q 276.39 129.71 276.37 129.29 Q 276.35 128.87 276.27 128.47 Q 276.19 128.07 276.04 127.71 Q 275.89 127.35 275.63 127.08 Q 275.37 126.81 274.98 126.65 Q 274.58 126.49 274.03 126.49 Q 273.48 126.49 273.09 126.65 Q 272.69 126.81 272.43 127.08 Q 272.17 127.35 272.02 127.71 Q 271.87 128.07 271.79 128.47 Q 271.71 128.87 271.69 129.29 Q 271.67 129.71 271.67 130.1 Z M 278.35 126.44 L 278.35 133.58 L 279.2 133.58 L 279.2 131.62 L 280 130.88 L 281.77 133.58 L 282.85 133.58 L 280.65 130.29 L 282.7 128.41 L 281.56 128.41 L 279.2 130.67 L 279.2 126.44 Z M 288.07 133.14 L 288.07 128.41 L 287.27 128.41 L 287.27 129.15 L 287.26 129.15 Q 287.03 128.72 286.62 128.5 Q 286.21 128.29 285.72 128.29 Q 285.05 128.29 284.59 128.54 Q 284.13 128.8 283.85 129.19 Q 283.57 129.59 283.45 130.07 Q 283.33 130.56 283.33 131.02 Q 283.33 131.55 283.47 132.02 Q 283.62 132.5 283.91 132.85 Q 284.2 133.21 284.63 133.42 Q 285.06 133.63 285.64 133.63 Q 286.14 133.63 286.58 133.4 Q 287.03 133.18 287.25 132.7 L 287.27 132.7 L 287.27 133.04 Q 287.27 133.47 287.18 133.83 Q 287.1 134.19 286.91 134.44 Q 286.72 134.7 286.43 134.84 Q 286.14 134.99 285.72 134.99 Q 285.51 134.99 285.28 134.94 Q 285.05 134.9 284.85 134.8 Q 284.66 134.7 284.52 134.54 Q 284.39 134.38 284.38 134.15 L 283.53 134.15 Q 283.55 134.57 283.75 134.86 Q 283.95 135.15 284.25 135.33 Q 284.56 135.51 284.93 135.59 Q 285.31 135.67 285.67 135.67 Q 286.91 135.67 287.49 135.04 Q 288.07 134.41 288.07 133.14 Z M 285.69 132.89 Q 285.27 132.89 284.99 132.71 Q 284.71 132.54 284.54 132.25 Q 284.37 131.97 284.3 131.62 Q 284.23 131.27 284.23 130.92 Q 284.23 130.55 284.31 130.21 Q 284.4 129.87 284.58 129.61 Q 284.77 129.35 285.06 129.19 Q 285.35 129.04 285.76 129.04 Q 286.16 129.04 286.44 129.2 Q 286.72 129.36 286.89 129.62 Q 287.07 129.89 287.15 130.22 Q 287.23 130.55 287.23 130.89 Q 287.23 131.25 287.14 131.61 Q 287.06 131.97 286.88 132.25 Q 286.7 132.54 286.4 132.71 Q 286.11 132.89 285.69 132.89 Z" style="text-wrap-mode: nowrap;"/><path d="M 314.85 127.36 L 314.85 126.61 L 311.35 126.61 L 310.69 130.29 L 311.42 130.33 Q 311.67 130.03 311.99 129.84 Q 312.32 129.66 312.74 129.66 Q 313.1 129.66 313.39 129.78 Q 313.69 129.9 313.9 130.11 Q 314.11 130.33 314.22 130.62 Q 314.34 130.92 314.34 131.27 Q 314.34 131.69 314.22 132 Q 314.1 132.32 313.89 132.53 Q 313.69 132.74 313.41 132.84 Q 313.14 132.95 312.84 132.95 Q 312.52 132.95 312.25 132.85 Q 311.99 132.76 311.79 132.58 Q 311.6 132.41 311.48 132.17 Q 311.37 131.94 311.35 131.67 L 310.5 131.67 Q 310.51 132.15 310.69 132.53 Q 310.87 132.91 311.18 133.16 Q 311.49 133.42 311.89 133.55 Q 312.3 133.69 312.76 133.69 Q 313.38 133.69 313.84 133.49 Q 314.31 133.3 314.62 132.97 Q 314.93 132.64 315.08 132.21 Q 315.24 131.79 315.24 131.34 Q 315.24 130.73 315.06 130.27 Q 314.88 129.82 314.57 129.51 Q 314.26 129.21 313.84 129.06 Q 313.42 128.91 312.95 128.91 Q 312.59 128.91 312.22 129.03 Q 311.86 129.16 311.63 129.42 L 311.61 129.4 L 311.99 127.36 Z M 317.75 130.09 Q 317.75 129.83 317.75 129.51 Q 317.76 129.2 317.8 128.88 Q 317.85 128.57 317.93 128.27 Q 318.02 127.97 318.18 127.74 Q 318.35 127.52 318.6 127.38 Q 318.85 127.24 319.21 127.24 Q 319.57 127.24 319.82 127.38 Q 320.07 127.52 320.23 127.74 Q 320.4 127.97 320.48 128.27 Q 320.57 128.57 320.61 128.88 Q 320.66 129.2 320.66 129.51 Q 320.67 129.83 320.67 130.09 Q 320.67 130.49 320.64 130.98 Q 320.62 131.48 320.48 131.91 Q 320.35 132.35 320.05 132.65 Q 319.75 132.95 319.21 132.95 Q 318.67 132.95 318.37 132.65 Q 318.07 132.35 317.93 131.91 Q 317.8 131.48 317.77 130.98 Q 317.75 130.49 317.75 130.09 Z M 316.85 130.1 Q 316.85 130.49 316.87 130.91 Q 316.89 131.33 316.97 131.73 Q 317.05 132.13 317.2 132.48 Q 317.35 132.84 317.61 133.11 Q 317.87 133.38 318.26 133.53 Q 318.66 133.69 319.21 133.69 Q 319.77 133.69 320.16 133.53 Q 320.55 133.38 320.81 133.11 Q 321.07 132.84 321.22 132.48 Q 321.37 132.13 321.45 131.73 Q 321.53 131.33 321.55 130.91 Q 321.57 130.49 321.57 130.1 Q 321.57 129.71 321.55 129.29 Q 321.53 128.87 321.45 128.47 Q 321.37 128.07 321.22 127.71 Q 321.07 127.35 320.81 127.08 Q 320.55 126.81 320.15 126.65 Q 319.76 126.49 319.21 126.49 Q 318.66 126.49 318.26 126.65 Q 317.87 126.81 317.61 127.08 Q 317.35 127.35 317.2 127.71 Q 317.05 128.07 316.97 128.47 Q 316.89 128.87 316.87 129.29 Q 316.85 129.71 316.85 130.1 Z M 324.51 128.5 Q 324.51 128.27 324.54 128.01 Q 324.57 127.76 324.66 127.54 Q 324.76 127.33 324.93 127.18 Q 325.1 127.04 325.38 127.04 Q 325.67 127.04 325.83 127.18 Q 326 127.33 326.09 127.54 Q 326.18 127.76 326.2 128.01 Q 326.23 128.27 326.23 128.49 Q 326.23 128.72 326.2 128.98 Q 326.17 129.24 326.07 129.45 Q 325.98 129.67 325.81 129.81 Q 325.64 129.95 325.35 129.95 Q 325.07 129.95 324.9 129.8 Q 324.74 129.66 324.65 129.44 Q 324.56 129.23 324.53 128.97 Q 324.51 128.72 324.51 128.5 Z M 323.76 128.52 Q 323.76 128.93 323.84 129.29 Q 323.93 129.65 324.12 129.92 Q 324.31 130.19 324.62 130.34 Q 324.93 130.5 325.38 130.5 Q 325.82 130.5 326.12 130.33 Q 326.42 130.16 326.61 129.88 Q 326.81 129.61 326.89 129.24 Q 326.98 128.88 326.98 128.49 Q 326.98 128.08 326.9 127.71 Q 326.83 127.35 326.64 127.08 Q 326.46 126.81 326.15 126.65 Q 325.85 126.49 325.38 126.49 Q 324.92 126.49 324.61 126.65 Q 324.3 126.82 324.11 127.1 Q 323.92 127.38 323.84 127.74 Q 323.76 128.11 323.76 128.52 Z M 329.45 131.7 Q 329.45 131.47 329.48 131.21 Q 329.51 130.96 329.6 130.74 Q 329.7 130.53 329.87 130.38 Q 330.04 130.24 330.32 130.24 Q 330.61 130.24 330.77 130.38 Q 330.94 130.53 331.03 130.74 Q 331.12 130.96 331.14 131.21 Q 331.17 131.47 331.17 131.69 Q 331.17 131.92 331.14 132.18 Q 331.11 132.44 331.01 132.65 Q 330.92 132.87 330.75 133.01 Q 330.58 133.15 330.29 133.15 Q 330.01 133.15 329.84 133 Q 329.68 132.86 329.59 132.64 Q 329.5 132.43 329.47 132.17 Q 329.45 131.92 329.45 131.7 Z M 328.7 131.72 Q 328.7 132.13 328.78 132.49 Q 328.87 132.85 329.06 133.11 Q 329.25 133.38 329.56 133.53 Q 329.87 133.69 330.32 133.69 Q 330.76 133.69 331.06 133.52 Q 331.36 133.36 331.55 133.08 Q 331.75 132.81 331.83 132.44 Q 331.92 132.08 331.92 131.69 Q 331.92 131.28 331.84 130.91 Q 331.77 130.55 331.58 130.28 Q 331.4 130.01 331.09 129.85 Q 330.79 129.69 330.32 129.69 Q 329.86 129.69 329.55 129.85 Q 329.24 130.02 329.05 130.3 Q 328.86 130.58 328.78 130.94 Q 328.7 131.31 328.7 131.72 Z M 330.1 126.36 L 324.72 133.79 L 325.58 133.79 L 330.95 126.36 Z" style="text-wrap-mode: nowrap;"/><path d="M 259.7 279.88 L 260.55 279.88 Q 260.54 279.56 260.61 279.25 Q 260.69 278.93 260.86 278.68 Q 261.03 278.43 261.29 278.28 Q 261.56 278.12 261.93 278.12 Q 262.21 278.12 262.46 278.21 Q 262.71 278.3 262.89 278.47 Q 263.08 278.64 263.19 278.88 Q 263.3 279.11 263.3 279.4 Q 263.3 279.77 263.18 280.05 Q 263.07 280.33 262.84 280.57 Q 262.62 280.81 262.28 281.05 Q 261.94 281.28 261.49 281.56 Q 261.12 281.78 260.78 282.03 Q 260.44 282.28 260.17 282.61 Q 259.9 282.94 259.72 283.39 Q 259.55 283.83 259.5 284.46 L 264.13 284.46 L 264.13 283.71 L 260.49 283.71 Q 260.55 283.38 260.74 283.13 Q 260.94 282.87 261.21 282.65 Q 261.49 282.43 261.82 282.24 Q 262.15 282.04 262.48 281.84 Q 262.81 281.63 263.12 281.4 Q 263.43 281.17 263.67 280.89 Q 263.91 280.6 264.05 280.24 Q 264.2 279.88 264.2 279.41 Q 264.2 278.91 264.02 278.53 Q 263.85 278.15 263.55 277.9 Q 263.25 277.64 262.84 277.51 Q 262.44 277.37 261.98 277.37 Q 261.42 277.37 260.98 277.56 Q 260.54 277.75 260.24 278.09 Q 259.95 278.42 259.81 278.88 Q 259.67 279.34 259.7 279.88 Z M 270.09 278.24 L 270.09 277.49 L 266.59 277.49 L 265.93 281.17 L 266.66 281.21 Q 266.91 280.91 267.23 280.73 Q 267.56 280.54 267.98 280.54 Q 268.34 280.54 268.63 280.66 Q 268.93 280.78 269.14 281 Q 269.35 281.21 269.46 281.51 Q 269.58 281.8 269.58 282.15 Q 269.58 282.57 269.46 282.89 Q 269.34 283.2 269.13 283.41 Q 268.93 283.62 268.65 283.73 Q 268.38 283.83 268.08 283.83 Q 267.76 283.83 267.49 283.74 Q 267.23 283.64 267.03 283.47 Q 266.84 283.29 266.72 283.06 Q 266.61 282.82 266.59 282.55 L 265.74 282.55 Q 265.75 283.03 265.93 283.41 Q 266.11 283.79 266.42 284.05 Q 266.73 284.3 267.13 284.44 Q 267.54 284.57 268 284.57 Q 268.62 284.57 269.08 284.38 Q 269.55 284.18 269.86 283.85 Q 270.17 283.52 270.32 283.1 Q 270.48 282.67 270.48 282.22 Q 270.48 281.61 270.3 281.16 Q 270.12 280.7 269.81 280.4 Q 269.5 280.09 269.08 279.94 Q 268.66 279.79 268.19 279.79 Q 267.83 279.79 267.46 279.92 Q 267.1 280.04 266.87 280.3 L 266.85 280.28 L 267.23 278.24 Z M 273.01 280.97 Q 273.01 280.71 273.01 280.4 Q 273.02 280.08 273.06 279.77 Q 273.11 279.45 273.19 279.15 Q 273.28 278.85 273.44 278.63 Q 273.61 278.4 273.86 278.26 Q 274.11 278.12 274.47 278.12 Q 274.83 278.12 275.08 278.26 Q 275.33 278.4 275.49 278.63 Q 275.66 278.85 275.74 279.15 Q 275.83 279.45 275.87 279.77 Q 275.92 280.08 275.92 280.4 Q 275.93 280.71 275.93 280.97 Q 275.93 281.37 275.9 281.87 Q 275.88 282.36 275.74 282.8 Q 275.61 283.23 275.31 283.53 Q 275.01 283.83 274.47 283.83 Q 273.93 283.83 273.63 283.53 Q 273.33 283.23 273.19 282.8 Q 273.06 282.36 273.03 281.87 Q 273.01 281.37 273.01 280.97 Z M 272.11 280.98 Q 272.11 281.37 272.13 281.79 Q 272.15 282.21 272.23 282.61 Q 272.31 283.01 272.46 283.37 Q 272.61 283.72 272.87 283.99 Q 273.13 284.26 273.52 284.42 Q 273.92 284.57 274.47 284.57 Q 275.03 284.57 275.42 284.42 Q 275.81 284.26 276.07 283.99 Q 276.33 283.72 276.48 283.37 Q 276.63 283.01 276.71 282.61 Q 276.79 282.21 276.81 281.79 Q 276.83 281.37 276.83 280.98 Q 276.83 280.59 276.81 280.17 Q 276.79 279.75 276.71 279.35 Q 276.63 278.95 276.48 278.59 Q 276.33 278.23 276.07 277.96 Q 275.81 277.69 275.41 277.53 Q 275.02 277.37 274.47 277.37 Q 273.92 277.37 273.52 277.53 Q 273.13 277.69 272.87 277.96 Q 272.61 278.23 272.46 278.59 Q 272.31 278.95 272.23 279.35 Q 272.15 279.75 272.13 280.17 Q 272.11 280.59 272.11 280.98 Z M 278.79 277.32 L 278.79 284.46 L 279.64 284.46 L 279.64 282.5 L 280.44 281.76 L 282.21 284.46 L 283.29 284.46 L 281.09 281.17 L 283.14 279.29 L 282 279.29 L 279.64 281.55 L 279.64 277.32 Z M 288.5 284.02 L 288.5 279.29 L 287.7 279.29 L 287.7 280.03 L 287.69 280.03 Q 287.46 279.6 287.05 279.39 Q 286.64 279.17 286.15 279.17 Q 285.48 279.17 285.02 279.43 Q 284.56 279.68 284.28 280.08 Q 284 280.47 283.88 280.96 Q 283.76 281.44 283.76 281.9 Q 283.76 282.43 283.91 282.91 Q 284.05 283.38 284.34 283.74 Q 284.63 284.09 285.06 284.3 Q 285.49 284.51 286.07 284.51 Q 286.57 284.51 287.02 284.29 Q 287.46 284.06 287.68 283.58 L 287.7 283.58 L 287.7 283.92 Q 287.7 284.35 287.62 284.71 Q 287.53 285.07 287.34 285.33 Q 287.15 285.58 286.86 285.73 Q 286.57 285.87 286.15 285.87 Q 285.94 285.87 285.71 285.83 Q 285.48 285.78 285.29 285.68 Q 285.09 285.58 284.96 285.42 Q 284.82 285.26 284.81 285.03 L 283.96 285.03 Q 283.98 285.45 284.18 285.74 Q 284.38 286.03 284.69 286.21 Q 284.99 286.39 285.37 286.47 Q 285.74 286.55 286.1 286.55 Q 287.34 286.55 287.92 285.92 Q 288.5 285.29 288.5 284.02 Z M 286.12 283.77 Q 285.7 283.77 285.42 283.6 Q 285.14 283.42 284.97 283.14 Q 284.8 282.85 284.73 282.5 Q 284.66 282.15 284.66 281.8 Q 284.66 281.43 284.75 281.09 Q 284.83 280.75 285.02 280.49 Q 285.2 280.23 285.49 280.08 Q 285.78 279.92 286.19 279.92 Q 286.59 279.92 286.87 280.08 Q 287.15 280.24 287.33 280.51 Q 287.5 280.77 287.58 281.1 Q 287.66 281.43 287.66 281.77 Q 287.66 282.13 287.58 282.49 Q 287.49 282.85 287.31 283.14 Q 287.13 283.42 286.84 283.6 Q 286.54 283.77 286.12 283.77 Z" style="text-wrap-mode: nowrap;"/><path d="M 313.71 284.46 L 313.71 277.37 L 313.06 277.37 Q 312.99 277.77 312.8 278.03 Q 312.61 278.29 312.33 278.44 Q 312.06 278.59 311.72 278.65 Q 311.38 278.7 311.02 278.7 L 311.02 279.38 L 312.86 279.38 L 312.86 284.46 Z M 319.98 278.22 L 319.98 277.49 L 315.39 277.49 L 315.39 278.29 L 319.11 278.29 Q 318.55 278.88 318.07 279.58 Q 317.58 280.28 317.21 281.07 Q 316.84 281.85 316.61 282.71 Q 316.37 283.56 316.31 284.46 L 317.26 284.46 Q 317.31 283.63 317.54 282.75 Q 317.77 281.87 318.14 281.04 Q 318.5 280.21 318.97 279.48 Q 319.44 278.75 319.98 278.22 Z M 322.36 279.38 Q 322.36 279.15 322.39 278.9 Q 322.42 278.64 322.52 278.43 Q 322.61 278.21 322.78 278.07 Q 322.95 277.92 323.23 277.92 Q 323.52 277.92 323.69 278.07 Q 323.85 278.21 323.94 278.43 Q 324.03 278.64 324.06 278.9 Q 324.08 279.15 324.08 279.37 Q 324.08 279.6 324.05 279.86 Q 324.02 280.12 323.93 280.34 Q 323.83 280.55 323.66 280.69 Q 323.49 280.83 323.2 280.83 Q 322.92 280.83 322.76 280.69 Q 322.59 280.54 322.5 280.33 Q 322.41 280.11 322.39 279.86 Q 322.36 279.6 322.36 279.38 Z M 321.61 279.4 Q 321.61 279.81 321.7 280.17 Q 321.78 280.53 321.97 280.8 Q 322.16 281.07 322.47 281.23 Q 322.78 281.38 323.23 281.38 Q 323.67 281.38 323.97 281.21 Q 324.27 281.04 324.47 280.77 Q 324.66 280.49 324.75 280.13 Q 324.83 279.76 324.83 279.37 Q 324.83 278.96 324.76 278.6 Q 324.68 278.23 324.5 277.96 Q 324.31 277.69 324.01 277.53 Q 323.7 277.37 323.23 277.37 Q 322.77 277.37 322.46 277.54 Q 322.15 277.7 321.96 277.98 Q 321.77 278.26 321.69 278.63 Q 321.61 278.99 321.61 279.4 Z M 327.3 282.58 Q 327.3 282.35 327.33 282.1 Q 327.36 281.84 327.46 281.63 Q 327.55 281.41 327.72 281.27 Q 327.89 281.12 328.17 281.12 Q 328.46 281.12 328.63 281.27 Q 328.79 281.41 328.88 281.63 Q 328.97 281.84 329 282.1 Q 329.02 282.35 329.02 282.57 Q 329.02 282.8 328.99 283.06 Q 328.96 283.32 328.87 283.54 Q 328.77 283.75 328.6 283.89 Q 328.43 284.03 328.14 284.03 Q 327.86 284.03 327.7 283.89 Q 327.53 283.74 327.44 283.53 Q 327.35 283.31 327.33 283.06 Q 327.3 282.8 327.3 282.58 Z M 326.55 282.6 Q 326.55 283.01 326.64 283.37 Q 326.72 283.73 326.91 284 Q 327.1 284.26 327.41 284.42 Q 327.72 284.57 328.17 284.57 Q 328.61 284.57 328.91 284.41 Q 329.21 284.24 329.41 283.97 Q 329.6 283.69 329.69 283.33 Q 329.77 282.96 329.77 282.57 Q 329.77 282.16 329.7 281.8 Q 329.62 281.43 329.44 281.16 Q 329.25 280.89 328.95 280.73 Q 328.64 280.57 328.17 280.57 Q 327.71 280.57 327.4 280.74 Q 327.09 280.9 326.9 281.18 Q 326.71 281.46 326.63 281.83 Q 326.55 282.19 326.55 282.6 Z M 327.95 277.24 L 322.57 284.67 L 323.43 284.67 L 328.8 277.24 Z" style="text-wrap-mode: nowrap;"/><path d="M 25.62 315.81 Q 25.62 315.5 25.63 315.12 Q 25.63 314.74 25.69 314.37 Q 25.74 313.99 25.84 313.63 Q 25.95 313.27 26.14 313 Q 26.34 312.73 26.64 312.56 Q 26.94 312.39 27.37 312.39 Q 27.81 312.39 28.11 312.56 Q 28.41 312.73 28.6 313 Q 28.8 313.27 28.9 313.63 Q 29.01 313.99 29.06 314.37 Q 29.11 314.74 29.12 315.12 Q 29.13 315.5 29.13 315.81 Q 29.13 316.29 29.1 316.89 Q 29.07 317.48 28.9 318 Q 28.74 318.52 28.38 318.88 Q 28.02 319.24 27.37 319.24 Q 26.73 319.24 26.37 318.88 Q 26.01 318.52 25.84 318 Q 25.68 317.48 25.65 316.89 Q 25.62 316.29 25.62 315.81 Z M 24.54 315.82 Q 24.54 316.29 24.57 316.8 Q 24.59 317.3 24.69 317.78 Q 24.78 318.26 24.96 318.69 Q 25.14 319.11 25.45 319.44 Q 25.77 319.76 26.24 319.95 Q 26.71 320.13 27.37 320.13 Q 28.05 320.13 28.51 319.95 Q 28.98 319.76 29.29 319.44 Q 29.61 319.11 29.79 318.69 Q 29.97 318.26 30.06 317.78 Q 30.16 317.3 30.18 316.8 Q 30.21 316.29 30.21 315.82 Q 30.21 315.36 30.18 314.85 Q 30.16 314.35 30.06 313.87 Q 29.97 313.39 29.79 312.96 Q 29.61 312.52 29.29 312.2 Q 28.98 311.88 28.51 311.68 Q 28.03 311.49 27.37 311.49 Q 26.71 311.49 26.24 311.68 Q 25.77 311.88 25.45 312.2 Q 25.14 312.52 24.96 312.96 Q 24.78 313.39 24.69 313.87 Q 24.59 314.35 24.57 314.85 Q 24.54 315.36 24.54 315.82 Z" style="text-wrap-mode: nowrap;"/><path d="M 102.97 312.51 L 102.97 311.64 L 97.47 311.64 L 97.47 312.6 L 101.93 312.6 Q 101.26 313.3 100.68 314.14 Q 100.09 314.98 99.65 315.93 Q 99.21 316.87 98.92 317.89 Q 98.64 318.92 98.57 320 L 99.71 320 Q 99.77 319 100.05 317.95 Q 100.32 316.89 100.76 315.9 Q 101.2 314.9 101.76 314.02 Q 102.33 313.15 102.97 312.51 Z" style="text-wrap-mode: nowrap;"/><path d="M 171.14 320 L 171.14 311.49 L 170.36 311.49 Q 170.27 311.97 170.05 312.28 Q 169.82 312.6 169.49 312.78 Q 169.16 312.96 168.75 313.02 Q 168.34 313.09 167.91 313.09 L 167.91 313.9 L 170.12 313.9 L 170.12 320 Z M 176.48 317.11 L 173.62 317.11 L 176.45 312.94 L 176.48 312.94 Z M 177.44 317.11 L 177.44 311.49 L 176.62 311.49 L 172.74 317.02 L 172.74 318.01 L 176.48 318.01 L 176.48 320 L 177.44 320 L 177.44 318.01 L 178.59 318.01 L 178.59 317.11 Z" style="text-wrap-mode: nowrap;"/><path d="M 237.39 314.5 L 238.41 314.5 Q 238.4 314.12 238.49 313.74 Q 238.58 313.36 238.79 313.06 Q 238.99 312.76 239.31 312.58 Q 239.63 312.39 240.07 312.39 Q 240.41 312.39 240.71 312.5 Q 241.01 312.61 241.23 312.81 Q 241.45 313.02 241.58 313.3 Q 241.71 313.58 241.71 313.93 Q 241.71 314.37 241.58 314.71 Q 241.44 315.04 241.17 315.33 Q 240.9 315.62 240.49 315.9 Q 240.08 316.18 239.54 316.52 Q 239.1 316.78 238.69 317.08 Q 238.28 317.38 237.96 317.78 Q 237.63 318.18 237.42 318.71 Q 237.21 319.24 237.15 320 L 242.71 320 L 242.71 319.1 L 238.34 319.1 Q 238.41 318.7 238.65 318.4 Q 238.88 318.09 239.21 317.83 Q 239.54 317.56 239.94 317.33 Q 240.33 317.1 240.73 316.86 Q 241.13 316.6 241.5 316.33 Q 241.87 316.05 242.16 315.71 Q 242.45 315.37 242.62 314.94 Q 242.79 314.5 242.79 313.94 Q 242.79 313.34 242.58 312.88 Q 242.37 312.43 242.01 312.12 Q 241.65 311.82 241.17 311.65 Q 240.68 311.49 240.13 311.49 Q 239.46 311.49 238.93 311.72 Q 238.4 311.95 238.05 312.35 Q 237.69 312.75 237.53 313.3 Q 237.36 313.86 237.39 314.5 Z M 248.37 320 L 248.37 311.49 L 247.59 311.49 Q 247.51 311.97 247.28 312.28 Q 247.05 312.6 246.72 312.78 Q 246.39 312.96 245.98 313.02 Q 245.57 313.09 245.14 313.09 L 245.14 313.9 L 247.35 313.9 L 247.35 320 Z" style="text-wrap-mode: nowrap;"/><path d="M 307.39 314.5 L 308.41 314.5 Q 308.4 314.12 308.49 313.74 Q 308.58 313.36 308.79 313.06 Q 308.99 312.76 309.31 312.58 Q 309.63 312.39 310.07 312.39 Q 310.41 312.39 310.71 312.5 Q 311.01 312.61 311.23 312.81 Q 311.45 313.02 311.58 313.3 Q 311.71 313.58 311.71 313.93 Q 311.71 314.37 311.58 314.71 Q 311.44 315.04 311.17 315.33 Q 310.9 315.62 310.49 315.9 Q 310.08 316.18 309.54 316.52 Q 309.1 316.78 308.69 317.08 Q 308.28 317.38 307.96 317.78 Q 307.63 318.18 307.42 318.71 Q 307.21 319.24 307.15 320 L 312.71 320 L 312.71 319.1 L 308.34 319.1 Q 308.41 318.7 308.65 318.4 Q 308.88 318.09 309.21 317.83 Q 309.54 317.56 309.94 317.33 Q 310.33 317.1 310.73 316.86 Q 311.13 316.6 311.5 316.33 Q 311.87 316.05 312.16 315.71 Q 312.45 315.37 312.62 314.94 Q 312.79 314.5 312.79 313.94 Q 312.79 313.34 312.58 312.88 Q 312.37 312.43 312.01 312.12 Q 311.65 311.82 311.17 311.65 Q 310.68 311.49 310.13 311.49 Q 309.46 311.49 308.93 311.72 Q 308.4 311.95 308.05 312.35 Q 307.69 312.75 307.53 313.3 Q 307.36 313.86 307.39 314.5 Z M 315.96 313.7 Q 315.96 313.38 316.08 313.14 Q 316.2 312.9 316.4 312.73 Q 316.59 312.56 316.87 312.48 Q 317.15 312.39 317.45 312.39 Q 318.07 312.39 318.47 312.72 Q 318.87 313.05 318.87 313.7 Q 318.87 314.35 318.48 314.71 Q 318.08 315.07 317.47 315.07 Q 317.16 315.07 316.88 314.98 Q 316.61 314.9 316.4 314.73 Q 316.2 314.56 316.08 314.31 Q 315.96 314.05 315.96 313.7 Z M 314.88 313.66 Q 314.88 314.24 315.2 314.73 Q 315.53 315.21 316.07 315.43 Q 315.35 315.68 314.96 316.24 Q 314.58 316.8 314.58 317.55 Q 314.58 318.2 314.8 318.69 Q 315.02 319.17 315.41 319.5 Q 315.8 319.82 316.33 319.98 Q 316.86 320.13 317.47 320.13 Q 318.06 320.13 318.57 319.96 Q 319.09 319.8 319.47 319.47 Q 319.85 319.14 320.07 318.66 Q 320.29 318.18 320.29 317.55 Q 320.29 316.76 319.92 316.21 Q 319.55 315.67 318.78 315.43 Q 319.32 315.19 319.64 314.71 Q 319.95 314.24 319.95 313.66 Q 319.95 313.26 319.81 312.87 Q 319.67 312.48 319.36 312.17 Q 319.05 311.86 318.56 311.68 Q 318.07 311.49 317.37 311.49 Q 316.88 311.49 316.43 311.64 Q 315.98 311.78 315.63 312.06 Q 315.29 312.33 315.08 312.73 Q 314.88 313.14 314.88 313.66 Z M 315.66 317.6 Q 315.66 317.23 315.8 316.93 Q 315.93 316.63 316.18 316.41 Q 316.43 316.2 316.76 316.08 Q 317.09 315.97 317.46 315.97 Q 317.82 315.97 318.14 316.09 Q 318.45 316.22 318.69 316.44 Q 318.93 316.65 319.07 316.95 Q 319.21 317.24 319.21 317.59 Q 319.21 317.95 319.08 318.25 Q 318.96 318.55 318.72 318.77 Q 318.49 318.99 318.17 319.12 Q 317.85 319.24 317.47 319.24 Q 316.68 319.24 316.17 318.81 Q 315.66 318.37 315.66 317.6 Z" style="text-wrap-mode: nowrap;"/><path d="M -17.73 223.24 L -17.73 222.34 L -21.93 222.34 L -22.72 226.75 L -21.84 226.8 Q -21.54 226.44 -21.15 226.22 Q -20.76 226 -20.26 226 Q -19.83 226 -19.47 226.14 Q -19.12 226.28 -18.87 226.54 Q -18.62 226.8 -18.48 227.15 Q -18.34 227.51 -18.34 227.93 Q -18.34 228.43 -18.48 228.81 Q -18.63 229.19 -18.87 229.44 Q -19.12 229.69 -19.45 229.82 Q -19.78 229.94 -20.14 229.94 Q -20.52 229.94 -20.84 229.83 Q -21.16 229.72 -21.39 229.51 Q -21.63 229.3 -21.77 229.01 Q -21.9 228.73 -21.93 228.41 L -22.95 228.41 Q -22.94 228.98 -22.72 229.44 Q -22.5 229.9 -22.13 230.2 Q -21.76 230.51 -21.27 230.67 Q -20.79 230.83 -20.24 230.83 Q -19.49 230.83 -18.93 230.6 Q -18.38 230.36 -18 229.97 Q -17.63 229.57 -17.45 229.06 Q -17.26 228.55 -17.26 228.01 Q -17.26 227.28 -17.48 226.73 Q -17.69 226.19 -18.06 225.82 Q -18.44 225.46 -18.94 225.28 Q -19.44 225.1 -20.01 225.1 Q -20.44 225.1 -20.88 225.25 Q -21.32 225.4 -21.59 225.71 L -21.62 225.68 L -21.16 223.24 Z M -14.39 226.51 Q -14.39 226.2 -14.38 225.82 Q -14.38 225.44 -14.32 225.07 Q -14.27 224.69 -14.17 224.33 Q -14.07 223.97 -13.87 223.7 Q -13.67 223.43 -13.37 223.26 Q -13.07 223.09 -12.64 223.09 Q -12.21 223.09 -11.91 223.26 Q -11.61 223.43 -11.41 223.7 Q -11.21 223.97 -11.11 224.33 Q -11.01 224.69 -10.95 225.07 Q -10.9 225.44 -10.89 225.82 Q -10.89 226.2 -10.89 226.51 Q -10.89 226.99 -10.92 227.59 Q -10.95 228.18 -11.11 228.7 Q -11.27 229.22 -11.63 229.58 Q -11.99 229.94 -12.64 229.94 Q -13.29 229.94 -13.65 229.58 Q -14.01 229.22 -14.17 228.7 Q -14.33 228.18 -14.36 227.59 Q -14.39 226.99 -14.39 226.51 Z M -15.47 226.52 Q -15.47 226.99 -15.45 227.5 Q -15.42 228 -15.33 228.48 Q -15.23 228.96 -15.05 229.39 Q -14.87 229.81 -14.56 230.14 Q -14.25 230.46 -13.77 230.65 Q -13.3 230.83 -12.64 230.83 Q -11.97 230.83 -11.5 230.65 Q -11.03 230.46 -10.72 230.14 Q -10.41 229.81 -10.23 229.39 Q -10.05 228.96 -9.95 228.48 Q -9.85 228 -9.83 227.5 Q -9.81 226.99 -9.81 226.52 Q -9.81 226.06 -9.83 225.55 Q -9.85 225.05 -9.95 224.57 Q -10.05 224.09 -10.23 223.66 Q -10.41 223.22 -10.72 222.9 Q -11.03 222.58 -11.5 222.38 Q -11.98 222.19 -12.64 222.19 Q -13.3 222.19 -13.77 222.38 Q -14.25 222.58 -14.56 222.9 Q -14.87 223.22 -15.05 223.66 Q -15.23 224.09 -15.33 224.57 Q -15.42 225.05 -15.45 225.55 Q -15.47 226.06 -15.47 226.52 Z M -6.83 226.51 Q -6.83 226.2 -6.82 225.82 Q -6.81 225.44 -6.76 225.07 Q -6.71 224.69 -6.6 224.33 Q -6.5 223.97 -6.3 223.7 Q -6.11 223.43 -5.81 223.26 Q -5.51 223.09 -5.07 223.09 Q -4.64 223.09 -4.34 223.26 Q -4.04 223.43 -3.84 223.7 Q -3.65 223.97 -3.54 224.33 Q -3.44 224.69 -3.39 225.07 Q -3.33 225.44 -3.33 225.82 Q -3.32 226.2 -3.32 226.51 Q -3.32 226.99 -3.35 227.59 Q -3.38 228.18 -3.54 228.7 Q -3.71 229.22 -4.07 229.58 Q -4.43 229.94 -5.07 229.94 Q -5.72 229.94 -6.08 229.58 Q -6.44 229.22 -6.6 228.7 Q -6.77 228.18 -6.8 227.59 Q -6.83 226.99 -6.83 226.51 Z M -7.91 226.52 Q -7.91 226.99 -7.88 227.5 Q -7.86 228 -7.76 228.48 Q -7.67 228.96 -7.49 229.39 Q -7.31 229.81 -6.99 230.14 Q -6.68 230.46 -6.21 230.65 Q -5.73 230.83 -5.07 230.83 Q -4.4 230.83 -3.93 230.65 Q -3.47 230.46 -3.15 230.14 Q -2.84 229.81 -2.66 229.39 Q -2.48 228.96 -2.39 228.48 Q -2.29 228 -2.27 227.5 Q -2.24 226.99 -2.24 226.52 Q -2.24 226.06 -2.27 225.55 Q -2.29 225.05 -2.39 224.57 Q -2.48 224.09 -2.66 223.66 Q -2.84 223.22 -3.15 222.9 Q -3.47 222.58 -3.94 222.38 Q -4.41 222.19 -5.07 222.19 Q -5.73 222.19 -6.21 222.38 Q -6.68 222.58 -6.99 222.9 Q -7.31 223.22 -7.49 223.66 Q -7.67 224.09 -7.76 224.57 Q -7.86 225.05 -7.88 225.55 Q -7.91 226.06 -7.91 226.52 Z" transform="matrix(1, 0, 0, 1.014233, 13.971914, 1.305601)" style="text-wrap-mode: nowrap;"/><path d="M -10.71 98.94 L -10.71 90.44 L -11.49 90.44 Q -11.57 90.92 -11.8 91.23 Q -12.03 91.54 -12.36 91.72 Q -12.69 91.9 -13.09 91.97 Q -13.5 92.03 -13.93 92.03 L -13.93 92.85 L -11.73 92.85 L -11.73 98.94 Z M -3.79 91.48 L -3.79 90.58 L -7.99 90.58 L -8.79 95 L -7.91 95.04 Q -7.61 94.68 -7.22 94.46 Q -6.83 94.24 -6.33 94.24 Q -5.89 94.24 -5.54 94.38 Q -5.19 94.53 -4.93 94.79 Q -4.68 95.04 -4.54 95.4 Q -4.41 95.75 -4.41 96.17 Q -4.41 96.68 -4.55 97.05 Q -4.69 97.43 -4.94 97.68 Q -5.19 97.94 -5.52 98.06 Q -5.85 98.19 -6.21 98.19 Q -6.59 98.19 -6.91 98.07 Q -7.23 97.96 -7.46 97.75 Q -7.69 97.54 -7.83 97.26 Q -7.97 96.98 -7.99 96.65 L -9.01 96.65 Q -9 97.23 -8.79 97.68 Q -8.57 98.14 -8.2 98.45 Q -7.83 98.75 -7.34 98.91 Q -6.85 99.08 -6.3 99.08 Q -5.56 99.08 -5 98.84 Q -4.44 98.61 -4.07 98.21 Q -3.7 97.82 -3.51 97.31 Q -3.33 96.8 -3.33 96.26 Q -3.33 95.52 -3.54 94.98 Q -3.76 94.43 -4.13 94.07 Q -4.5 93.7 -5.01 93.52 Q -5.51 93.34 -6.07 93.34 Q -6.51 93.34 -6.94 93.49 Q -7.38 93.64 -7.66 93.95 L -7.68 93.93 L -7.23 91.48 Z M -0.42 94.76 Q -0.42 94.44 -0.42 94.07 Q -0.41 93.69 -0.36 93.31 Q -0.3 92.93 -0.2 92.57 Q -0.1 92.21 0.1 91.94 Q 0.3 91.67 0.6 91.5 Q 0.9 91.34 1.33 91.34 Q 1.76 91.34 2.06 91.5 Q 2.36 91.67 2.56 91.94 Q 2.76 92.21 2.86 92.57 Q 2.96 92.93 3.01 93.31 Q 3.07 93.69 3.07 94.07 Q 3.08 94.44 3.08 94.76 Q 3.08 95.24 3.05 95.83 Q 3.02 96.42 2.86 96.95 Q 2.7 97.47 2.34 97.83 Q 1.98 98.19 1.33 98.19 Q 0.68 98.19 0.32 97.83 Q -0.04 97.47 -0.2 96.95 Q -0.36 96.42 -0.39 95.83 Q -0.42 95.24 -0.42 94.76 Z M -1.5 94.77 Q -1.5 95.24 -1.48 95.74 Q -1.46 96.24 -1.36 96.72 Q -1.26 97.2 -1.08 97.63 Q -0.9 98.06 -0.59 98.38 Q -0.28 98.7 0.19 98.89 Q 0.67 99.08 1.33 99.08 Q 2 99.08 2.47 98.89 Q 2.94 98.7 3.25 98.38 Q 3.56 98.06 3.74 97.63 Q 3.92 97.2 4.02 96.72 Q 4.11 96.24 4.14 95.74 Q 4.16 95.24 4.16 94.77 Q 4.16 94.3 4.14 93.8 Q 4.11 93.29 4.02 92.81 Q 3.92 92.33 3.74 91.9 Q 3.56 91.47 3.25 91.14 Q 2.94 90.82 2.46 90.63 Q 1.99 90.44 1.33 90.44 Q 0.67 90.44 0.19 90.63 Q -0.28 90.82 -0.59 91.14 Q -0.9 91.47 -1.08 91.9 Q -1.26 92.33 -1.36 92.81 Q -1.46 93.29 -1.48 93.8 Q -1.5 94.3 -1.5 94.77 Z M 7.11 94.76 Q 7.11 94.44 7.12 94.07 Q 7.12 93.69 7.18 93.31 Q 7.23 92.93 7.33 92.57 Q 7.44 92.21 7.63 91.94 Q 7.83 91.67 8.13 91.5 Q 8.43 91.34 8.86 91.34 Q 9.3 91.34 9.6 91.5 Q 9.9 91.67 10.09 91.94 Q 10.29 92.21 10.39 92.57 Q 10.5 92.93 10.55 93.31 Q 10.6 93.69 10.61 94.07 Q 10.62 94.44 10.62 94.76 Q 10.62 95.24 10.59 95.83 Q 10.56 96.42 10.39 96.95 Q 10.23 97.47 9.87 97.83 Q 9.51 98.19 8.86 98.19 Q 8.22 98.19 7.86 97.83 Q 7.5 97.47 7.33 96.95 Q 7.17 96.42 7.14 95.83 Q 7.11 95.24 7.11 94.76 Z M 6.03 94.77 Q 6.03 95.24 6.06 95.74 Q 6.08 96.24 6.18 96.72 Q 6.27 97.2 6.45 97.63 Q 6.63 98.06 6.94 98.38 Q 7.26 98.7 7.73 98.89 Q 8.2 99.08 8.86 99.08 Q 9.54 99.08 10 98.89 Q 10.47 98.7 10.78 98.38 Q 11.1 98.06 11.28 97.63 Q 11.46 97.2 11.55 96.72 Q 11.65 96.24 11.67 95.74 Q 11.7 95.24 11.7 94.77 Q 11.7 94.3 11.67 93.8 Q 11.65 93.29 11.55 92.81 Q 11.46 92.33 11.28 91.9 Q 11.1 91.47 10.78 91.14 Q 10.47 90.82 10 90.63 Q 9.52 90.44 8.86 90.44 Q 8.2 90.44 7.73 90.63 Q 7.26 90.82 6.94 91.14 Q 6.63 91.47 6.45 91.9 Q 6.27 92.33 6.18 92.81 Q 6.08 93.29 6.06 93.8 Q 6.03 94.3 6.03 94.77 Z" style="text-wrap-mode: nowrap;"/></g><path style="text-wrap-mode: nowrap;"/><path d="M -39.39 163.72 L -39.39 170 L -38.64 170 L -38.64 168.28 L -37.94 167.62 L -36.38 170 L -35.43 170 L -37.37 167.1 L -35.56 165.45 L -36.57 165.45 L -38.64 167.44 L -38.64 163.72 Z M -30.79 169.61 L -30.79 165.45 L -31.5 165.45 L -31.5 166.1 L -31.51 166.1 Q -31.71 165.72 -32.07 165.53 Q -32.43 165.34 -32.86 165.34 Q -33.45 165.34 -33.86 165.57 Q -34.26 165.79 -34.51 166.14 Q -34.75 166.49 -34.86 166.92 Q -34.96 167.34 -34.96 167.75 Q -34.96 168.21 -34.84 168.63 Q -34.71 169.05 -34.45 169.36 Q -34.2 169.67 -33.82 169.86 Q -33.44 170.04 -32.93 170.04 Q -32.49 170.04 -32.1 169.85 Q -31.71 169.65 -31.51 169.23 L -31.5 169.23 L -31.5 169.52 Q -31.5 169.9 -31.57 170.22 Q -31.65 170.54 -31.81 170.76 Q -31.98 170.99 -32.24 171.11 Q -32.49 171.24 -32.86 171.24 Q -33.05 171.24 -33.25 171.2 Q -33.45 171.16 -33.62 171.07 Q -33.79 170.99 -33.91 170.84 Q -34.03 170.7 -34.04 170.5 L -34.79 170.5 Q -34.77 170.87 -34.59 171.13 Q -34.42 171.38 -34.15 171.54 Q -33.88 171.7 -33.55 171.77 Q -33.22 171.84 -32.91 171.84 Q -31.81 171.84 -31.3 171.28 Q -30.79 170.73 -30.79 169.61 Z M -32.89 169.39 Q -33.26 169.39 -33.5 169.24 Q -33.75 169.08 -33.9 168.83 Q -34.05 168.58 -34.11 168.28 Q -34.17 167.97 -34.17 167.66 Q -34.17 167.33 -34.1 167.03 Q -34.02 166.74 -33.86 166.51 Q -33.7 166.28 -33.44 166.14 Q -33.19 166 -32.83 166 Q -32.47 166 -32.23 166.15 Q -31.98 166.29 -31.83 166.52 Q -31.67 166.75 -31.6 167.04 Q -31.53 167.33 -31.53 167.63 Q -31.53 167.95 -31.61 168.27 Q -31.68 168.58 -31.84 168.83 Q -32 169.08 -32.26 169.24 Q -32.52 169.39 -32.89 169.39 Z M -24.98 164.42 L -24.98 170 L -24.15 170 L -24.15 164.42 L -22.05 164.42 L -22.05 163.72 L -27.08 163.72 L -27.08 164.42 Z M -17.02 165.56 L -16.23 165.56 Q -16.25 165.04 -16.43 164.66 Q -16.61 164.29 -16.92 164.04 Q -17.23 163.8 -17.65 163.68 Q -18.06 163.57 -18.54 163.57 Q -18.98 163.57 -19.39 163.68 Q -19.79 163.79 -20.12 164.01 Q -20.44 164.24 -20.63 164.58 Q -20.82 164.93 -20.82 165.41 Q -20.82 165.84 -20.65 166.12 Q -20.48 166.41 -20.19 166.59 Q -19.91 166.77 -19.55 166.88 Q -19.19 166.99 -18.81 167.07 Q -18.44 167.16 -18.08 167.24 Q -17.72 167.32 -17.43 167.44 Q -17.15 167.57 -16.97 167.77 Q -16.8 167.98 -16.8 168.3 Q -16.8 168.64 -16.94 168.86 Q -17.08 169.08 -17.31 169.21 Q -17.54 169.34 -17.83 169.39 Q -18.11 169.45 -18.4 169.45 Q -18.75 169.45 -19.08 169.36 Q -19.42 169.27 -19.67 169.08 Q -19.92 168.9 -20.07 168.61 Q -20.23 168.33 -20.23 167.93 L -21.02 167.93 Q -21.02 168.5 -20.81 168.92 Q -20.6 169.34 -20.25 169.61 Q -19.89 169.88 -19.42 170.01 Q -18.95 170.14 -18.42 170.14 Q -17.99 170.14 -17.55 170.04 Q -17.12 169.94 -16.77 169.71 Q -16.42 169.49 -16.19 169.13 Q -15.97 168.78 -15.97 168.28 Q -15.97 167.81 -16.14 167.5 Q -16.31 167.19 -16.6 166.99 Q -16.88 166.79 -17.24 166.67 Q -17.6 166.55 -17.98 166.46 Q -18.35 166.37 -18.71 166.3 Q -19.07 166.22 -19.36 166.11 Q -19.64 166 -19.82 165.82 Q -19.99 165.64 -19.99 165.34 Q -19.99 165.04 -19.87 164.83 Q -19.75 164.62 -19.55 164.5 Q -19.35 164.38 -19.1 164.32 Q -18.84 164.27 -18.58 164.27 Q -17.93 164.27 -17.51 164.57 Q -17.09 164.88 -17.02 165.56 Z M -13.12 163.57 L -15.71 170.14 L -15.08 170.14 L -12.47 163.57 Z M -12.15 163.72 L -12.15 170 L -11.41 170 L -11.41 167.43 Q -11.41 167.12 -11.32 166.86 Q -11.24 166.6 -11.07 166.41 Q -10.91 166.22 -10.65 166.11 Q -10.4 166 -10.06 166 Q -9.63 166 -9.38 166.25 Q -9.14 166.5 -9.14 166.92 L -9.14 170 L -8.39 170 L -8.39 167.01 Q -8.39 166.64 -8.46 166.33 Q -8.54 166.03 -8.72 165.81 Q -8.91 165.59 -9.21 165.47 Q -9.51 165.34 -9.95 165.34 Q -10.16 165.34 -10.37 165.39 Q -10.59 165.43 -10.79 165.53 Q -10.98 165.62 -11.14 165.76 Q -11.3 165.91 -11.39 166.12 L -11.41 166.12 L -11.41 163.72 Z M -2.78 169.98 Q -2.97 170.1 -3.32 170.1 Q -3.61 170.1 -3.78 169.93 Q -3.95 169.77 -3.95 169.4 Q -4.26 169.77 -4.67 169.93 Q -5.08 170.1 -5.55 170.1 Q -5.86 170.1 -6.14 170.03 Q -6.41 169.96 -6.62 169.81 Q -6.82 169.66 -6.94 169.41 Q -7.06 169.17 -7.06 168.83 Q -7.06 168.44 -6.93 168.2 Q -6.79 167.95 -6.58 167.8 Q -6.36 167.64 -6.08 167.56 Q -5.81 167.48 -5.52 167.43 Q -5.21 167.37 -4.93 167.34 Q -4.65 167.31 -4.44 167.25 Q -4.23 167.19 -4.11 167.08 Q -3.99 166.97 -3.99 166.76 Q -3.99 166.52 -4.08 166.37 Q -4.17 166.22 -4.32 166.14 Q -4.46 166.06 -4.64 166.03 Q -4.82 166 -5 166 Q -5.47 166 -5.79 166.19 Q -6.11 166.37 -6.13 166.87 L -6.88 166.87 Q -6.86 166.44 -6.71 166.15 Q -6.55 165.86 -6.28 165.68 Q -6.02 165.5 -5.68 165.42 Q -5.34 165.34 -4.95 165.34 Q -4.65 165.34 -4.34 165.39 Q -4.04 165.43 -3.79 165.57 Q -3.55 165.71 -3.4 165.95 Q -3.25 166.2 -3.25 166.59 L -3.25 168.94 Q -3.25 169.2 -3.22 169.32 Q -3.19 169.45 -3.01 169.45 Q -2.91 169.45 -2.78 169.4 Z M -3.99 167.65 Q -4.14 167.76 -4.36 167.8 Q -4.59 167.85 -4.84 167.88 Q -5.09 167.91 -5.35 167.95 Q -5.61 167.99 -5.81 168.08 Q -6.01 168.17 -6.14 168.33 Q -6.27 168.5 -6.27 168.78 Q -6.27 168.96 -6.19 169.09 Q -6.12 169.22 -6 169.3 Q -5.88 169.38 -5.72 169.41 Q -5.56 169.45 -5.39 169.45 Q -5.02 169.45 -4.75 169.34 Q -4.49 169.24 -4.32 169.09 Q -4.15 168.94 -4.07 168.75 Q -3.99 168.57 -3.99 168.42 Z" transform="matrix(0, -1, 1, 0, -123.548035, 161.133255)" style="text-wrap-mode: nowrap;"/><path style="fill: rgb(216, 216, 216); stroke: rgb(0, 0, 0); stroke-width: 1;" d="M 79.494 240 L 72.7 240.207"/><path style="fill: rgb(216, 216, 216); stroke: rgb(0, 0, 0); stroke-width: 1;" d="M 79.539 190 L 72.745 190.207"/><path style="fill: rgb(216, 216, 216); stroke: rgb(0, 0, 0); stroke-width: 1;" d="M 79.494 140 L 72.7 140.207"/><path style="fill: rgb(216, 216, 216); stroke: rgb(0, 0, 0); stroke-width: 1;" d="M 79.494 90 L 72.7 90.207"/><path style="fill: rgb(216, 216, 216); stroke: rgb(0, 0, 0); stroke-width: 1;" d="M 79.494 290 L 72.7 290.207"/></svg>