<svg xmlns:dc="http://purl.org/dc/elements/1.1/" xmlns:cc="http://creativecommons.org/ns#" xmlns:rdf="http://www.w3.org/1999/02/22-rdf-syntax-ns#" xmlns:svg="http://www.w3.org/2000/svg" xmlns="http://www.w3.org/2000/svg" viewBox="0 0 148.556 145.752" height="145.752" width="148.556" xml:space="preserve" id="svg2" version="1.1"><metadata id="metadata8"/><defs id="defs6"><clipPath id="clipPath14" clipPathUnits="userSpaceOnUse"><path id="path12" d="M 0,0 H 892.913 V 1332.28 H 0 Z"/></clipPath><clipPath id="clipPath24" clipPathUnits="userSpaceOnUse"><path id="path22" d="M 32768,32768 H -32768 V -32768 H 32768 Z"/></clipPath><clipPath id="clipPath36" clipPathUnits="userSpaceOnUse"><path id="path34" d="M 32768,32768 H -32768 V -32768 H 32768 Z"/></clipPath><clipPath id="clipPath62" clipPathUnits="userSpaceOnUse"><path id="path60" d="M 598.854,779.372 H 712.17 v 98.727 H 598.854 Z"/></clipPath><clipPath id="clipPath98" clipPathUnits="userSpaceOnUse"><path id="path96" d="M 598.854,779.372 H 712.17 v 98.727 H 598.854 Z"/></clipPath></defs><g clip-path="url(#clipPath14)" transform="matrix(1.3333333,0,0,-1.3333333,-800.236,1173.7427)" id="g10"><g id="g16"><g id="g18"><g clip-path="url(#clipPath24)" id="g20"><g id="g26"/></g></g></g><g id="g28"><g id="g30"><g clip-path="url(#clipPath36)" id="g32"><g id="g38"/></g></g></g><text id="text42" style="font-variant:normal;font-weight:600;font-stretch:normal;font-size:13px;font-family:'ITC Franklin Gothic Std';-inkscape-font-specification:ITCFranklinGothicStd-Demi;writing-mode:lr-tb;fill:#45aa29;fill-opacity:1;fill-rule:nonzero;stroke:none" transform="matrix(1,0,0,-1,602.125,794.38)"><tspan id="tspan40" y="0" x="0">G</tspan></text><text id="text46" style="font-variant:normal;font-weight:600;font-stretch:normal;font-size:13px;font-family:'ITC Franklin Gothic Std';-inkscape-font-specification:ITCFranklinGothicStd-Demi;writing-mode:lr-tb;fill:#45aa29;fill-opacity:1;fill-rule:nonzero;stroke:none" transform="matrix(1,0,0,-1,610.9647,794.3805)"><tspan id="tspan44" y="0" x="0">R</tspan></text><text id="text50" style="font-variant:normal;font-weight:600;font-stretch:normal;font-size:13px;font-family:'ITC Franklin Gothic Std';-inkscape-font-specification:ITCFranklinGothicStd-Demi;writing-mode:lr-tb;fill:#45aa29;fill-opacity:1;fill-rule:nonzero;stroke:none" transform="matrix(1,0,0,-1,619.8047,794.3805)"><tspan id="tspan48" y="0" x="0 8.5799999">AS</tspan></text><text id="text54" style="font-variant:normal;font-weight:normal;font-stretch:normal;font-size:13px;font-family:'ITC Franklin Gothic Std';-inkscape-font-specification:ITCFranklinGothicStd-Book;writing-mode:lr-tb;fill:#45aa29;fill-opacity:1;fill-rule:nonzero;stroke:none" transform="matrix(1,0,0,-1,636.4447,794.3805)"><tspan id="tspan52" y="0" x="0 10.92 18.459999 26.780001 35.619999 43.939999 50.700001 59.279999">WACHSTUM</tspan></text><g id="g56"><g clip-path="url(#clipPath62)" id="g58"><g transform="translate(672.5973,808.0298)" id="g64"><path id="path66" style="fill:#45aa29;fill-opacity:1;fill-rule:nonzero;stroke:none" d="M 0,0 C -3.817,8.196 -1.454,26.517 9.269,28.446 3.327,23.674 3.919,7.714 18.823,0 Z"/></g><g transform="translate(632.1694,808.0298)" id="g68"><path id="path70" style="fill:#afd496;fill-opacity:1;fill-rule:nonzero;stroke:none" d="M 0,0 C -3.817,8.196 9.712,38.973 2.889,57.107 16.688,46.092 9.712,10.226 18.823,0 Z"/></g><g transform="translate(656.7849,808.0298)" id="g72"><path id="path74" style="fill:#8bbd0d;fill-opacity:1;fill-rule:nonzero;stroke:none" d="M 0,0 C 3.272,19.125 13.813,48.856 12.541,63.16 22.719,44.517 7.634,18.482 23.264,0 Z"/></g><g transform="translate(626.5515,808.0298)" id="g76"><path id="path78" style="fill:#8bbd0d;fill-opacity:1;fill-rule:nonzero;stroke:none" d="M 0,0 C 7.27,14.143 5.621,25.633 -2.279,41.464 6.32,35.035 18.81,17.747 17.923,0 Z"/></g><g transform="translate(648.9695,808.0298)" id="g80"><path id="path82" style="fill:#afd496;fill-opacity:1;fill-rule:nonzero;stroke:none" d="M 0,0 C -1.272,22.5 8.542,42.91 15.267,51.267 11.576,40.45 12.359,16.071 23.264,0 Z"/></g><g transform="translate(642.6548,808.0298)" id="g84"><path id="path86" style="fill:#45aa29;fill-opacity:1;fill-rule:nonzero;stroke:none" d="M 0,0 C -1.272,22.5 11.949,42.589 -0.774,70.07 19.401,56.57 9.041,16.071 19.946,0 Z"/></g></g></g><text id="text90" style="font-variant:normal;font-weight:normal;font-stretch:normal;font-size:10px;font-family:'GNUYN Q +ITC Franklin Gothic Std';-inkscape-font-specification:ITCFranklinGothicStd-BkCd;writing-mode:lr-tb;fill:#8bbd0d;fill-opacity:1;fill-rule:nonzero;stroke:none" transform="matrix(1,0,0,-1,612.4781,783.587)"><tspan id="tspan88" y="0" x="0 7.02 11.65 15.77 19.889999 24.690001 29.32 32.470001 35.91 38.41 43.18 47.610001">Messnetz der</tspan></text><g id="g92"><g clip-path="url(#clipPath98)" id="g94"><g transform="translate(680.5058,784.1996)" id="g100"><path id="path102" style="fill:#45aa29;fill-opacity:1;fill-rule:nonzero;stroke:none" d="m 0,0 c -0.38,-0.251 -0.764,-0.439 -1.153,-0.564 -0.391,-0.126 -0.788,-0.188 -1.194,-0.188 -0.86,0 -1.56,0.276 -2.102,0.827 -0.54,0.552 -0.811,1.264 -0.811,2.14 0,0.532 0.102,1.029 0.302,1.494 0.201,0.464 0.494,0.878 0.879,1.245 0.42,0.398 0.929,0.697 1.524,0.9 0.596,0.202 1.269,0.303 2.02,0.303 0.199,0 0.409,-0.01 0.631,-0.03 C 0.32,6.105 0.563,6.074 0.825,6.033 L 0.699,5.208 C 0.455,5.244 0.222,5.272 -0.006,5.289 -0.232,5.307 -0.452,5.316 -0.666,5.316 -1.745,5.316 -2.613,5.03 -3.274,4.459 -3.936,3.89 -4.265,3.143 -4.265,2.223 c 0,-0.651 0.184,-1.166 0.552,-1.544 0.368,-0.38 0.869,-0.569 1.508,-0.569 0.233,0 0.461,0.029 0.687,0.086 0.225,0.057 0.459,0.149 0.703,0.272 l 0.178,1.139 h -1.024 l 0.083,0.744 h 1.937"/></g><g transform="translate(694.0459,783.5652)" id="g104"><path id="path106" style="fill:#45aa29;fill-opacity:1;fill-rule:nonzero;stroke:none" d="M 0,0 1.014,6.684 H 4.633 L 4.512,5.891 H 1.8 L 1.489,3.856 H 3.886 L 3.764,3.033 H 1.373 L 0.926,0 Z"/></g><g transform="translate(669.333,786.4009)" id="g108"><path id="path110" style="fill:#45aa29;fill-opacity:1;fill-rule:nonzero;stroke:none" d="M 0,0 -0.563,2.652 -1.662,0 Z m -2.831,-2.809 h -0.937 l 2.931,6.685 H 0.018 L 1.432,-2.809 H 0.587 l -0.418,1.997 h -2.185"/></g><g transform="translate(685.8132,783.5923)" id="g112"><path id="path114" style="fill:#45aa29;fill-opacity:1;fill-rule:nonzero;stroke:none" d="M 0,0 1.014,6.684 H 4.633 L 4.512,5.891 H 1.799 L 1.489,3.856 H 3.885 L 3.764,3.034 H 1.373 L 0.926,0 Z"/></g></g></g></g></svg>